<svg width="73" height="73" viewBox="0 0 73 73" fill="none" xmlns="http://www.w3.org/2000/svg">
<circle cx="36.5" cy="36.5" r="36.5" fill="#00887A"/>
<path d="M42.2341 22.4255C42.2341 19.2637 39.6618 16.6914 36.5 16.6914C33.3383 16.6914 30.766 19.2637 30.766 22.4255C30.766 25.5872 33.3383 28.1595 36.5 28.1595C39.6618 28.1595 42.2341 25.5872 42.2341 22.4255ZM36.5 25.084C35.034 25.084 33.8415 23.8914 33.8415 22.4254C33.8415 20.9594 35.034 19.7669 36.5 19.7669C37.966 19.7669 39.1585 20.9594 39.1585 22.4254C39.1585 23.8914 37.966 25.084 36.5 25.084Z" fill="#FF6E1D"/>
<path d="M30.2571 13.5638L21.6436 22.1773V59.4363H51.3564V22.1773L42.7429 13.5638H30.2571ZM29.4628 55.0054C29.4628 55.4373 29.1127 55.7873 28.6809 55.7873C28.249 55.7873 27.899 55.4373 27.899 55.0054V42.4947C27.899 42.0628 28.249 41.7128 28.6809 41.7128C29.1127 41.7128 29.4628 42.0628 29.4628 42.4947V55.0054ZM29.4628 38.3245C29.4628 38.7565 29.1127 39.1064 28.6809 39.1064C28.249 39.1064 27.899 38.7565 27.899 38.3245V34.1544C27.899 33.7225 28.249 33.3725 28.6809 33.3725C29.1127 33.3725 29.4628 33.7225 29.4628 34.1544V38.3245ZM37.2819 55.0054C37.2819 55.4373 36.9319 55.7873 36.5 55.7873C36.0682 55.7873 35.7181 55.4373 35.7181 55.0054V34.1543C35.7181 33.7224 36.0682 33.3724 36.5 33.3724C36.9319 33.3724 37.2819 33.7224 37.2819 34.1543V55.0054ZM45.101 34.1543V55.0053C45.101 55.4372 44.751 55.7872 44.3191 55.7872C43.8872 55.7872 43.5372 55.4372 43.5372 55.0053V34.1543C43.5372 33.7224 43.8872 33.3724 44.3191 33.3724C44.751 33.3724 45.101 33.7224 45.101 34.1543ZM36.5 29.7234C32.476 29.7234 29.2022 26.4496 29.2022 22.4256C29.2022 18.4015 32.476 15.1277 36.5 15.1277C40.524 15.1277 43.7978 18.4015 43.7978 22.4256C43.7978 26.4496 40.524 29.7234 36.5 29.7234Z" fill="#FFCC75"/>
<path d="M52.6913 21.3005L43.6197 12.2289C43.473 12.0824 43.2742 12 43.0668 12H29.9331C29.7258 12 29.5269 12.0824 29.3803 12.2289L20.3089 21.3005C20.1621 21.4472 20.0798 21.646 20.0798 21.8535V60.2181C20.0798 60.65 20.4299 61 20.8617 61H52.1384C52.5703 61 52.9203 60.65 52.9203 60.2181V21.8535C52.9202 21.646 52.8379 21.4472 52.6913 21.3005ZM51.3564 59.4362H21.6436V22.1773L30.2571 13.5638H42.7429L51.3564 22.1773V59.4362Z" fill="#082947"/>
<path d="M36.5 19.767C35.034 19.767 33.8415 20.9594 33.8415 22.4254C33.8415 23.8915 35.034 25.084 36.5 25.084C37.966 25.084 39.1585 23.8915 39.1585 22.4254C39.1585 20.9595 37.966 19.767 36.5 19.767ZM36.5 23.5202C35.8964 23.5202 35.4053 23.029 35.4053 22.4254C35.4053 21.8219 35.8964 21.3309 36.5 21.3309C37.1036 21.3309 37.5946 21.8219 37.5946 22.4254C37.5946 23.029 37.1036 23.5202 36.5 23.5202Z" fill="#082947"/>
<path d="M36.5 15.1277C32.476 15.1277 29.2021 18.4015 29.2021 22.4255C29.2021 26.4496 32.476 29.7234 36.5 29.7234C40.524 29.7234 43.7978 26.4496 43.7978 22.4255C43.7978 18.4015 40.524 15.1277 36.5 15.1277ZM30.7659 22.4255C30.7659 19.2638 33.3382 16.6915 36.5 16.6915C39.6617 16.6915 42.234 19.2638 42.234 22.4255C42.234 25.5873 39.6617 28.1596 36.5 28.1596C33.3382 28.1596 30.7659 25.5873 30.7659 22.4255Z" fill="#082947"/>
<path d="M28.6809 41.7128C28.2491 41.7128 27.899 42.0628 27.899 42.4947V55.0053C27.899 55.4372 28.2491 55.7871 28.6809 55.7871C29.1127 55.7871 29.4628 55.4372 29.4628 55.0053V42.4947C29.4628 42.0628 29.1127 41.7128 28.6809 41.7128Z" fill="#082947"/>
<path d="M28.6809 33.3723C28.2491 33.3723 27.899 33.7223 27.899 34.1542V38.3244C27.899 38.7563 28.2491 39.1063 28.6809 39.1063C29.1127 39.1063 29.4628 38.7563 29.4628 38.3244V34.1542C29.4628 33.7223 29.1127 33.3723 28.6809 33.3723Z" fill="#082947"/>
<path d="M36.5 33.3723C36.0682 33.3723 35.7181 33.7223 35.7181 34.1542V55.0052C35.7181 55.4371 36.0682 55.7871 36.5 55.7871C36.9319 55.7871 37.2819 55.4371 37.2819 55.0052V34.1542C37.2819 33.7223 36.9319 33.3723 36.5 33.3723Z" fill="#082947"/>
<path d="M43.5372 34.1542V55.0052C43.5372 55.4371 43.8872 55.7871 44.3191 55.7871C44.751 55.7871 45.101 55.4371 45.101 55.0052V34.1542C45.101 33.7223 44.751 33.3723 44.3191 33.3723C43.8872 33.3723 43.5372 33.7223 43.5372 34.1542Z" fill="#082947"/>
</svg>
