<svg width="73" height="73" viewBox="0 0 73 73" fill="none" xmlns="http://www.w3.org/2000/svg">
<circle cx="36.5" cy="36.5" r="36.5" fill="#00887A"/>
<path d="M63.6342 39.1271C63.6342 39.1271 51.7097 54.9134 37.0001 54.9134C22.2904 54.9134 10.3658 39.1271 10.3658 39.1271C10.3658 39.1271 22.2903 23.3409 36.9999 23.3409C51.7096 23.3409 63.6342 39.1271 63.6342 39.1271Z" fill="#EFEFEF"/>
<path d="M37 48.3466C31.9162 48.3466 27.7804 44.2108 27.7804 39.127C27.7804 34.0433 31.9162 29.9075 37 29.9075C42.0837 29.9075 46.2195 34.0433 46.2195 39.127C46.2195 44.2108 42.0837 48.3466 37 48.3466Z" fill="#61ACD2"/>
<path d="M64.7239 38.6137C64.5982 38.4473 61.5883 34.491 56.6984 30.4871C50.1452 25.1211 43.3335 22.2848 36.9999 22.2848C30.6664 22.2848 23.8547 25.1211 17.3015 30.4871C12.4117 34.491 9.40174 38.4473 9.27595 38.6137C8.90802 39.1008 8.90802 39.7731 9.27595 40.2603C9.40174 40.4268 12.4117 44.3831 17.3015 48.3869C23.8547 53.7528 30.6664 56.5891 36.9999 56.5891C43.3335 56.5891 50.1452 53.7528 56.6984 48.3869C61.5884 44.3832 64.5982 40.4268 64.7239 40.2603C65.0919 39.7731 65.0919 39.101 64.7239 38.6137ZM36.9998 53.8575C29.8246 53.8575 23.2948 49.7548 19.0803 46.3132C15.712 43.5622 13.2389 40.7786 12.1198 39.4372C13.2392 38.0959 15.712 35.312 19.0803 32.5612C23.2947 29.1195 29.8246 25.0168 36.9998 25.0168C44.1751 25.0168 50.705 29.1195 54.9193 32.5612C58.2871 35.3117 60.7596 38.0949 61.8793 39.4366C59.2266 42.6088 48.9738 53.8575 36.9998 53.8575Z" fill="#082947"/>
<path d="M36.9999 28.8516C31.1632 28.8516 26.4145 33.6002 26.4145 39.4369C26.4145 45.2736 31.1632 50.0222 36.9999 50.0222C42.8365 50.0222 47.5853 45.2736 47.5853 39.4369C47.5853 33.6002 42.8365 28.8516 36.9999 28.8516ZM36.9999 47.2907C32.6692 47.2907 29.1462 43.7676 29.1462 39.437C29.1462 35.1064 32.6692 31.5833 36.9999 31.5833C41.3305 31.5833 44.8535 35.1064 44.8535 39.437C44.8535 43.7676 41.3303 47.2907 36.9999 47.2907Z" fill="#082947"/>
<path d="M36.9998 19.543C37.7542 19.543 38.3657 18.9314 38.3657 18.1771V13.3966C38.3657 12.6424 37.7542 12.0308 36.9998 12.0308C36.2455 12.0308 35.634 12.6424 35.634 13.3966V18.1772C35.6341 18.9316 36.2455 19.543 36.9998 19.543Z" fill="#082947"/>
<path d="M41.7804 19.0399C41.9955 19.164 42.2303 19.2232 42.4621 19.2232C42.9342 19.2232 43.3932 18.9782 43.6462 18.54L46.0365 14.3999C46.4137 13.7466 46.1899 12.9115 45.5366 12.5342C44.8834 12.1572 44.048 12.3809 43.6708 13.0342L41.2806 17.1742C40.9032 17.8274 41.1271 18.6626 41.7804 19.0399Z" fill="#082947"/>
<path d="M30.3536 18.5398C30.6066 18.9779 31.0657 19.2229 31.5377 19.2229C31.7694 19.2229 32.0043 19.1638 32.2195 19.0396C32.8728 18.6624 33.0967 17.8272 32.7194 17.1739L30.3291 13.0338C29.9519 12.3805 29.1165 12.1565 28.4634 12.5339C27.8101 12.9111 27.5862 13.7463 27.9635 14.3996L30.3536 18.5398Z" fill="#082947"/>
<path d="M36.9998 36.3638C35.3052 36.3638 33.9266 37.7424 33.9266 39.437C33.9266 41.1316 35.3052 42.5102 36.9998 42.5102C38.6945 42.5102 40.0731 41.1316 40.0731 39.437C40.0731 37.7423 38.6945 36.3638 36.9998 36.3638Z" fill="#082947"/>
</svg>
