<svg width="78" height="75" viewBox="0 0 78 75" fill="none" xmlns="http://www.w3.org/2000/svg">
<ellipse cx="39" cy="37.5" rx="39" ry="37.5" fill="#00887A"/>
<path d="M55.5564 52.4477C58.957 48.5649 60.8298 43.6116 60.8298 38.5C60.8298 26.686 51.0369 17.0745 39 17.0745C26.9631 17.0745 17.1702 26.686 17.1702 38.5C17.1702 50.314 26.9631 59.9255 39 59.9255C44.208 59.9255 49.2548 58.0874 53.2108 54.7498C53.5674 54.449 54.1023 54.4852 54.4143 54.8277C54.8367 54.4433 55.2442 54.0434 55.6359 53.6289C55.2869 53.3226 55.2499 52.7976 55.5564 52.4477ZM38.1383 19.6117C38.1383 19.1446 38.5241 18.766 39 18.766C39.4759 18.766 39.8617 19.1446 39.8617 19.6117V22.9947C39.8617 23.4618 39.4759 23.8404 39 23.8404C38.5241 23.8404 38.1383 23.4618 38.1383 22.9947V19.6117ZM23.2021 39.3457H19.7553C19.2794 39.3457 18.8936 38.9671 18.8936 38.5C18.8936 38.0329 19.2794 37.6542 19.7553 37.6542H23.2021C23.678 37.6542 24.0638 38.0329 24.0638 38.5C24.0638 38.9671 23.678 39.3457 23.2021 39.3457ZM39.8617 57.3883C39.8617 57.8554 39.4759 58.234 39 58.234C38.5241 58.234 38.1383 57.8554 38.1383 57.3883V54.0053C38.1383 53.5382 38.5241 53.1596 39 53.1596C39.4759 53.1596 39.8617 53.5382 39.8617 54.0053V57.3883ZM53.2174 28.1341L42.1118 39.0341C41.8529 40.4903 40.5566 41.6011 39 41.6011C38.4414 41.6011 37.9165 41.4575 37.4608 41.2068L28.4438 50.0568C28.2756 50.2219 28.055 50.3046 27.8345 50.3046C27.614 50.3046 27.3934 50.222 27.2252 50.0568C26.8887 49.7265 26.8887 49.191 27.2252 48.8608L36.2422 40.0108C36.0717 39.7121 35.9504 39.3832 35.8883 39.0342L28.4385 31.7223C28.102 31.392 28.102 30.8565 28.4385 30.5263L30.8758 28.1342C31.2123 27.8039 31.7579 27.8039 32.0943 28.1342L39.5441 35.4461C39.5807 35.4523 39.6171 35.4586 39.6532 35.4661L40.8274 34.3138C40.4912 33.9835 40.4912 33.4482 40.8277 33.118L49.5615 24.546C49.723 24.3874 49.9422 24.2982 50.1708 24.2982C50.3993 24.2982 50.6185 24.3873 50.78 24.546L53.2173 26.9381C53.5539 27.2683 53.5539 27.8038 53.2174 28.1341ZM54.7979 39.3457C54.322 39.3457 53.9362 38.9671 53.9362 38.5C53.9362 38.0329 54.322 37.6542 54.7979 37.6542H58.2447C58.7206 37.6542 59.1064 38.0329 59.1064 38.5C59.1064 38.9671 58.7206 39.3457 58.2447 39.3457H54.7979Z" fill="white"/>
<path d="M36.2421 36.9893C36.5278 36.4887 36.9508 36.0736 37.4608 35.7932L31.4852 29.9282L30.2665 31.1243L36.2421 36.9893Z" fill="#6DA8D6"/>
<path d="M41.7579 36.9892L51.3894 27.5361L50.1708 26.34L42.0464 34.314C41.7099 34.6443 41.1642 34.6443 40.8278 34.314C40.8275 34.3136 39.6534 35.466 39.6534 35.466C40.557 35.6532 41.3191 36.2207 41.7579 36.9892Z" fill="#98D9D5"/>
<path d="M39 13.6915C25.0624 13.6915 13.7234 24.8206 13.7234 38.5C13.7234 52.1796 25.0624 63.3085 39 63.3085C52.9376 63.3085 64.2766 52.1796 64.2766 38.5C64.2766 24.8206 52.9376 13.6915 39 13.6915ZM56.8633 53.5503C56.5531 53.9045 56.0092 53.9449 55.6481 53.6403C55.6437 53.6367 55.64 53.6326 55.6358 53.6288C55.2441 54.0434 54.8367 54.4433 54.4142 54.8276C54.418 54.8318 54.4222 54.8354 54.426 54.8397C54.7362 55.1939 54.6952 55.7279 54.3343 56.0324C50.0657 59.6338 44.62 61.6171 39 61.6171C26.0127 61.6171 15.4468 51.2469 15.4468 38.5C15.4468 25.7533 26.0127 15.383 39 15.383C51.9873 15.383 62.5532 25.7533 62.5532 38.5C62.5532 44.016 60.5326 49.3609 56.8633 53.5503Z" fill="#FF6E1D"/>
<path d="M58.0919 19.7617C52.9923 14.7565 46.212 12 39 12C31.788 12 25.0077 14.7565 19.9081 19.7617C14.8085 24.7669 12 31.4216 12 38.5C12 45.5784 14.8085 52.2332 19.9081 57.2383C25.0077 62.2436 31.788 65 39 65C46.212 65 52.9923 62.2436 58.0919 57.2383C63.1915 52.2332 66 45.5784 66 38.5C66 31.4216 63.1915 24.7669 58.0919 19.7617ZM39 63.3085C25.0624 63.3085 13.7234 52.1795 13.7234 38.5C13.7234 24.8206 25.0624 13.6915 39 13.6915C52.9376 13.6915 64.2766 24.8206 64.2766 38.5C64.2766 52.1795 52.9376 63.3085 39 63.3085Z" fill="#082947"/>
<path d="M40.4362 38.5C40.4362 37.7227 39.792 37.0905 39 37.0905C38.208 37.0905 37.5638 37.7227 37.5638 38.5C37.5638 39.2773 38.208 39.9096 39 39.9096C39.792 39.9096 40.4362 39.2773 40.4362 38.5Z" fill="#FFCC75"/>
<path d="M39 23.8405C39.4759 23.8405 39.8617 23.4618 39.8617 22.9947V19.6117C39.8617 19.1447 39.4759 18.766 39 18.766C38.5241 18.766 38.1383 19.1447 38.1383 19.6117V22.9947C38.1383 23.4618 38.5241 23.8405 39 23.8405Z" fill="#082947"/>
<path d="M59.1064 38.5C59.1064 38.033 58.7206 37.6543 58.2447 37.6543H54.7979C54.322 37.6543 53.9362 38.033 53.9362 38.5C53.9362 38.9671 54.322 39.3458 54.7979 39.3458H58.2447C58.7206 39.3458 59.1064 38.9671 59.1064 38.5Z" fill="#082947"/>
<path d="M39 53.1595C38.5241 53.1595 38.1383 53.5382 38.1383 54.0053V57.3883C38.1383 57.8553 38.5241 58.234 39 58.234C39.4759 58.234 39.8617 57.8553 39.8617 57.3883V54.0053C39.8617 53.5382 39.4759 53.1595 39 53.1595Z" fill="#082947"/>
<path d="M23.2021 37.6543H19.7553C19.2794 37.6543 18.8936 38.033 18.8936 38.5C18.8936 38.9671 19.2794 39.3458 19.7553 39.3458H23.2021C23.678 39.3458 24.0638 38.9671 24.0638 38.5C24.0638 38.033 23.678 37.6543 23.2021 37.6543Z" fill="#082947"/>
<path d="M50.78 24.5458C50.6185 24.3873 50.3993 24.2981 50.1708 24.2981C49.9422 24.2981 49.723 24.3872 49.5615 24.5458L40.8277 33.1179C40.4913 33.448 40.4912 33.9833 40.8274 34.3136C41.1641 34.6443 41.7098 34.6443 42.0463 34.314L50.1707 26.3399L51.3893 27.5361L41.7578 36.9892C41.319 36.2207 40.5569 35.6532 39.6532 35.4659C39.6171 35.4584 39.5806 35.4521 39.5441 35.4458L32.0943 28.1339C31.7578 27.8037 31.2122 27.8037 30.8758 28.1339L28.4385 30.526C28.102 30.8563 28.102 31.3919 28.4385 31.722L35.8883 39.0339C35.9504 39.3828 36.0717 39.7118 36.2422 40.0106L27.2252 48.8606C26.8887 49.1908 26.8887 49.7264 27.2252 50.0565C27.3935 50.2216 27.614 50.3043 27.8345 50.3043C28.055 50.3043 28.2756 50.2217 28.4438 50.0565L37.4608 41.2066C37.9166 41.4572 38.4414 41.6008 39 41.6008C40.5566 41.6008 41.8529 40.49 42.1117 39.0339L53.2173 28.1339C53.5538 27.8037 53.5538 27.2681 53.2173 26.9379L50.78 24.5458ZM37.4608 35.7931C36.9508 36.0736 36.5278 36.4887 36.2421 36.9892L30.2665 31.1243L31.4852 29.9282L37.4608 35.7931ZM37.5638 38.5C37.5638 37.7227 38.208 37.0904 39 37.0904C39.792 37.0904 40.4362 37.7227 40.4362 38.5C40.4362 39.2772 39.792 39.9095 39 39.9095C38.208 39.9095 37.5638 39.2772 37.5638 38.5Z" fill="#082947"/>
<path d="M39 15.3829C26.0127 15.3829 15.4468 25.7532 15.4468 38.5C15.4468 51.2468 26.0127 61.617 39 61.617C44.62 61.617 50.0657 59.6338 54.3343 56.0325C54.6952 55.728 54.7363 55.1939 54.426 54.8397C54.4223 54.8355 54.418 54.8318 54.4142 54.8277C54.1022 54.4852 53.5674 54.449 53.2107 54.7498C49.2548 58.0874 44.208 59.9255 39 59.9255C26.9631 59.9255 17.1702 50.314 17.1702 38.5C17.1702 26.6859 26.9631 17.0744 39 17.0744C51.0369 17.0744 60.8298 26.6859 60.8298 38.5C60.8298 43.6115 58.957 48.5649 55.5564 52.4476C55.2499 52.7976 55.2869 53.3226 55.6358 53.6289C55.64 53.6326 55.6437 53.6366 55.6481 53.6404C56.0092 53.9448 56.5531 53.9045 56.8633 53.5504C60.5326 49.3608 62.5532 44.0159 62.5532 38.5C62.5532 25.7532 51.9873 15.3829 39 15.3829Z" fill="#082947"/>
</svg>
