<svg width="39" height="37" viewBox="0 0 39 37" xmlns="http://www.w3.org/2000/svg">
<path style="fill: white;" d="M28.362 20.35C29.8239 20.35 31.1104 19.5915 31.7732 18.4445L38.7516 6.438C39.4728 5.217 38.5372 3.7 37.0557 3.7H8.20645L6.37413 0H0V3.7H3.89855L10.9159 17.7415L8.28442 22.2555C6.86145 24.7345 8.73276 27.75 11.6957 27.75H35.087V24.05H11.6957L13.8399 20.35H28.362ZM10.0583 7.4H33.742L28.362 16.65H14.678L10.0583 7.4ZM11.6957 29.6C9.55145 29.6 7.8166 31.265 7.8166 33.3C7.8166 35.335 9.55145 37 11.6957 37C13.8399 37 15.5942 35.335 15.5942 33.3C15.5942 31.265 13.8399 29.6 11.6957 29.6ZM31.1884 29.6C29.0442 29.6 27.3094 31.265 27.3094 33.3C27.3094 35.335 29.0442 37 31.1884 37C33.3326 37 35.087 35.335 35.087 33.3C35.087 31.265 33.3326 29.6 31.1884 29.6Z" fill="#00887A"/>
</svg>
