<svg width="74" height="72" viewBox="0 0 74 72" fill="none" xmlns="http://www.w3.org/2000/svg">
<g clip-path="url(#clip0_58_8134)">
<path d="M40 6C22.98 6 9.16663 19.44 9.16663 36C9.16663 52.56 22.98 66 40 66C57.02 66 70.8333 52.56 70.8333 36C70.8333 19.44 57.02 6 40 6ZM40 60C26.4025 60 15.3333 49.23 15.3333 36C15.3333 22.77 26.4025 12 40 12C53.5975 12 64.6666 22.77 64.6666 36C64.6666 49.23 53.5975 60 40 60ZM54.1525 22.74L33.8333 42.51L25.8475 34.77L21.5 39L33.8333 51L58.5 27L54.1525 22.74Z" fill="#77A6F7"/>
</g>
<defs>
<clipPath id="clip0_58_8134">
<rect width="74" height="72" fill="white"/>
</clipPath>
</defs>
</svg>
