<svg width="55" height="58" viewBox="0 0 55 58" fill="none" xmlns="http://www.w3.org/2000/svg">
<path d="M49.5001 43.9833L29.7918 28.3958V26.1966C33.573 25.0125 36.2084 20.9525 35.3605 16.4091C34.7647 13.2433 32.3814 10.6091 29.3793 9.88414C24.1543 8.62747 19.4793 12.8083 19.4793 18.125H24.0626C24.0626 16.1191 25.598 14.5 27.5001 14.5C29.4022 14.5 30.9376 16.1191 30.9376 18.125C30.9376 20.155 29.3564 21.7983 27.4314 21.75C26.1939 21.7258 25.2084 22.8375 25.2084 24.1425V28.3958L5.50011 43.9833C3.73552 45.385 4.67511 48.3333 6.87511 48.3333H27.5001H48.1251C50.3251 48.3333 51.2647 45.385 49.5001 43.9833ZM13.7501 43.5L27.5001 32.625L41.2501 43.5H13.7501Z" fill="#00887A"/>
</svg>
