<svg width="55" height="57" viewBox="0 0 55 57" fill="none" xmlns="http://www.w3.org/2000/svg">
<path d="M48.125 33.25C48.125 31.9437 47.0938 30.875 45.8333 30.875H41.25V35.625H45.8333C47.0938 35.625 48.125 34.5562 48.125 33.25Z" fill="#00887A"/>
<path d="M45.8333 40.375H41.25V45.125H45.8333C47.0938 45.125 48.125 44.0563 48.125 42.75C48.125 41.4438 47.0938 40.375 45.8333 40.375Z" fill="#00887A"/>
<path d="M27.5001 33.25H22.9167V42.75H27.5001C27.5001 45.3625 29.5626 47.5 32.0834 47.5H38.9584V28.5H32.0834C29.5626 28.5 27.5001 30.6375 27.5001 33.25Z" fill="#00887A"/>
<path d="M11.4583 30.875C11.4583 28.2625 13.5208 26.125 16.0417 26.125H19.4792C23.9021 26.125 27.5 22.3962 27.5 17.8125C27.5 13.2288 23.9021 9.5 19.4792 9.5H11.4583C10.1979 9.5 9.16667 10.5688 9.16667 11.875C9.16667 13.1813 10.1979 14.25 11.4583 14.25H19.4792C21.3813 14.25 22.9167 15.8412 22.9167 17.8125C22.9167 19.7837 21.3813 21.375 19.4792 21.375H16.0417C10.9771 21.375 6.875 25.6262 6.875 30.875C6.875 36.1238 10.9771 40.375 16.0417 40.375H20.625V35.625H16.0417C13.5208 35.625 11.4583 33.4875 11.4583 30.875Z" fill="#00887A"/>
</svg>
