<svg width="56" height="57" viewBox="0 0 56 57" fill="none" xmlns="http://www.w3.org/2000/svg">
<path d="M46.4101 25.5312C46.5734 26.505 46.6668 27.4788 46.6668 28.5C46.6668 38.9738 38.2901 47.5 28.0001 47.5C17.7101 47.5 9.33342 38.9738 9.33342 28.5C9.33342 28.3813 9.35675 28.2625 9.33342 28.1675C15.4001 25.84 20.2767 21.0662 22.7267 14.9862C30.6134 24.8188 41.3234 23.845 43.7034 23.56L41.6268 18.9762C41.3234 19 30.8468 19.8787 24.8734 9.80875C27.2301 9.42875 28.8634 9.4525 30.9167 9.785C36.7967 7.05375 35.4201 7.67125 37.3568 6.7925C34.4867 5.4625 31.3368 4.75 28.0001 4.75C15.1201 4.75 4.66675 15.39 4.66675 28.5C4.66675 41.61 15.1201 52.25 28.0001 52.25C40.8801 52.25 51.3334 41.61 51.3334 28.5C51.3334 25.1038 50.6334 21.8975 49.3734 18.9762L46.4101 25.5312ZM18.8534 11.9463C17.3834 16.435 14.3034 20.1875 10.3134 22.4913C11.7834 18.0025 14.8634 14.25 18.8534 11.9463Z" fill="#00887A"/>
<path d="M35.0002 33.8438C36.611 33.8438 37.9168 32.5146 37.9168 30.875C37.9168 29.2354 36.611 27.9062 35.0002 27.9062C33.3893 27.9062 32.0835 29.2354 32.0835 30.875C32.0835 32.5146 33.3893 33.8438 35.0002 33.8438Z" fill="#00887A"/>
<path d="M21.0002 33.8438C22.611 33.8438 23.9168 32.5146 23.9168 30.875C23.9168 29.2354 22.611 27.9062 21.0002 27.9062C19.3893 27.9062 18.0835 29.2354 18.0835 30.875C18.0835 32.5146 19.3893 33.8438 21.0002 33.8438Z" fill="#00887A"/>
<path d="M53.6668 10.6875L48.0668 8.075L45.5002 2.375L42.9335 8.075L37.3335 10.6875L42.9335 13.3L45.5002 19L48.0668 13.3L53.6668 10.6875Z" fill="#00887A"/>
</svg>
