<svg width="360" height="103" viewBox="0 0 360 103" fill="none" xmlns="http://www.w3.org/2000/svg">
<path d="M1 18.1099C142.107 -22.6374 219.802 18.1099 360 18.1099V103H1V18.1099Z" fill="#D3E3FC"/>
<path d="M0 24.0591C151.071 63.6401 224.541 -1.2905 360 24.0591V105H0V24.0591Z" fill="#77A6F7"/>
<path d="M156.28 92.3721H156.922C156.922 92.832 156.79 93.1777 156.526 93.4092C156.266 93.6377 155.911 93.752 155.463 93.752C155.152 93.752 154.883 93.6802 154.654 93.5366C154.429 93.3931 154.253 93.1938 154.127 92.939C154.004 92.6841 153.942 92.3882 153.942 92.0513V91.5459C153.942 91.209 154.004 90.9131 154.127 90.6582C154.253 90.4033 154.429 90.2041 154.654 90.0605C154.883 89.917 155.152 89.8452 155.463 89.8452C155.911 89.8452 156.267 89.9595 156.531 90.188C156.794 90.4165 156.926 90.7607 156.926 91.2207H156.285C156.285 90.9307 156.214 90.7227 156.074 90.5967C155.936 90.4707 155.732 90.4077 155.463 90.4077C155.27 90.4077 155.107 90.4561 154.975 90.5527C154.843 90.6494 154.744 90.7842 154.676 90.957C154.609 91.127 154.575 91.3218 154.575 91.5415V92.0513C154.575 92.2739 154.609 92.4717 154.676 92.6445C154.744 92.8145 154.843 92.9478 154.975 93.0444C155.107 93.1411 155.27 93.1895 155.463 93.1895C155.732 93.1895 155.936 93.1265 156.074 93.0005C156.211 92.8745 156.28 92.665 156.28 92.3721ZM152.91 91.7964C152.91 92.186 152.977 92.5493 153.112 92.8862C153.247 93.2231 153.434 93.5176 153.674 93.7695C153.915 94.0215 154.193 94.2178 154.509 94.3584C154.826 94.499 155.164 94.5693 155.524 94.5693C155.885 94.5693 156.222 94.499 156.535 94.3584C156.852 94.2178 157.128 94.0215 157.366 93.7695C157.606 93.5176 157.793 93.2231 157.928 92.8862C158.063 92.5493 158.13 92.186 158.13 91.7964C158.13 91.4038 158.063 91.0405 157.928 90.7065C157.793 90.3726 157.606 90.0811 157.366 89.832C157.128 89.5801 156.852 89.3853 156.535 89.2476C156.222 89.1069 155.885 89.0366 155.524 89.0366C155.164 89.0366 154.826 89.1069 154.509 89.2476C154.193 89.3853 153.915 89.5801 153.674 89.832C153.434 90.0811 153.247 90.3726 153.112 90.7065C152.977 91.0405 152.91 91.4038 152.91 91.7964ZM152.404 91.7964C152.404 91.3306 152.485 90.8984 152.646 90.5C152.807 90.1016 153.031 89.7544 153.318 89.4585C153.605 89.1597 153.937 88.9282 154.312 88.7642C154.689 88.5972 155.094 88.5137 155.524 88.5137C155.955 88.5137 156.358 88.5972 156.733 88.7642C157.111 88.9282 157.442 89.1597 157.726 89.4585C158.013 89.7544 158.237 90.1016 158.398 90.5C158.56 90.8984 158.64 91.3306 158.64 91.7964C158.64 92.2622 158.56 92.6943 158.398 93.0928C158.237 93.4912 158.013 93.8413 157.726 94.1431C157.442 94.4419 157.111 94.6748 156.733 94.8418C156.358 95.0088 155.955 95.0923 155.524 95.0923C155.094 95.0923 154.689 95.0088 154.312 94.8418C153.937 94.6748 153.605 94.4419 153.318 94.1431C153.031 93.8413 152.807 93.4912 152.646 93.0928C152.485 92.6943 152.404 92.2622 152.404 91.7964ZM166.032 94.332V95H161.844V94.4155L163.94 92.082C164.198 91.7949 164.397 91.5518 164.538 91.3525C164.681 91.1504 164.781 90.9702 164.836 90.812C164.895 90.6509 164.924 90.4868 164.924 90.3198C164.924 90.1089 164.88 89.9185 164.792 89.7485C164.708 89.5757 164.582 89.438 164.415 89.3354C164.248 89.2329 164.045 89.1816 163.808 89.1816C163.524 89.1816 163.287 89.2373 163.096 89.3486C162.909 89.457 162.768 89.6094 162.674 89.8057C162.581 90.002 162.534 90.2275 162.534 90.4824H161.721C161.721 90.1221 161.8 89.7925 161.958 89.4937C162.116 89.1948 162.351 88.9575 162.661 88.7817C162.972 88.603 163.354 88.5137 163.808 88.5137C164.212 88.5137 164.558 88.5854 164.845 88.729C165.132 88.8696 165.352 89.0688 165.504 89.3267C165.66 89.5815 165.737 89.8804 165.737 90.2231C165.737 90.4106 165.705 90.6011 165.641 90.7944C165.579 90.9849 165.493 91.1753 165.381 91.3657C165.273 91.5562 165.146 91.7437 164.999 91.9282C164.855 92.1128 164.702 92.2944 164.538 92.4731L162.824 94.332H166.032ZM170.918 91.291V92.2666C170.918 92.791 170.872 93.2334 170.778 93.5938C170.684 93.9541 170.549 94.2441 170.374 94.4639C170.198 94.6836 169.985 94.8433 169.736 94.9429C169.49 95.0396 169.212 95.0879 168.901 95.0879C168.655 95.0879 168.428 95.0571 168.22 94.9956C168.012 94.9341 167.825 94.8359 167.658 94.7012C167.494 94.5635 167.353 94.3848 167.236 94.165C167.119 93.9453 167.029 93.6787 166.968 93.3652C166.906 93.0518 166.875 92.6855 166.875 92.2666V91.291C166.875 90.7666 166.922 90.3271 167.016 89.9727C167.113 89.6182 167.249 89.334 167.425 89.1201C167.601 88.9033 167.812 88.748 168.058 88.6543C168.307 88.5605 168.585 88.5137 168.893 88.5137C169.142 88.5137 169.37 88.5444 169.578 88.606C169.789 88.6646 169.977 88.7598 170.141 88.8916C170.305 89.0205 170.444 89.1934 170.558 89.4102C170.675 89.624 170.765 89.8862 170.826 90.1968C170.888 90.5073 170.918 90.8721 170.918 91.291ZM170.101 92.3984V91.1548C170.101 90.8677 170.083 90.6157 170.048 90.3989C170.016 90.1792 169.968 89.9917 169.903 89.8364C169.839 89.6812 169.757 89.5552 169.657 89.4585C169.561 89.3618 169.448 89.2915 169.319 89.2476C169.193 89.2007 169.051 89.1772 168.893 89.1772C168.699 89.1772 168.528 89.2139 168.378 89.2871C168.229 89.3574 168.103 89.4702 168 89.6255C167.901 89.7808 167.825 89.9844 167.772 90.2363C167.719 90.4883 167.693 90.7944 167.693 91.1548V92.3984C167.693 92.6855 167.709 92.939 167.741 93.1587C167.776 93.3784 167.828 93.5688 167.895 93.73C167.962 93.8882 168.044 94.0186 168.141 94.1211C168.238 94.2236 168.349 94.2998 168.475 94.3496C168.604 94.3965 168.746 94.4199 168.901 94.4199C169.101 94.4199 169.275 94.3818 169.424 94.3057C169.574 94.2295 169.698 94.1108 169.798 93.9497C169.9 93.7856 169.977 93.5762 170.026 93.3213C170.076 93.0635 170.101 92.7559 170.101 92.3984ZM176.157 94.332V95H171.969V94.4155L174.065 92.082C174.323 91.7949 174.522 91.5518 174.663 91.3525C174.806 91.1504 174.906 90.9702 174.961 90.812C175.02 90.6509 175.049 90.4868 175.049 90.3198C175.049 90.1089 175.005 89.9185 174.917 89.7485C174.833 89.5757 174.707 89.438 174.54 89.3354C174.373 89.2329 174.17 89.1816 173.933 89.1816C173.649 89.1816 173.412 89.2373 173.221 89.3486C173.034 89.457 172.893 89.6094 172.799 89.8057C172.706 90.002 172.659 90.2275 172.659 90.4824H171.846C171.846 90.1221 171.925 89.7925 172.083 89.4937C172.241 89.1948 172.476 88.9575 172.786 88.7817C173.097 88.603 173.479 88.5137 173.933 88.5137C174.337 88.5137 174.683 88.5854 174.97 88.729C175.257 88.8696 175.477 89.0688 175.629 89.3267C175.785 89.5815 175.862 89.8804 175.862 90.2231C175.862 90.4106 175.83 90.6011 175.766 90.7944C175.704 90.9849 175.618 91.1753 175.506 91.3657C175.398 91.5562 175.271 91.7437 175.124 91.9282C174.98 92.1128 174.827 92.2944 174.663 92.4731L172.949 94.332H176.157ZM181.219 94.332V95H177.031V94.4155L179.127 92.082C179.385 91.7949 179.584 91.5518 179.725 91.3525C179.869 91.1504 179.968 90.9702 180.024 90.812C180.083 90.6509 180.112 90.4868 180.112 90.3198C180.112 90.1089 180.068 89.9185 179.98 89.7485C179.895 89.5757 179.769 89.438 179.602 89.3354C179.435 89.2329 179.233 89.1816 178.996 89.1816C178.711 89.1816 178.474 89.2373 178.284 89.3486C178.096 89.457 177.956 89.6094 177.862 89.8057C177.768 90.002 177.721 90.2275 177.721 90.4824H176.908C176.908 90.1221 176.987 89.7925 177.146 89.4937C177.304 89.1948 177.538 88.9575 177.849 88.7817C178.159 88.603 178.542 88.5137 178.996 88.5137C179.4 88.5137 179.746 88.5854 180.033 88.729C180.32 88.8696 180.54 89.0688 180.692 89.3267C180.847 89.5815 180.925 89.8804 180.925 90.2231C180.925 90.4106 180.893 90.6011 180.828 90.7944C180.767 90.9849 180.68 91.1753 180.569 91.3657C180.46 91.5562 180.333 91.7437 180.187 91.9282C180.043 92.1128 179.889 92.2944 179.725 92.4731L178.011 94.332H181.219ZM189.261 91.814V94.1562C189.182 94.2734 189.056 94.4053 188.883 94.5518C188.71 94.6953 188.472 94.8213 188.167 94.9297C187.865 95.0352 187.476 95.0879 186.998 95.0879C186.608 95.0879 186.25 95.0205 185.921 94.8857C185.596 94.748 185.313 94.5488 185.073 94.2881C184.836 94.0244 184.651 93.7051 184.52 93.3301C184.391 92.9521 184.326 92.5244 184.326 92.0469V91.5503C184.326 91.0728 184.382 90.6465 184.493 90.2715C184.607 89.8965 184.774 89.5786 184.994 89.3179C185.214 89.0542 185.483 88.855 185.803 88.7202C186.122 88.5825 186.488 88.5137 186.901 88.5137C187.391 88.5137 187.799 88.5986 188.127 88.7686C188.458 88.9355 188.716 89.167 188.901 89.4629C189.088 89.7588 189.208 90.0957 189.261 90.4736H188.413C188.375 90.2422 188.299 90.0312 188.185 89.8408C188.073 89.6504 187.914 89.498 187.706 89.3838C187.498 89.2666 187.229 89.208 186.901 89.208C186.605 89.208 186.349 89.2622 186.132 89.3706C185.916 89.479 185.737 89.6343 185.596 89.8364C185.456 90.0386 185.35 90.2832 185.28 90.5703C185.212 90.8574 185.179 91.1812 185.179 91.5415V92.0469C185.179 92.416 185.221 92.7456 185.306 93.0356C185.394 93.3257 185.519 93.5732 185.68 93.7783C185.841 93.9805 186.033 94.1343 186.255 94.2397C186.481 94.3452 186.73 94.3979 187.002 94.3979C187.304 94.3979 187.549 94.373 187.736 94.3232C187.924 94.2705 188.07 94.209 188.176 94.1387C188.281 94.0654 188.362 93.9966 188.417 93.9321V92.4995H186.937V91.814H189.261ZM193.348 94.187V91.7393C193.348 91.5518 193.31 91.3892 193.234 91.2515C193.161 91.1108 193.049 91.0024 192.9 90.9263C192.75 90.8501 192.566 90.812 192.346 90.812C192.141 90.812 191.961 90.8472 191.806 90.9175C191.653 90.9878 191.533 91.0801 191.445 91.1943C191.36 91.3086 191.318 91.4316 191.318 91.5635H190.505C190.505 91.3936 190.549 91.2251 190.637 91.0581C190.725 90.8911 190.851 90.7402 191.015 90.6055C191.182 90.4678 191.381 90.3594 191.612 90.2803C191.847 90.1982 192.107 90.1572 192.395 90.1572C192.74 90.1572 193.045 90.2158 193.309 90.333C193.575 90.4502 193.783 90.6274 193.933 90.8647C194.085 91.0991 194.161 91.3936 194.161 91.748V93.9629C194.161 94.1211 194.174 94.2896 194.201 94.4683C194.23 94.647 194.272 94.8008 194.328 94.9297V95H193.48C193.439 94.9062 193.407 94.7817 193.383 94.6265C193.36 94.4683 193.348 94.3218 193.348 94.187ZM193.489 92.1172L193.498 92.6885H192.676C192.444 92.6885 192.238 92.7075 192.056 92.7456C191.875 92.7808 191.722 92.835 191.599 92.9082C191.476 92.9814 191.382 93.0737 191.318 93.1851C191.253 93.2935 191.221 93.4209 191.221 93.5674C191.221 93.7168 191.255 93.853 191.322 93.9761C191.39 94.0991 191.491 94.1973 191.625 94.2705C191.763 94.3408 191.932 94.376 192.131 94.376C192.38 94.376 192.6 94.3232 192.79 94.2178C192.98 94.1123 193.131 93.9834 193.243 93.8311C193.357 93.6787 193.418 93.5308 193.427 93.3872L193.774 93.7783C193.754 93.9014 193.698 94.0376 193.607 94.187C193.517 94.3364 193.395 94.48 193.243 94.6177C193.093 94.7524 192.915 94.8652 192.707 94.9561C192.501 95.0439 192.27 95.0879 192.012 95.0879C191.69 95.0879 191.407 95.0249 191.164 94.8989C190.924 94.7729 190.736 94.6045 190.602 94.3936C190.47 94.1797 190.404 93.9409 190.404 93.6772C190.404 93.4224 190.454 93.1982 190.553 93.0049C190.653 92.8086 190.796 92.646 190.984 92.5171C191.171 92.3853 191.397 92.2856 191.661 92.2183C191.924 92.1509 192.219 92.1172 192.544 92.1172H193.489ZM196.323 88.25V95H195.506V88.25H196.323ZM200.432 94.187V91.7393C200.432 91.5518 200.394 91.3892 200.318 91.2515C200.245 91.1108 200.133 91.0024 199.984 90.9263C199.834 90.8501 199.65 90.812 199.43 90.812C199.225 90.812 199.045 90.8472 198.89 90.9175C198.737 90.9878 198.617 91.0801 198.529 91.1943C198.444 91.3086 198.402 91.4316 198.402 91.5635H197.589C197.589 91.3936 197.633 91.2251 197.721 91.0581C197.809 90.8911 197.935 90.7402 198.099 90.6055C198.266 90.4678 198.465 90.3594 198.696 90.2803C198.931 90.1982 199.191 90.1572 199.479 90.1572C199.824 90.1572 200.129 90.2158 200.393 90.333C200.659 90.4502 200.867 90.6274 201.017 90.8647C201.169 91.0991 201.245 91.3936 201.245 91.748V93.9629C201.245 94.1211 201.258 94.2896 201.285 94.4683C201.314 94.647 201.356 94.8008 201.412 94.9297V95H200.564C200.523 94.9062 200.491 94.7817 200.467 94.6265C200.444 94.4683 200.432 94.3218 200.432 94.187ZM200.573 92.1172L200.582 92.6885H199.76C199.528 92.6885 199.322 92.7075 199.14 92.7456C198.958 92.7808 198.806 92.835 198.683 92.9082C198.56 92.9814 198.466 93.0737 198.402 93.1851C198.337 93.2935 198.305 93.4209 198.305 93.5674C198.305 93.7168 198.339 93.853 198.406 93.9761C198.474 94.0991 198.575 94.1973 198.709 94.2705C198.847 94.3408 199.016 94.376 199.215 94.376C199.464 94.376 199.684 94.3232 199.874 94.2178C200.064 94.1123 200.215 93.9834 200.327 93.8311C200.441 93.6787 200.502 93.5308 200.511 93.3872L200.858 93.7783C200.838 93.9014 200.782 94.0376 200.691 94.187C200.601 94.3364 200.479 94.48 200.327 94.6177C200.177 94.7524 199.999 94.8652 199.791 94.9561C199.585 95.0439 199.354 95.0879 199.096 95.0879C198.774 95.0879 198.491 95.0249 198.248 94.8989C198.008 94.7729 197.82 94.6045 197.686 94.3936C197.554 94.1797 197.488 93.9409 197.488 93.6772C197.488 93.4224 197.538 93.1982 197.637 93.0049C197.737 92.8086 197.88 92.646 198.068 92.5171C198.255 92.3853 198.481 92.2856 198.745 92.2183C199.008 92.1509 199.303 92.1172 199.628 92.1172H200.573ZM202.537 94.5693C202.537 94.4316 202.58 94.3159 202.665 94.2222C202.752 94.1255 202.878 94.0771 203.042 94.0771C203.207 94.0771 203.331 94.1255 203.416 94.2222C203.504 94.3159 203.548 94.4316 203.548 94.5693C203.548 94.7041 203.504 94.8184 203.416 94.9121C203.331 95.0059 203.207 95.0527 203.042 95.0527C202.878 95.0527 202.752 95.0059 202.665 94.9121C202.58 94.8184 202.537 94.7041 202.537 94.5693Z" fill="white"/>
<path d="M176.5 84C188.926 84 199 74.1502 199 62C199 49.8497 188.926 40 176.5 40C164.074 40 154 49.8497 154 62C154 74.1502 164.074 84 176.5 84Z" fill="white"/>
<path d="M176.5 79.9144C186.765 79.9144 195.087 71.8938 195.087 62C195.087 52.1062 186.765 44.0857 176.5 44.0857C166.235 44.0857 157.913 52.1062 157.913 62C157.913 71.8938 166.235 79.9144 176.5 79.9144Z" fill="white" stroke="#A4C3F0" stroke-width="2"/>
<path d="M169.828 74.76C169.404 74.76 169.065 74.672 168.811 74.496C168.563 74.3138 168.371 74.0843 168.234 73.8077C168.103 73.5249 168.018 73.2138 167.979 72.8744C167.94 72.5348 167.921 72.2049 167.921 71.8843C167.921 71.4883 167.943 71.1049 167.989 70.7341C168.041 70.3569 168.146 70.0237 168.302 69.7345C168.465 69.4391 168.697 69.2034 168.997 69.0274C169.297 68.8514 169.698 68.7634 170.2 68.7634C170.389 68.7634 170.568 68.7886 170.738 68.8388C170.914 68.8828 171.071 68.9551 171.208 69.0557C171.345 69.1501 171.452 69.2726 171.53 69.4234C171.615 69.568 171.658 69.7378 171.658 69.9326C171.658 70.0332 171.631 70.1148 171.579 70.1778C171.534 70.2406 171.475 70.2908 171.403 70.3286C171.338 70.3664 171.266 70.3914 171.188 70.404C171.11 70.4166 171.041 70.4228 170.983 70.4228C170.852 70.4228 170.771 70.3757 170.738 70.2815C170.712 70.1871 170.689 70.0865 170.67 69.9797C170.65 69.8665 170.608 69.7628 170.542 69.6686C170.477 69.5744 170.347 69.5271 170.151 69.5271C169.949 69.5271 169.789 69.6246 169.672 69.8194C169.561 70.008 169.476 70.2344 169.417 70.4984C169.359 70.756 169.323 71.0169 169.31 71.2809C169.297 71.5385 169.29 71.7366 169.29 71.8748C169.29 71.9314 169.293 72.0194 169.3 72.1388C169.306 72.2584 169.316 72.3904 169.329 72.5348C169.349 72.6794 169.372 72.8304 169.398 72.9874C169.424 73.1384 169.456 73.2766 169.496 73.4024C169.541 73.528 169.593 73.6317 169.652 73.7135C169.717 73.7951 169.789 73.836 169.867 73.836C170.004 73.836 170.118 73.7825 170.21 73.6757C170.301 73.5625 170.373 73.4338 170.425 73.2892C170.477 73.1384 170.513 72.9874 170.533 72.8366C170.559 72.6794 170.572 72.5569 170.572 72.4689C170.572 72.3997 170.565 72.3305 170.552 72.2615C170.539 72.1923 170.526 72.1231 170.513 72.0541C170.18 72.0541 169.939 72.0225 169.789 71.9597C169.646 71.8969 169.574 71.7775 169.574 71.6015C169.574 71.5009 169.613 71.4224 169.691 71.3658C169.77 71.3092 169.861 71.2683 169.965 71.2431C170.07 71.2117 170.177 71.1929 170.288 71.1865C170.399 71.1741 170.487 71.1677 170.552 71.1677C170.806 71.1677 171.012 71.1929 171.168 71.2431C171.331 71.2935 171.459 71.372 171.55 71.4788C171.641 71.5794 171.703 71.7114 171.736 71.8748C171.768 72.0384 171.785 72.2332 171.785 72.4594C171.785 72.7674 171.749 73.0597 171.677 73.3363C171.605 73.6129 171.491 73.8581 171.335 74.0717C171.178 74.2791 170.976 74.4458 170.728 74.5714C170.48 74.6972 170.18 74.76 169.828 74.76ZM176.047 74.7679C175.819 74.7679 175.655 74.6997 175.558 74.5636C175.46 74.4275 175.405 74.1891 175.395 73.8486C175.297 73.9482 175.196 74.0529 175.093 74.1628C174.99 74.2676 174.876 74.3647 174.751 74.4537C174.626 74.5425 174.49 74.6161 174.343 74.6737C174.202 74.7311 174.041 74.76 173.862 74.76C173.634 74.76 173.427 74.7105 173.242 74.6107C173.063 74.5111 172.908 74.3671 172.778 74.1785C172.653 73.9901 172.555 73.7623 172.484 73.495C172.419 73.2279 172.386 72.9267 172.386 72.5914C172.386 72.1934 172.433 71.8348 172.525 71.515C172.623 71.1902 172.759 70.9153 172.933 70.6901C173.112 70.4596 173.327 70.2815 173.577 70.1557C173.827 70.0301 174.107 69.9671 174.416 69.9671C175.025 69.9671 175.454 70.2107 175.704 70.698C175.715 70.4988 175.778 70.3338 175.892 70.2028C176.011 70.0719 176.155 70.0066 176.324 70.0066C176.482 70.0066 176.596 70.0745 176.666 70.2107C176.742 70.347 176.78 70.5695 176.78 70.8785C176.78 71.062 176.77 71.2609 176.748 71.4757C176.726 71.6854 176.702 71.9104 176.674 72.1514C176.653 72.3925 176.631 72.6491 176.609 72.9215C176.588 73.194 176.577 73.4847 176.577 73.7937C176.577 73.8462 176.579 73.9011 176.585 73.9585C176.59 74.0058 176.596 74.0608 176.601 74.1236C176.612 74.1812 176.626 74.2389 176.642 74.2965C176.653 74.3382 176.664 74.375 176.674 74.4066C176.685 74.4326 176.691 74.4589 176.691 74.4851C176.691 74.5582 176.626 74.6239 176.495 74.6815C176.37 74.739 176.221 74.7679 176.047 74.7679ZM174.18 73.9114C174.31 73.9114 174.444 73.854 174.579 73.7385C174.721 73.6183 174.848 73.469 174.963 73.2907C175.082 73.1075 175.177 72.9058 175.248 72.6858C175.324 72.4658 175.362 72.251 175.362 72.0415C175.362 71.8686 175.335 71.6982 175.28 71.5307C175.232 71.3631 175.164 71.2138 175.077 71.0828C174.99 70.9519 174.892 70.8471 174.783 70.7686C174.68 70.6848 174.571 70.6428 174.457 70.6428C174.327 70.6428 174.202 70.6953 174.082 70.8C173.968 70.8996 173.865 71.0357 173.772 71.2086C173.685 71.3815 173.615 71.5832 173.56 71.8137C173.511 72.0389 173.487 72.2748 173.487 72.5208C173.487 72.7197 173.503 72.9058 173.536 73.0785C173.574 73.2461 173.623 73.3929 173.683 73.5185C173.742 73.639 173.816 73.7361 173.903 73.8094C173.99 73.8776 174.082 73.9114 174.18 73.9114ZM177.554 71.6674C177.554 71.5984 177.554 71.4914 177.554 71.3468C177.554 71.196 177.554 71.0295 177.554 70.8471C177.561 70.6649 177.567 70.4763 177.574 70.2815C177.58 70.0803 177.59 69.8948 177.603 69.7252C177.616 69.5492 177.632 69.3984 177.652 69.2726C177.671 69.1406 177.697 69.0526 177.73 69.0086C177.782 68.9394 177.844 68.8828 177.916 68.8388C177.988 68.7948 178.092 68.7729 178.229 68.7729C178.301 68.7729 178.372 68.7791 178.444 68.7917C178.516 68.8043 178.584 68.8264 178.65 68.8578C178.715 68.8892 178.767 68.9301 178.806 68.9803C178.845 69.0305 178.865 69.0904 178.865 69.1594C178.865 69.5932 178.858 70.0206 178.845 70.4418C178.839 70.8566 178.836 71.2904 178.836 71.7428C178.836 71.8184 178.832 71.9283 178.826 72.0729C178.826 72.2111 178.826 72.3652 178.826 72.5348C178.832 72.6984 178.839 72.868 178.845 73.044C178.858 73.22 178.878 73.3803 178.904 73.5249C178.937 73.6631 178.979 73.7794 179.031 73.8738C179.083 73.9618 179.149 74.0025 179.227 73.9963C179.396 73.9837 179.53 74.0089 179.628 74.0717C179.732 74.1345 179.785 74.2603 179.785 74.4489C179.785 74.5431 179.765 74.6185 179.726 74.6751C179.687 74.7317 179.638 74.7726 179.579 74.7978C179.527 74.8292 179.465 74.848 179.393 74.8544C179.328 74.8668 179.266 74.8732 179.207 74.8732C178.966 74.8732 178.757 74.8323 178.581 74.7505C178.405 74.6751 178.255 74.5683 178.131 74.4301C178.007 74.2917 177.906 74.1283 177.828 73.9397C177.75 73.7511 177.691 73.5437 177.652 73.3175C177.606 73.0409 177.577 72.7674 177.564 72.4972C177.557 72.2206 177.554 71.944 177.554 71.6674ZM183.909 74.7679C183.681 74.7679 183.518 74.6997 183.42 74.5636C183.322 74.4275 183.268 74.1891 183.257 73.8486C183.159 73.9482 183.059 74.0529 182.955 74.1628C182.852 74.2676 182.738 74.3647 182.613 74.4537C182.488 74.5425 182.352 74.6161 182.205 74.6737C182.064 74.7311 181.904 74.76 181.724 74.76C181.496 74.76 181.29 74.7105 181.105 74.6107C180.925 74.5111 180.771 74.3671 180.64 74.1785C180.515 73.9901 180.417 73.7623 180.347 73.495C180.281 73.2279 180.249 72.9267 180.249 72.5914C180.249 72.1934 180.295 71.8348 180.387 71.515C180.485 71.1902 180.621 70.9153 180.795 70.6901C180.974 70.4596 181.189 70.2815 181.439 70.1557C181.689 70.0301 181.969 69.9671 182.279 69.9671C182.887 69.9671 183.317 70.2107 183.567 70.698C183.578 70.4988 183.64 70.3338 183.754 70.2028C183.874 70.0719 184.018 70.0066 184.186 70.0066C184.344 70.0066 184.458 70.0745 184.529 70.2107C184.605 70.347 184.643 70.5695 184.643 70.8785C184.643 71.062 184.632 71.2609 184.61 71.4757C184.588 71.6854 184.564 71.9104 184.537 72.1514C184.515 72.3925 184.493 72.6491 184.472 72.9215C184.45 73.194 184.439 73.4847 184.439 73.7937C184.439 73.8462 184.442 73.9011 184.447 73.9585C184.453 74.0058 184.458 74.0608 184.463 74.1236C184.474 74.1812 184.488 74.2389 184.504 74.2965C184.515 74.3382 184.526 74.375 184.537 74.4066C184.548 74.4326 184.553 74.4589 184.553 74.4851C184.553 74.5582 184.488 74.6239 184.357 74.6815C184.233 74.739 184.083 74.7679 183.909 74.7679ZM182.042 73.9114C182.173 73.9114 182.306 73.854 182.442 73.7385C182.583 73.6183 182.711 73.469 182.825 73.2907C182.945 73.1075 183.039 72.9058 183.11 72.6858C183.186 72.4658 183.224 72.251 183.224 72.0415C183.224 71.8686 183.197 71.6982 183.143 71.5307C183.094 71.3631 183.026 71.2138 182.939 71.0828C182.852 70.9519 182.754 70.8471 182.646 70.7686C182.542 70.6848 182.434 70.6428 182.319 70.6428C182.189 70.6428 182.064 70.6953 181.945 70.8C181.83 70.8996 181.727 71.0357 181.635 71.2086C181.548 71.3815 181.477 71.5832 181.423 71.8137C181.374 72.0389 181.349 72.2748 181.349 72.5208C181.349 72.7197 181.366 72.9058 181.398 73.0785C181.436 73.2461 181.485 73.3929 181.545 73.5185C181.605 73.639 181.678 73.7361 181.765 73.8094C181.852 73.8776 181.945 73.9114 182.042 73.9114Z" fill="#77A6F7"/>
<path d="M179.497 60.6172H177.463V62.9639L176.446 62.2934L175.429 62.9639V60.6172H173.394C173.021 60.6172 172.716 60.9188 172.716 61.2878V66.6514C172.716 67.0202 173.021 67.322 173.394 67.322H179.497C179.87 67.322 180.175 67.0202 180.175 66.6514V61.2878C180.175 60.9188 179.87 60.6172 179.497 60.6172Z" fill="#FFCCBC"/>
<path d="M173.394 66.6514V61.2878C173.394 60.9188 173.699 60.6172 174.072 60.6172H173.394C173.021 60.6172 172.716 60.9188 172.716 61.2878V66.6514C172.716 67.0202 173.021 67.322 173.394 67.322H174.072C173.699 67.322 173.394 67.0202 173.394 66.6514Z" fill="white"/>
<path d="M179.497 66.6514V61.2878C179.497 60.9188 179.191 60.6172 178.819 60.6172H179.497C179.87 60.6172 180.175 60.9188 180.175 61.2878V66.6514C180.175 67.0202 179.87 67.322 179.497 67.322H178.819C179.191 67.322 179.497 67.0202 179.497 66.6514Z" fill="#D29C8B"/>
<path d="M177.462 62.9639L176.446 62.2934L175.428 62.9639V60.282H177.462V62.9639Z" fill="#00887A"/>
<path d="M169.665 54.9181C169.665 55.6556 170.275 56.259 171.021 56.259C171.767 56.259 172.377 55.6556 172.377 54.9181C172.377 52.2697 173.971 47.8781 176.445 47.8781C172.513 47.8781 169.665 51.0294 169.665 54.9181Z" fill="#77A6F7"/>
<path d="M170.682 54.9181C170.682 51.8004 172.513 49.1855 175.225 48.2469C175.598 48.0122 176.005 47.8781 176.445 47.8781C172.513 47.8781 169.665 51.0293 169.665 54.9181C169.665 55.6556 170.275 56.259 171.021 56.259C171.191 56.259 171.36 56.2255 171.53 56.1585C171.021 55.9574 170.682 55.488 170.682 54.9181Z" fill="#D3E3FC"/>
<path d="M172.377 54.9181C172.377 55.6556 172.987 56.259 173.733 56.259C174.479 56.259 175.089 55.6556 175.089 54.9181C175.089 52.4373 175.598 47.8781 176.445 47.8781C173.971 47.8781 172.377 52.2697 172.377 54.9181Z" fill="#77A6F7"/>
<path d="M176.446 47.8781C175.598 47.8781 175.089 52.4373 175.089 54.9181C175.089 55.6556 175.7 56.259 176.446 56.259C177.191 56.259 177.802 55.6556 177.802 54.9181C177.802 52.4374 177.293 47.8781 176.446 47.8781Z" fill="#77A6F7"/>
<path d="M176.446 47.8781C177.293 47.8781 177.802 52.4373 177.802 54.9181C177.802 55.6556 178.412 56.259 179.157 56.259C179.903 56.259 180.514 55.6556 180.514 54.9181C180.514 52.2697 178.92 47.8781 176.446 47.8781Z" fill="#77A6F7"/>
<path d="M176.446 47.8781C178.92 47.8781 180.514 52.2697 180.514 54.9181C180.514 55.6556 181.124 56.259 181.87 56.259C182.616 56.259 183.226 55.6556 183.226 54.9181C183.226 51.0294 180.378 47.8781 176.446 47.8781Z" fill="#77A6F7"/>
<path d="M176.446 47.8781C176.886 47.8781 177.293 48.0122 177.666 48.2469C180.378 49.1855 182.209 51.8004 182.209 54.9181C182.209 55.488 181.87 55.9573 181.361 56.1585C181.531 56.2255 181.7 56.259 181.87 56.259C182.616 56.259 183.226 55.6556 183.226 54.9181C183.226 51.0294 180.378 47.8781 176.446 47.8781Z" fill="#D3E3FC"/>
<path d="M177.462 63.2991C177.395 63.2991 177.327 63.2655 177.259 63.232L176.446 62.6957L175.632 63.232C175.53 63.2991 175.395 63.2991 175.293 63.232C175.157 63.1985 175.089 63.0979 175.089 62.9639V60.2819C175.089 60.0807 175.225 59.9467 175.428 59.9467H177.462C177.666 59.9467 177.802 60.0807 177.802 60.2819V62.9639C177.802 63.0979 177.734 63.1985 177.632 63.2655C177.564 63.2991 177.53 63.2991 177.462 63.2991ZM176.446 61.9581C176.513 61.9581 176.581 61.9915 176.649 62.0252L177.124 62.3603V60.6172H175.768V62.3268L176.242 61.9917C176.31 61.9917 176.378 61.9581 176.446 61.9581Z" fill="black"/>
<path d="M179.497 67.6572H173.394C172.818 67.6572 172.377 67.2214 172.377 66.6514V61.2878C172.377 60.7176 172.818 60.282 173.394 60.282H175.428C175.632 60.282 175.767 60.416 175.767 60.6172V62.3268L176.242 61.9918C176.344 61.9246 176.513 61.9246 176.615 61.9918L177.09 62.3268V60.6172C177.09 60.416 177.225 60.282 177.429 60.282H179.463C180.039 60.282 180.48 60.7176 180.48 61.2878V66.6514C180.514 67.2214 180.073 67.6572 179.497 67.6572ZM173.394 60.9523C173.191 60.9523 173.055 61.0866 173.055 61.2876V66.6514C173.055 66.8526 173.191 66.9867 173.394 66.9867H179.497C179.7 66.9867 179.836 66.8526 179.836 66.6514V61.2878C179.836 61.0866 179.7 60.9525 179.497 60.9525H177.802V62.9639C177.802 63.098 177.734 63.1986 177.632 63.2655C177.53 63.3326 177.395 63.3326 177.293 63.2655L176.446 62.6958L175.632 63.232C175.53 63.2992 175.395 63.2992 175.293 63.232C175.157 63.1986 175.089 63.098 175.089 62.9639V60.9523H173.394Z" fill="black"/>
<path d="M171.021 56.5943C170.072 56.5943 169.326 55.8568 169.326 54.9181C169.326 50.7276 172.377 47.5428 176.446 47.5428C176.649 47.5428 176.785 47.6769 176.785 47.8781C176.785 48.0792 176.649 48.2133 176.446 48.2133C174.31 48.2133 172.716 52.2697 172.716 54.9181C172.716 55.8568 171.971 56.5943 171.021 56.5943ZM174.344 48.5485C171.767 49.4202 170.004 51.8674 170.004 54.9181C170.004 55.488 170.445 55.9238 171.021 55.9238C171.598 55.9238 172.038 55.488 172.038 54.9181C172.038 52.8396 172.92 50.0236 174.344 48.5485Z" fill="black"/>
<path d="M173.733 56.5943C172.784 56.5943 172.038 55.8568 172.038 54.9181C172.038 51.968 173.801 47.5428 176.446 47.5428C176.649 47.5428 176.785 47.6769 176.785 47.8781C176.785 48.0457 176.649 48.2133 176.479 48.2133C175.971 48.5485 175.429 52.0685 175.429 54.9181C175.429 55.8568 174.683 56.5943 173.733 56.5943ZM175.598 48.4145C173.903 49.2861 172.716 52.6385 172.716 54.9181C172.716 55.488 173.157 55.9238 173.733 55.9238C174.31 55.9238 174.751 55.488 174.751 54.9181C174.751 54.851 174.818 50.3588 175.598 48.4145Z" fill="black"/>
<path d="M176.446 56.5943C175.496 56.5943 174.75 55.8568 174.75 54.9181C174.75 54.851 174.852 47.5428 176.446 47.5428C178.039 47.5428 178.141 54.851 178.141 54.9181C178.141 55.8568 177.395 56.5943 176.446 56.5943ZM176.446 48.2468C175.971 48.6826 175.429 52.1356 175.429 54.9181C175.429 55.488 175.869 55.9238 176.446 55.9238C177.022 55.9238 177.463 55.488 177.463 54.9181C177.463 52.1356 176.92 48.6491 176.446 48.2468Z" fill="black"/>
<path d="M179.158 56.5943C178.208 56.5943 177.462 55.8568 177.462 54.9181C177.462 52.0685 176.92 48.5485 176.412 48.2133C176.242 48.2133 176.106 48.0457 176.106 47.8781C176.106 47.6769 176.242 47.5428 176.446 47.5428C179.09 47.5428 180.853 51.968 180.853 54.9181C180.853 55.8568 180.107 56.5943 179.158 56.5943ZM177.293 48.4145C178.073 50.3588 178.141 54.851 178.141 54.9181C178.141 55.488 178.581 55.9238 179.157 55.9238C179.734 55.9238 180.175 55.488 180.175 54.9181C180.175 52.6385 178.988 49.2861 177.293 48.4145Z" fill="black"/>
<path d="M181.87 56.5943C180.921 56.5943 180.175 55.8568 180.175 54.9181C180.175 52.2697 178.581 48.2133 176.445 48.2133C176.242 48.2133 176.106 48.0792 176.106 47.8781C176.106 47.6769 176.242 47.5428 176.445 47.5428C180.514 47.5428 183.565 50.7276 183.565 54.9181C183.565 55.8568 182.819 56.5943 181.87 56.5943ZM178.547 48.5485C179.971 50.0236 180.853 52.8396 180.853 54.9181C180.853 55.488 181.293 55.9238 181.87 55.9238C182.446 55.9238 182.887 55.488 182.887 54.9181C182.887 51.8674 181.124 49.4202 178.547 48.5485Z" fill="black"/>
<path d="M176.446 60.6171C176.378 60.6171 176.31 60.5837 176.242 60.55L170.818 56.5272C170.682 56.4266 170.648 56.192 170.75 56.0579C170.852 55.9238 171.089 55.8903 171.225 55.9909L176.649 60.0137C176.785 60.1143 176.818 60.3489 176.717 60.483C176.649 60.5836 176.547 60.6171 176.446 60.6171Z" fill="black"/>
<path d="M176.446 60.6171C176.344 60.6171 176.242 60.5836 176.174 60.483C176.073 60.3489 176.107 60.1143 176.242 60.0137L181.667 55.9908C181.802 55.8903 182.039 55.9238 182.141 56.0579C182.243 56.192 182.209 56.4267 182.073 56.5273L176.649 60.5501C176.581 60.5836 176.513 60.6171 176.446 60.6171Z" fill="black"/>
<path d="M179.158 66.6514H178.48C178.276 66.6514 178.141 66.5173 178.141 66.3161C178.141 66.1151 178.276 65.9808 178.48 65.9808H179.158C179.361 65.9808 179.497 66.1151 179.497 66.3161C179.497 66.5173 179.361 66.6514 179.158 66.6514Z" fill="black"/>
<path d="M179.158 65.6456H177.802C177.598 65.6456 177.463 65.5117 177.463 65.3105C177.463 65.1093 177.598 64.9752 177.802 64.9752H179.158C179.361 64.9752 179.497 65.1093 179.497 65.3105C179.497 65.5117 179.361 65.6456 179.158 65.6456Z" fill="black"/>
</svg>
