<svg width="120" height="56" viewBox="0 0 120 56" fill="none" xmlns="http://www.w3.org/2000/svg">
<path d="M13.6889 54.9625C10.6469 54.9625 8.2133 54.1559 6.38794 52.5427C4.60956 50.8728 3.22924 48.7693 2.24623 46.2341C1.31021 43.642 0.701865 40.7906 0.420875 37.6798C0.140191 34.5671 0 31.5434 0 28.6049C0 24.9754 0.163606 21.4613 0.490968 18.0627C0.865469 14.6054 1.61462 11.5514 2.73782 8.90071C3.90769 6.1932 5.56914 4.03286 7.72187 2.41972C9.87475 0.806572 12.7529 0 16.3566 0C17.7137 0 19.0008 0.231001 20.2177 0.691088C21.481 1.09437 22.6047 1.75706 23.5871 2.67913C24.5701 3.54439 25.3425 4.66715 25.904 6.04931C26.5124 7.37466 26.8163 8.931 26.8163 10.7164C26.8163 11.6385 26.6293 12.3864 26.2548 12.9639C25.9274 13.5394 25.5061 13.9995 24.9913 14.346C24.5233 14.6925 24.0084 14.9216 23.4469 15.0371C22.8852 15.1526 22.3938 15.2094 21.9725 15.2094C21.0368 15.2094 20.4518 14.7777 20.2177 13.9143C20.0305 13.0491 19.8664 12.127 19.7261 11.1481C19.5859 10.1106 19.2815 9.1601 18.8135 8.29673C18.3458 7.43335 17.4096 6.99978 16.0054 6.99978C14.5549 6.99978 13.4079 7.89343 12.5657 9.67887C11.7701 11.4075 11.1615 13.4826 10.7404 15.9024C10.3193 18.2634 10.0618 20.6547 9.96825 23.0744C9.87474 25.4354 9.82791 27.2512 9.82791 28.5178C9.82791 29.0366 9.85133 29.8432 9.89816 30.9375C9.94484 32.0338 10.0151 33.2437 10.1086 34.5671C10.2493 35.8925 10.413 37.2765 10.6 38.7155C10.7875 40.0995 11.0214 41.3662 11.3023 42.5193C11.6297 43.6704 12.0042 44.6209 12.4255 45.3707C12.8931 46.1185 13.4079 46.4934 13.9696 46.4934C14.9525 46.4934 15.7717 46.003 16.4267 45.0242C17.0819 43.9866 17.5968 42.807 17.9713 41.4817C18.3458 40.0995 18.603 38.7155 18.7432 37.3333C18.9307 35.8925 19.0242 34.7697 19.0242 33.9632C19.0242 33.3289 18.9775 32.6946 18.884 32.0622C18.7901 31.4279 18.6966 30.7937 18.603 30.1613C16.2163 30.1613 14.4845 29.8716 13.4079 29.296C12.3787 28.7204 11.8639 27.6261 11.8639 26.0129C11.8639 25.0908 12.1446 24.3714 12.7061 23.8526C13.2677 23.3338 13.9228 22.9589 14.6718 22.7279C15.4205 22.4401 16.1929 22.2678 16.9884 22.2091C17.7841 22.0955 18.4159 22.0369 18.884 22.0369C20.7091 22.0369 22.1834 22.2678 23.3066 22.7279C24.4764 23.1899 25.3892 23.9094 26.0444 24.8883C26.6994 25.8103 27.1441 27.0202 27.378 28.5178C27.6122 30.0174 27.7291 31.8028 27.7291 33.8761C27.7291 36.6991 27.4718 39.3782 26.9571 41.9134C26.4423 44.4486 25.623 46.696 24.4998 48.6538C23.3767 50.5547 21.9258 52.0826 20.1474 53.2338C18.3692 54.3869 16.2163 54.9625 13.6889 54.9625ZM58.3138 55.0344C56.6763 55.0344 55.5055 54.4096 54.8045 53.1619C54.102 51.9141 53.7118 49.7292 53.6337 46.6089C52.9317 47.5215 52.2101 48.4815 51.4692 49.4887C50.728 50.4487 49.9092 51.3386 49.0121 52.1546C48.1149 52.9687 47.1402 53.6428 46.0871 54.171C45.0732 54.6974 43.9224 54.9625 42.6356 54.9625C40.9976 54.9625 39.5155 54.508 38.1897 53.5935C36.9024 52.6809 35.791 51.3613 34.855 49.6326C33.9578 47.9059 33.256 45.8175 32.749 43.3675C32.2809 40.9194 32.0471 38.1589 32.0471 35.0859C32.0471 31.4374 32.3784 28.1505 33.0414 25.2196C33.7433 22.2432 34.7183 19.7232 35.9667 17.6594C37.2535 15.5464 38.7939 13.9143 40.5882 12.7613C42.382 11.6101 44.3904 11.0326 46.6136 11.0326C50.9815 11.0326 54.0622 13.2649 55.8575 17.7314C55.9355 15.9062 56.3839 14.3934 57.2027 13.193C58.0598 11.9926 59.0928 11.3943 60.3034 11.3943C61.4344 11.3943 62.2532 12.0172 62.7598 13.2649C63.3061 14.5145 63.5786 16.5537 63.5786 19.3861C63.5786 21.0675 63.5005 22.8908 63.3444 24.8599C63.1883 26.7816 63.0138 28.8435 62.8179 31.0531C62.6618 33.2626 62.5057 35.6142 62.3496 38.1115C62.195 40.6089 62.117 43.2728 62.117 46.1053C62.117 46.5862 62.1354 47.0898 62.1752 47.6162C62.2134 48.0498 62.2532 48.5534 62.2915 49.129C62.3695 49.6572 62.4675 50.1855 62.5838 50.7137C62.6618 51.0962 62.7399 51.4332 62.8179 51.7229C62.896 51.9615 62.9358 52.2019 62.9358 52.4424C62.9358 53.1126 62.4675 53.7147 61.5308 54.243C60.634 54.7693 59.5611 55.0344 58.3138 55.0344ZM44.9172 47.1845C45.8529 47.1845 46.8087 46.6582 47.7837 45.5998C48.7975 44.4978 49.7143 43.1289 50.5332 41.495C51.3909 39.8155 52.0736 37.9676 52.5805 35.9512C53.1265 33.9348 53.3996 31.9657 53.3996 30.0458C53.3996 28.461 53.2052 26.899 52.8148 25.3635C52.4635 23.828 51.9759 22.4591 51.3523 21.2587C50.728 20.0583 50.0262 19.0984 49.2462 18.3789C48.5051 17.6102 47.7251 17.2258 46.906 17.2258C45.9703 17.2258 45.0732 17.7067 44.2149 18.6667C43.3961 19.5793 42.6549 20.827 41.9919 22.4118C41.368 23.9965 40.8609 25.8444 40.4708 27.9574C40.1202 30.0212 39.9445 32.1834 39.9445 34.4384C39.9445 36.2617 40.0614 37.9676 40.2957 39.5505C40.5685 41.086 40.9192 42.4322 41.3487 43.5833C41.7774 44.6872 42.3041 45.577 42.9281 46.2492C43.5521 46.874 44.2149 47.1845 44.9172 47.1845ZM69.1295 26.6169C69.1295 25.9845 69.1295 25.0038 69.1295 23.6784C69.1295 22.2962 69.1295 20.7702 69.1295 19.0984C69.1769 17.4284 69.2244 15.6998 69.2703 13.9143C69.3177 12.0702 69.3881 10.37 69.4815 8.81551C69.5748 7.20237 69.6912 5.82019 69.832 4.66713C69.9728 3.45727 70.1595 2.6507 70.3936 2.24742C70.7686 1.61314 71.2124 1.09437 71.7282 0.691088C72.2424 0.287802 72.9908 0.0871047 73.9734 0.0871047C74.4891 0.0871047 75.0033 0.143912 75.5191 0.259407C76.0333 0.374902 76.5246 0.577477 76.9929 0.865268C77.4612 1.15306 77.8347 1.52795 78.1163 1.98804C78.3964 2.44812 78.5371 2.99721 78.5371 3.62959C78.5371 7.60565 78.4897 11.523 78.3963 15.3836C78.3504 19.1855 78.3259 23.1615 78.3259 27.308C78.3259 28.001 78.303 29.0082 78.2571 30.3336C78.2571 31.6002 78.2571 33.0127 78.2571 34.5671C78.303 36.0667 78.3504 37.6211 78.3963 39.2343C78.4897 40.8474 78.6305 42.3167 78.8172 43.642C79.0514 44.9087 79.3559 45.9746 79.7309 46.8399C80.1043 47.6465 80.5726 48.0195 81.1343 47.9627C82.351 47.8472 83.3106 48.0782 84.0131 48.6538C84.7615 49.2294 85.1364 50.3824 85.1364 52.1111C85.1364 52.9744 84.9956 53.6655 84.7156 54.1843C84.434 54.703 84.0835 55.078 83.6611 55.3089C83.2877 55.5967 82.8423 55.769 82.3281 55.8277C81.8597 55.9413 81.4159 56 80.9935 56C79.2626 56 77.7643 55.6251 76.5017 54.8754C75.2375 54.1843 74.1616 53.2054 73.2724 51.9388C72.3832 50.6702 71.6578 49.1725 71.0961 47.4439C70.5344 45.7153 70.1136 43.8143 69.832 41.7411C69.5045 39.2059 69.2933 36.6991 69.1999 34.2225C69.154 31.6873 69.1295 29.1521 69.1295 26.6169ZM114.735 55.0344C113.098 55.0344 111.927 54.4096 111.224 53.1619C110.523 51.9141 110.133 49.7292 110.055 46.6089C109.353 47.5215 108.632 48.4815 107.891 49.4887C107.149 50.4487 106.33 51.3386 105.433 52.1546C104.536 52.9687 103.561 53.6428 102.509 54.171C101.494 54.6974 100.343 54.9625 99.0574 54.9625C97.4183 54.9625 95.9368 54.508 94.6114 53.5935C93.3228 52.6809 92.2117 51.3613 91.2766 49.6326C90.3797 47.9059 89.6773 45.8175 89.1707 43.3675C88.7024 40.9194 88.4682 38.1589 88.4682 35.0859C88.4682 31.4374 88.8003 28.1505 89.463 25.2196C90.1639 22.2432 91.1404 19.7232 92.3877 17.6594C93.6748 15.5464 95.2144 13.9143 97.0096 12.7613C98.8033 11.6101 100.811 11.0326 103.035 11.0326C107.403 11.0326 110.484 13.2649 112.277 17.7314C112.355 15.9062 112.804 14.3934 113.624 13.193C114.481 11.9926 115.514 11.3943 116.723 11.3943C117.854 11.3943 118.673 12.0172 119.181 13.2649C119.728 14.5145 120 16.5537 120 19.3861C120 21.0675 119.922 22.8908 119.766 24.8599C119.61 26.7816 119.434 28.8435 119.239 31.0531C119.083 33.2626 118.927 35.6142 118.771 38.1115C118.615 40.6089 118.537 43.2728 118.537 46.1053C118.537 46.5862 118.557 47.0898 118.597 47.6162C118.635 48.0498 118.673 48.5534 118.713 49.129C118.791 49.6572 118.889 50.1855 119.005 50.7137C119.083 51.0962 119.161 51.4332 119.239 51.7229C119.317 51.9615 119.356 52.2019 119.356 52.4424C119.356 53.1126 118.889 53.7147 117.952 54.243C117.055 54.7693 115.983 55.0344 114.735 55.0344ZM101.338 47.1845C102.274 47.1845 103.229 46.6582 104.204 45.5998C105.219 44.4978 106.136 43.1289 106.954 41.495C107.813 39.8155 108.494 37.9676 109.002 35.9512C109.547 33.9348 109.821 31.9657 109.821 30.0458C109.821 28.461 109.627 26.899 109.236 25.3635C108.884 23.828 108.398 22.4591 107.773 21.2587C107.149 20.0583 106.448 19.0984 105.667 18.3789C104.927 17.6102 104.146 17.2258 103.327 17.2258C102.391 17.2258 101.494 17.7067 100.637 18.6667C99.818 19.5793 99.0757 20.827 98.4131 22.4118C97.7886 23.9965 97.2821 25.8444 96.8918 27.9574C96.5413 30.0212 96.3653 32.1834 96.3653 34.4384C96.3653 36.2617 96.4832 37.9676 96.7173 39.5505C96.9897 41.086 97.3402 42.4322 97.7703 43.5833C98.1988 44.6872 98.7253 45.577 99.3497 46.2492C99.9726 46.874 100.637 47.1845 101.338 47.1845Z" fill="#D3E3FC"/>
</svg>
