<svg width="140" height="254" viewBox="0 0 140 254" fill="none" xmlns="http://www.w3.org/2000/svg">
<path d="M21.1247 161H16.8767L15.7727 157.424H10.3487L9.22066 161H5.06866L10.6367 145.16H15.5807L21.1247 161ZM11.1167 154.616H15.0047L13.0607 148.208L11.1167 154.616ZM26.6645 161.24C25.8485 161.24 25.1285 161.104 24.5045 160.832C23.8965 160.544 23.4165 160.088 23.0645 159.464C22.7125 158.84 22.5365 158.024 22.5365 157.016V149H26.6165V156.056C26.6165 156.824 26.7685 157.36 27.0725 157.664C27.3765 157.968 27.8085 158.12 28.3685 158.12C28.6565 158.12 28.9285 158.072 29.1845 157.976C29.4405 157.864 29.6645 157.704 29.8565 157.496C30.0485 157.272 30.1925 156.992 30.2885 156.656C30.4005 156.304 30.4565 155.896 30.4565 155.432V149H34.5365V161H30.8885L30.7685 158.744C30.3845 159.592 29.8485 160.224 29.1605 160.64C28.4725 161.04 27.6405 161.24 26.6645 161.24ZM28.2245 143.384H32.0165L29.5925 147.536H26.6165L28.2245 143.384ZM37.4679 161V149H41.1159L41.3319 153.128L40.8759 152.672C41.0359 151.808 41.3159 151.088 41.7159 150.512C42.1319 149.936 42.6439 149.504 43.2519 149.216C43.8759 148.912 44.5719 148.76 45.3399 148.76C46.1719 148.76 46.8919 148.92 47.4999 149.24C48.1239 149.56 48.6119 150.032 48.9639 150.656C49.3159 151.28 49.4919 152.064 49.4919 153.008V161H45.4119V154.088C45.4119 153.256 45.2519 152.68 44.9319 152.36C44.6119 152.04 44.2039 151.88 43.7079 151.88C43.3239 151.88 42.9639 151.976 42.6279 152.168C42.2919 152.344 42.0279 152.632 41.8359 153.032C41.6439 153.432 41.5479 153.968 41.5479 154.64V161H37.4679ZM59.2179 161V149H62.8659L63.0819 153.128L62.6259 152.672C62.7859 151.808 63.0659 151.088 63.4659 150.512C63.8819 149.936 64.3939 149.504 65.0019 149.216C65.6259 148.912 66.3219 148.76 67.0899 148.76C67.9219 148.76 68.6419 148.92 69.2499 149.24C69.8739 149.56 70.3619 150.032 70.7139 150.656C71.0659 151.28 71.2419 152.064 71.2419 153.008V161H67.1619V154.088C67.1619 153.256 67.0019 152.68 66.6819 152.36C66.3619 152.04 65.9539 151.88 65.4579 151.88C65.0739 151.88 64.7139 151.976 64.3779 152.168C64.0419 152.344 63.7779 152.632 63.5859 153.032C63.3939 153.432 63.2979 153.968 63.2979 154.64V161H59.2179ZM79.8127 148.76C81.0767 148.76 82.1807 149.008 83.1247 149.504C84.0847 149.984 84.8287 150.696 85.3567 151.64C85.9007 152.568 86.1727 153.688 86.1727 155C86.1727 156.312 85.9007 157.44 85.3567 158.384C84.8287 159.312 84.0847 160.024 83.1247 160.52C82.1807 161 81.0767 161.24 79.8127 161.24C78.5807 161.24 77.4847 161 76.5247 160.52C75.5647 160.024 74.8127 159.312 74.2687 158.384C73.7407 157.44 73.4767 156.312 73.4767 155C73.4767 153.688 73.7407 152.568 74.2687 151.64C74.8127 150.696 75.5647 149.984 76.5247 149.504C77.4847 149.008 78.5807 148.76 79.8127 148.76ZM79.8127 151.664C79.3487 151.664 78.9487 151.776 78.6127 152C78.2767 152.224 78.0207 152.584 77.8447 153.08C77.6687 153.576 77.5807 154.216 77.5807 155C77.5807 155.784 77.6687 156.424 77.8447 156.92C78.0207 157.4 78.2767 157.76 78.6127 158C78.9487 158.224 79.3487 158.336 79.8127 158.336C80.2927 158.336 80.7007 158.224 81.0367 158C81.3727 157.76 81.6287 157.4 81.8047 156.92C81.9807 156.424 82.0687 155.784 82.0687 155C82.0687 154.216 81.9807 153.576 81.8047 153.08C81.6287 152.584 81.3727 152.224 81.0367 152C80.7007 151.776 80.2927 151.664 79.8127 151.664ZM95.3351 161V143.912H99.4151V151.184C99.7671 150.384 100.271 149.784 100.927 149.384C101.583 148.968 102.343 148.76 103.207 148.76C104.039 148.76 104.759 148.92 105.367 149.24C105.991 149.56 106.479 150.032 106.831 150.656C107.183 151.28 107.359 152.064 107.359 153.008V161H103.279V154.136C103.279 153.272 103.119 152.68 102.799 152.36C102.495 152.024 102.087 151.856 101.575 151.856C101.191 151.856 100.831 151.952 100.495 152.144C100.159 152.336 99.8951 152.64 99.7031 153.056C99.5111 153.472 99.4151 154.016 99.4151 154.688V161H95.3351ZM116.914 153.392C116.914 152.832 116.754 152.392 116.434 152.072C116.13 151.736 115.714 151.568 115.186 151.568C114.658 151.568 114.202 151.704 113.818 151.976C113.45 152.232 113.194 152.696 113.05 153.368L109.594 152.552C109.818 151.4 110.41 150.48 111.37 149.792C112.33 149.104 113.682 148.76 115.426 148.76C116.594 148.76 117.586 148.936 118.402 149.288C119.234 149.624 119.866 150.136 120.298 150.824C120.746 151.496 120.97 152.328 120.97 153.32V157.712C120.97 158.336 121.25 158.648 121.81 158.648C122.098 158.648 122.33 158.616 122.506 158.552L122.266 160.88C121.786 161.104 121.202 161.216 120.514 161.216C119.89 161.216 119.338 161.12 118.858 160.928C118.378 160.72 118.002 160.416 117.73 160.016C117.458 159.6 117.322 159.08 117.322 158.456V158.312L117.778 158.144C117.778 158.832 117.57 159.408 117.154 159.872C116.754 160.336 116.226 160.68 115.57 160.904C114.93 161.128 114.258 161.24 113.554 161.24C112.738 161.24 112.026 161.112 111.418 160.856C110.81 160.6 110.338 160.232 110.002 159.752C109.682 159.256 109.522 158.648 109.522 157.928C109.522 157.064 109.778 156.352 110.29 155.792C110.818 155.216 111.642 154.816 112.762 154.592L117.298 153.656L117.274 155.816L114.97 156.296C114.49 156.392 114.13 156.536 113.89 156.728C113.666 156.904 113.554 157.176 113.554 157.544C113.554 157.896 113.682 158.16 113.938 158.336C114.194 158.512 114.498 158.6 114.85 158.6C115.122 158.6 115.378 158.56 115.618 158.48C115.874 158.4 116.098 158.28 116.29 158.12C116.482 157.944 116.634 157.728 116.746 157.472C116.858 157.216 116.914 156.912 116.914 156.56V153.392ZM123.492 161V158.504L128.268 153.08L129.54 151.808L127.644 151.856H123.54V149H134.052V151.496L129.348 156.872L128.028 158.192L130.14 158.144H134.268V161H123.492ZM24.0663 181.392C24.0663 180.832 23.9063 180.392 23.5863 180.072C23.2823 179.736 22.8663 179.568 22.3383 179.568C21.8103 179.568 21.3543 179.704 20.9703 179.976C20.6023 180.232 20.3463 180.696 20.2023 181.368L16.7463 180.552C16.9703 179.4 17.5623 178.48 18.5223 177.792C19.4823 177.104 20.8343 176.76 22.5783 176.76C23.7463 176.76 24.7383 176.936 25.5543 177.288C26.3863 177.624 27.0183 178.136 27.4503 178.824C27.8983 179.496 28.1223 180.328 28.1223 181.32V185.712C28.1223 186.336 28.4023 186.648 28.9623 186.648C29.2503 186.648 29.4823 186.616 29.6583 186.552L29.4183 188.88C28.9383 189.104 28.3543 189.216 27.6663 189.216C27.0423 189.216 26.4903 189.12 26.0103 188.928C25.5303 188.72 25.1543 188.416 24.8823 188.016C24.6103 187.6 24.4743 187.08 24.4743 186.456V186.312L24.9303 186.144C24.9303 186.832 24.7223 187.408 24.3063 187.872C23.9063 188.336 23.3783 188.68 22.7223 188.904C22.0823 189.128 21.4103 189.24 20.7063 189.24C19.8903 189.24 19.1783 189.112 18.5703 188.856C17.9623 188.6 17.4903 188.232 17.1543 187.752C16.8343 187.256 16.6743 186.648 16.6743 185.928C16.6743 185.064 16.9303 184.352 17.4423 183.792C17.9703 183.216 18.7943 182.816 19.9143 182.592L24.4503 181.656L24.4263 183.816L22.1223 184.296C21.6423 184.392 21.2823 184.536 21.0423 184.728C20.8183 184.904 20.7063 185.176 20.7063 185.544C20.7063 185.896 20.8343 186.16 21.0903 186.336C21.3463 186.512 21.6503 186.6 22.0023 186.6C22.2743 186.6 22.5303 186.56 22.7703 186.48C23.0263 186.4 23.2503 186.28 23.4423 186.12C23.6343 185.944 23.7863 185.728 23.8983 185.472C24.0103 185.216 24.0663 184.912 24.0663 184.56V181.392ZM43.0253 173.784L43.3613 176.52C43.2653 176.488 43.1693 176.472 43.0733 176.472C42.9773 176.456 42.8813 176.448 42.7853 176.448C42.0813 176.448 41.5533 176.624 41.2013 176.976C40.8653 177.312 40.6973 177.736 40.6973 178.248L39.2573 177.72C39.2573 177.064 39.3773 176.432 39.6173 175.824C39.8573 175.216 40.2253 174.72 40.7213 174.336C41.2333 173.952 41.8733 173.76 42.6413 173.76C42.6893 173.76 42.7453 173.76 42.8093 173.76C42.8893 173.76 42.9613 173.768 43.0253 173.784ZM38.8973 186.336C40.2893 186.336 41.3533 186.632 42.0893 187.224C42.8413 187.8 43.2173 188.632 43.2173 189.72C43.2173 190.712 42.9453 191.536 42.4013 192.192C41.8573 192.848 41.0893 193.336 40.0973 193.656C39.1213 193.992 37.9613 194.16 36.6173 194.16C34.4413 194.16 32.8733 193.888 31.9133 193.344C30.9533 192.8 30.4733 192.064 30.4733 191.136C30.4733 190.464 30.7453 189.92 31.2893 189.504C31.8333 189.088 32.7373 188.864 34.0013 188.832L33.9053 189.216C32.9293 189.088 32.2013 188.8 31.7213 188.352C31.2413 187.904 31.0013 187.296 31.0013 186.528C31.0013 185.76 31.3053 185.136 31.9133 184.656C32.5213 184.176 33.3293 183.912 34.3373 183.864L35.8253 184.56H35.4413C34.8173 184.592 34.3773 184.696 34.1213 184.872C33.8653 185.048 33.7373 185.264 33.7373 185.52C33.7373 185.792 33.8493 186 34.0733 186.144C34.2973 186.272 34.6333 186.336 35.0813 186.336H38.8973ZM36.6413 191.52C37.4093 191.52 38.0413 191.464 38.5373 191.352C39.0493 191.256 39.4333 191.112 39.6893 190.92C39.9453 190.744 40.0733 190.536 40.0733 190.296C40.0733 190.056 39.9853 189.864 39.8093 189.72C39.6333 189.592 39.3133 189.528 38.8493 189.528H34.5533C34.2493 189.528 34.0013 189.608 33.8093 189.768C33.6333 189.928 33.5453 190.128 33.5453 190.368C33.5453 190.736 33.8173 191.016 34.3613 191.208C34.9053 191.416 35.6653 191.52 36.6413 191.52ZM36.7853 176.76C38.0013 176.76 39.0413 176.92 39.9053 177.24C40.7693 177.56 41.4253 178.024 41.8733 178.632C42.3373 179.224 42.5693 179.96 42.5693 180.84C42.5693 181.704 42.3373 182.44 41.8733 183.048C41.4253 183.656 40.7693 184.12 39.9053 184.44C39.0413 184.744 38.0013 184.896 36.7853 184.896C34.8813 184.896 33.4333 184.544 32.4413 183.84C31.4653 183.136 30.9773 182.136 30.9773 180.84C30.9773 179.96 31.2013 179.224 31.6493 178.632C32.1133 178.024 32.7773 177.56 33.6413 177.24C34.5053 176.92 35.5533 176.76 36.7853 176.76ZM36.7853 179.088C36.2573 179.088 35.8253 179.24 35.4893 179.544C35.1693 179.848 35.0093 180.28 35.0093 180.84C35.0093 181.384 35.1693 181.808 35.4893 182.112C35.8253 182.416 36.2573 182.568 36.7853 182.568C37.2973 182.568 37.7213 182.416 38.0573 182.112C38.3933 181.808 38.5613 181.384 38.5613 180.84C38.5613 180.28 38.3933 179.848 38.0573 179.544C37.7213 179.24 37.2973 179.088 36.7853 179.088ZM44.839 189V177H48.439L48.607 179.592C48.911 178.696 49.359 178 49.951 177.504C50.559 177.008 51.327 176.76 52.255 176.76C52.559 176.76 52.815 176.784 53.023 176.832C53.247 176.88 53.423 176.944 53.551 177.024L53.143 180.384C52.983 180.32 52.775 180.272 52.519 180.24C52.279 180.192 51.983 180.168 51.631 180.168C51.151 180.168 50.703 180.272 50.287 180.48C49.871 180.688 49.535 181 49.279 181.416C49.039 181.816 48.919 182.328 48.919 182.952V189H44.839ZM60.8669 189.24C59.5389 189.24 58.3869 188.992 57.4109 188.496C56.4509 188 55.7069 187.288 55.1789 186.36C54.6509 185.432 54.3869 184.312 54.3869 183C54.3869 181.688 54.6509 180.568 55.1789 179.64C55.7069 178.712 56.4429 178 57.3869 177.504C58.3469 177.008 59.4429 176.76 60.6749 176.76C61.9389 176.76 63.0109 177.008 63.8909 177.504C64.7869 177.984 65.4669 178.656 65.9309 179.52C66.3949 180.368 66.6269 181.344 66.6269 182.448C66.6269 182.736 66.6189 183.024 66.6029 183.312C66.5869 183.6 66.5629 183.84 66.5309 184.032H57.0269V181.848H64.7309L62.7869 182.592C62.7869 181.632 62.6109 180.896 62.2589 180.384C61.9229 179.872 61.3949 179.616 60.6749 179.616C60.1629 179.616 59.7229 179.736 59.3549 179.976C59.0029 180.216 58.7309 180.592 58.5389 181.104C58.3629 181.616 58.2749 182.272 58.2749 183.072C58.2749 183.856 58.3789 184.496 58.5869 184.992C58.7949 185.472 59.0909 185.824 59.4749 186.048C59.8589 186.256 60.3229 186.36 60.8669 186.36C61.4749 186.36 61.9549 186.24 62.3069 186C62.6749 185.76 62.9469 185.424 63.1229 184.992L66.3869 186.072C66.1629 186.76 65.7709 187.344 65.2109 187.824C64.6669 188.288 64.0109 188.64 63.2429 188.88C62.4909 189.12 61.6989 189.24 60.8669 189.24ZM80.5253 173.784L80.8613 176.52C80.7653 176.488 80.6693 176.472 80.5733 176.472C80.4773 176.456 80.3813 176.448 80.2853 176.448C79.5813 176.448 79.0533 176.624 78.7013 176.976C78.3653 177.312 78.1973 177.736 78.1973 178.248L76.7573 177.72C76.7573 177.064 76.8773 176.432 77.1173 175.824C77.3573 175.216 77.7253 174.72 78.2213 174.336C78.7333 173.952 79.3733 173.76 80.1413 173.76C80.1893 173.76 80.2453 173.76 80.3093 173.76C80.3893 173.76 80.4613 173.768 80.5253 173.784ZM76.3973 186.336C77.7893 186.336 78.8533 186.632 79.5893 187.224C80.3413 187.8 80.7173 188.632 80.7173 189.72C80.7173 190.712 80.4453 191.536 79.9013 192.192C79.3573 192.848 78.5893 193.336 77.5973 193.656C76.6213 193.992 75.4613 194.16 74.1173 194.16C71.9413 194.16 70.3733 193.888 69.4133 193.344C68.4533 192.8 67.9733 192.064 67.9733 191.136C67.9733 190.464 68.2453 189.92 68.7893 189.504C69.3333 189.088 70.2373 188.864 71.5013 188.832L71.4053 189.216C70.4293 189.088 69.7013 188.8 69.2213 188.352C68.7413 187.904 68.5013 187.296 68.5013 186.528C68.5013 185.76 68.8053 185.136 69.4133 184.656C70.0213 184.176 70.8293 183.912 71.8373 183.864L73.3253 184.56H72.9413C72.3173 184.592 71.8773 184.696 71.6213 184.872C71.3653 185.048 71.2373 185.264 71.2373 185.52C71.2373 185.792 71.3493 186 71.5733 186.144C71.7973 186.272 72.1333 186.336 72.5813 186.336H76.3973ZM74.1413 191.52C74.9093 191.52 75.5413 191.464 76.0373 191.352C76.5493 191.256 76.9333 191.112 77.1893 190.92C77.4453 190.744 77.5733 190.536 77.5733 190.296C77.5733 190.056 77.4853 189.864 77.3093 189.72C77.1333 189.592 76.8133 189.528 76.3493 189.528H72.0533C71.7493 189.528 71.5013 189.608 71.3093 189.768C71.1333 189.928 71.0453 190.128 71.0453 190.368C71.0453 190.736 71.3173 191.016 71.8613 191.208C72.4053 191.416 73.1653 191.52 74.1413 191.52ZM74.2853 176.76C75.5013 176.76 76.5413 176.92 77.4053 177.24C78.2693 177.56 78.9253 178.024 79.3733 178.632C79.8373 179.224 80.0693 179.96 80.0693 180.84C80.0693 181.704 79.8373 182.44 79.3733 183.048C78.9253 183.656 78.2693 184.12 77.4053 184.44C76.5413 184.744 75.5013 184.896 74.2853 184.896C72.3813 184.896 70.9333 184.544 69.9413 183.84C68.9653 183.136 68.4773 182.136 68.4773 180.84C68.4773 179.96 68.7013 179.224 69.1493 178.632C69.6133 178.024 70.2773 177.56 71.1413 177.24C72.0053 176.92 73.0533 176.76 74.2853 176.76ZM74.2853 179.088C73.7573 179.088 73.3253 179.24 72.9893 179.544C72.6693 179.848 72.5093 180.28 72.5093 180.84C72.5093 181.384 72.6693 181.808 72.9893 182.112C73.3253 182.416 73.7573 182.568 74.2853 182.568C74.7973 182.568 75.2213 182.416 75.5573 182.112C75.8933 181.808 76.0613 181.384 76.0613 180.84C76.0613 180.28 75.8933 179.848 75.5573 179.544C75.2213 179.24 74.7973 179.088 74.2853 179.088ZM89.035 181.392C89.035 180.832 88.875 180.392 88.555 180.072C88.251 179.736 87.835 179.568 87.307 179.568C86.779 179.568 86.323 179.704 85.939 179.976C85.571 180.232 85.315 180.696 85.171 181.368L81.715 180.552C81.939 179.4 82.531 178.48 83.491 177.792C84.451 177.104 85.803 176.76 87.547 176.76C88.715 176.76 89.707 176.936 90.523 177.288C91.355 177.624 91.987 178.136 92.419 178.824C92.867 179.496 93.091 180.328 93.091 181.32V185.712C93.091 186.336 93.371 186.648 93.931 186.648C94.219 186.648 94.451 186.616 94.627 186.552L94.387 188.88C93.907 189.104 93.323 189.216 92.635 189.216C92.011 189.216 91.459 189.12 90.979 188.928C90.499 188.72 90.123 188.416 89.851 188.016C89.579 187.6 89.443 187.08 89.443 186.456V186.312L89.899 186.144C89.899 186.832 89.691 187.408 89.275 187.872C88.875 188.336 88.347 188.68 87.691 188.904C87.051 189.128 86.379 189.24 85.675 189.24C84.859 189.24 84.147 189.112 83.539 188.856C82.931 188.6 82.459 188.232 82.123 187.752C81.803 187.256 81.643 186.648 81.643 185.928C81.643 185.064 81.899 184.352 82.411 183.792C82.939 183.216 83.763 182.816 84.883 182.592L89.419 181.656L89.395 183.816L87.091 184.296C86.611 184.392 86.251 184.536 86.011 184.728C85.787 184.904 85.675 185.176 85.675 185.544C85.675 185.896 85.803 186.16 86.059 186.336C86.315 186.512 86.619 186.6 86.971 186.6C87.243 186.6 87.499 186.56 87.739 186.48C87.995 186.4 88.219 186.28 88.411 186.12C88.603 185.944 88.755 185.728 88.867 185.472C88.979 185.216 89.035 184.912 89.035 184.56V181.392ZM100.56 189.24C99.5677 189.24 98.6957 189 97.9437 188.52C97.2077 188.024 96.6317 187.312 96.2157 186.384C95.8157 185.456 95.6157 184.344 95.6157 183.048C95.6157 181.704 95.8237 180.568 96.2397 179.64C96.6717 178.712 97.2637 178 98.0157 177.504C98.7837 177.008 99.6637 176.76 100.656 176.76C101.744 176.76 102.616 177.096 103.272 177.768C103.944 178.424 104.376 179.264 104.568 180.288L104.184 180.792V171.912H108.264V189H104.616L104.352 184.92L104.832 185.28C104.736 186.08 104.488 186.776 104.088 187.368C103.704 187.96 103.208 188.424 102.6 188.76C102.008 189.08 101.328 189.24 100.56 189.24ZM101.976 186.24C102.44 186.24 102.832 186.12 103.152 185.88C103.488 185.624 103.744 185.248 103.92 184.752C104.096 184.256 104.184 183.648 104.184 182.928C104.184 182.256 104.096 181.688 103.92 181.224C103.76 180.744 103.512 180.384 103.176 180.144C102.856 179.888 102.464 179.76 102 179.76C101.296 179.76 100.736 180.024 100.32 180.552C99.9197 181.064 99.7197 181.88 99.7197 183C99.7197 184.12 99.9197 184.944 100.32 185.472C100.72 185.984 101.272 186.24 101.976 186.24ZM116.903 176.76C118.167 176.76 119.271 177.008 120.215 177.504C121.175 177.984 121.919 178.696 122.447 179.64C122.991 180.568 123.263 181.688 123.263 183C123.263 184.312 122.991 185.44 122.447 186.384C121.919 187.312 121.175 188.024 120.215 188.52C119.271 189 118.167 189.24 116.903 189.24C115.671 189.24 114.575 189 113.615 188.52C112.655 188.024 111.903 187.312 111.359 186.384C110.831 185.44 110.567 184.312 110.567 183C110.567 181.688 110.831 180.568 111.359 179.64C111.903 178.696 112.655 177.984 113.615 177.504C114.575 177.008 115.671 176.76 116.903 176.76ZM116.903 179.664C116.439 179.664 116.039 179.776 115.703 180C115.367 180.224 115.111 180.584 114.935 181.08C114.759 181.576 114.671 182.216 114.671 183C114.671 183.784 114.759 184.424 114.935 184.92C115.111 185.4 115.367 185.76 115.703 186C116.039 186.224 116.439 186.336 116.903 186.336C117.383 186.336 117.791 186.224 118.127 186C118.463 185.76 118.719 185.4 118.895 184.92C119.071 184.424 119.159 183.784 119.159 183C119.159 182.216 119.071 181.576 118.895 181.08C118.719 180.584 118.463 180.224 118.127 180C117.791 179.776 117.383 179.664 116.903 179.664ZM11.089 222.04V205H14.761L14.977 209.344L14.497 208.84C14.609 208.04 14.857 207.336 15.241 206.728C15.625 206.12 16.121 205.64 16.729 205.288C17.337 204.936 18.033 204.76 18.817 204.76C19.809 204.76 20.673 205.008 21.409 205.504C22.145 205.984 22.713 206.688 23.113 207.616C23.529 208.528 23.737 209.64 23.737 210.952C23.737 212.264 23.529 213.392 23.113 214.336C22.697 215.28 22.113 216 21.361 216.496C20.625 216.992 19.761 217.24 18.769 217.24C17.681 217.24 16.801 216.92 16.129 216.28C15.457 215.624 15.009 214.8 14.785 213.808L15.169 213.232V222.04H11.089ZM17.377 214.24C18.081 214.24 18.633 213.984 19.033 213.472C19.433 212.944 19.633 212.12 19.633 211C19.633 209.88 19.433 209.064 19.033 208.552C18.649 208.024 18.105 207.76 17.401 207.76C16.953 207.76 16.561 207.888 16.225 208.144C15.889 208.384 15.625 208.744 15.433 209.224C15.257 209.704 15.169 210.296 15.169 211C15.169 211.672 15.249 212.256 15.409 212.752C15.585 213.232 15.841 213.6 16.177 213.856C16.513 214.112 16.913 214.24 17.377 214.24ZM26.1359 217V205H29.7359L29.9039 207.592C30.2079 206.696 30.6559 206 31.2479 205.504C31.8559 205.008 32.6239 204.76 33.5519 204.76C33.8559 204.76 34.1119 204.784 34.3199 204.832C34.5439 204.88 34.7199 204.944 34.8479 205.024L34.4399 208.384C34.2799 208.32 34.0719 208.272 33.8159 208.24C33.5759 208.192 33.2799 208.168 32.9279 208.168C32.4479 208.168 31.9999 208.272 31.5839 208.48C31.1679 208.688 30.8319 209 30.5759 209.416C30.3359 209.816 30.2159 210.328 30.2159 210.952V217H26.1359ZM42.0198 204.76C43.2838 204.76 44.3878 205.008 45.3318 205.504C46.2918 205.984 47.0358 206.696 47.5638 207.64C48.1078 208.568 48.3798 209.688 48.3798 211C48.3798 212.312 48.1078 213.44 47.5638 214.384C47.0358 215.312 46.2918 216.024 45.3318 216.52C44.3878 217 43.2838 217.24 42.0198 217.24C40.7878 217.24 39.6918 217 38.7318 216.52C37.7718 216.024 37.0198 215.312 36.4758 214.384C35.9478 213.44 35.6838 212.312 35.6838 211C35.6838 209.688 35.9478 208.568 36.4758 207.64C37.0198 206.696 37.7718 205.984 38.7318 205.504C39.6918 205.008 40.7878 204.76 42.0198 204.76ZM42.0198 207.664C41.5558 207.664 41.1558 207.776 40.8198 208C40.4838 208.224 40.2278 208.584 40.0518 209.08C39.8758 209.576 39.7878 210.216 39.7878 211C39.7878 211.784 39.8758 212.424 40.0518 212.92C40.2278 213.4 40.4838 213.76 40.8198 214C41.1558 214.224 41.5558 214.336 42.0198 214.336C42.4998 214.336 42.9078 214.224 43.2438 214C43.5798 213.76 43.8358 213.4 44.0118 212.92C44.1878 212.424 44.2758 211.784 44.2758 211C44.2758 210.216 44.1878 209.576 44.0118 209.08C43.8358 208.584 43.5798 208.224 43.2438 208C42.9078 207.776 42.4998 207.664 42.0198 207.664ZM55.0909 217.24C54.0989 217.24 53.2269 217 52.4749 216.52C51.7389 216.024 51.1629 215.312 50.7469 214.384C50.3469 213.456 50.1469 212.344 50.1469 211.048C50.1469 209.704 50.3549 208.568 50.7709 207.64C51.2029 206.712 51.7949 206 52.5469 205.504C53.3149 205.008 54.1949 204.76 55.1869 204.76C56.2749 204.76 57.1469 205.096 57.8029 205.768C58.4749 206.424 58.9069 207.264 59.0989 208.288L58.7149 208.792V199.912H62.7949V217H59.1469L58.8829 212.92L59.3629 213.28C59.2669 214.08 59.0189 214.776 58.6189 215.368C58.2349 215.96 57.7389 216.424 57.1309 216.76C56.5389 217.08 55.8589 217.24 55.0909 217.24ZM56.5069 214.24C56.9709 214.24 57.3629 214.12 57.6829 213.88C58.0189 213.624 58.2749 213.248 58.4509 212.752C58.6269 212.256 58.7149 211.648 58.7149 210.928C58.7149 210.256 58.6269 209.688 58.4509 209.224C58.2909 208.744 58.0429 208.384 57.7069 208.144C57.3869 207.888 56.9949 207.76 56.5309 207.76C55.8269 207.76 55.2669 208.024 54.8509 208.552C54.4509 209.064 54.2509 209.88 54.2509 211C54.2509 212.12 54.4509 212.944 54.8509 213.472C55.2509 213.984 55.8029 214.24 56.5069 214.24ZM69.7778 217.24C68.9618 217.24 68.2418 217.104 67.6178 216.832C67.0098 216.544 66.5298 216.088 66.1778 215.464C65.8258 214.84 65.6498 214.024 65.6498 213.016V205H69.7298V212.056C69.7298 212.824 69.8818 213.36 70.1858 213.664C70.4898 213.968 70.9218 214.12 71.4818 214.12C71.7698 214.12 72.0418 214.072 72.2978 213.976C72.5538 213.864 72.7778 213.704 72.9698 213.496C73.1618 213.272 73.3058 212.992 73.4018 212.656C73.5138 212.304 73.5698 211.896 73.5698 211.432V205H77.6498V217H74.0018L73.8818 214.744C73.4978 215.592 72.9618 216.224 72.2738 216.64C71.5858 217.04 70.7538 217.24 69.7778 217.24ZM86.2692 204.76C87.4852 204.76 88.4932 204.936 89.2932 205.288C90.1092 205.624 90.7412 206.08 91.1892 206.656C91.6532 207.216 91.9412 207.824 92.0532 208.48L88.2852 209.728C88.1732 209.04 87.9652 208.528 87.6612 208.192C87.3732 207.84 86.9492 207.664 86.3892 207.664C85.8772 207.664 85.4452 207.784 85.0932 208.024C84.7572 208.248 84.5012 208.616 84.3252 209.128C84.1492 209.624 84.0612 210.264 84.0612 211.048C84.0612 211.832 84.1572 212.472 84.3492 212.968C84.5412 213.448 84.8132 213.8 85.1652 214.024C85.5172 214.232 85.9332 214.336 86.4132 214.336C86.8132 214.336 87.1412 214.264 87.3972 214.12C87.6692 213.96 87.8932 213.736 88.0692 213.448C88.2452 213.16 88.3572 212.808 88.4052 212.392L92.0772 213.568C91.9652 214.272 91.6612 214.904 91.1652 215.464C90.6852 216.008 90.0452 216.44 89.2452 216.76C88.4452 217.08 87.5092 217.24 86.4372 217.24C85.1252 217.24 83.9812 217 83.0052 216.52C82.0292 216.024 81.2772 215.312 80.7492 214.384C80.2212 213.44 79.9572 212.312 79.9572 211C79.9572 209.688 80.2212 208.568 80.7492 207.64C81.2772 206.696 82.0132 205.984 82.9572 205.504C83.9172 205.008 85.0212 204.76 86.2692 204.76ZM99.2144 201.184V212.728C99.2144 213.304 99.3504 213.72 99.6224 213.976C99.9104 214.216 100.302 214.336 100.798 214.336C101.182 214.336 101.51 214.296 101.782 214.216C102.07 214.12 102.326 213.984 102.55 213.808L102.982 216.328C102.582 216.616 102.078 216.84 101.47 217C100.862 217.16 100.238 217.24 99.5984 217.24C98.6864 217.24 97.8944 217.112 97.2224 216.856C96.5664 216.6 96.0544 216.192 95.6864 215.632C95.3344 215.072 95.1504 214.328 95.1344 213.4V202.312L99.2144 201.184ZM102.79 205V207.904H93.0704V205H102.79ZM110.387 204.76C111.651 204.76 112.755 205.008 113.699 205.504C114.659 205.984 115.403 206.696 115.931 207.64C116.475 208.568 116.747 209.688 116.747 211C116.747 212.312 116.475 213.44 115.931 214.384C115.403 215.312 114.659 216.024 113.699 216.52C112.755 217 111.651 217.24 110.387 217.24C109.155 217.24 108.059 217 107.099 216.52C106.139 216.024 105.387 215.312 104.843 214.384C104.315 213.44 104.051 212.312 104.051 211C104.051 209.688 104.315 208.568 104.843 207.64C105.387 206.696 106.139 205.984 107.099 205.504C108.059 205.008 109.155 204.76 110.387 204.76ZM110.387 207.664C109.923 207.664 109.523 207.776 109.187 208C108.851 208.224 108.595 208.584 108.419 209.08C108.243 209.576 108.155 210.216 108.155 211C108.155 211.784 108.243 212.424 108.419 212.92C108.595 213.4 108.851 213.76 109.187 214C109.523 214.224 109.923 214.336 110.387 214.336C110.867 214.336 111.275 214.224 111.611 214C111.947 213.76 112.203 213.4 112.379 212.92C112.555 212.424 112.643 211.784 112.643 211C112.643 210.216 112.555 209.576 112.379 209.08C112.203 208.584 111.947 208.224 111.611 208C111.275 207.776 110.867 207.664 110.387 207.664ZM124.082 217.24C122.882 217.24 121.762 217.048 120.722 216.664C119.698 216.264 118.85 215.696 118.178 214.96L120.098 212.704C120.498 213.216 121.026 213.648 121.682 214C122.354 214.336 123.098 214.504 123.914 214.504C124.41 214.504 124.818 214.432 125.138 214.288C125.458 214.144 125.618 213.92 125.618 213.616C125.618 213.392 125.538 213.216 125.378 213.088C125.218 212.944 124.898 212.824 124.418 212.728L122.738 212.392C121.234 212.088 120.162 211.64 119.522 211.048C118.898 210.44 118.586 209.648 118.586 208.672C118.586 208.016 118.786 207.392 119.186 206.8C119.586 206.192 120.202 205.704 121.034 205.336C121.866 204.952 122.93 204.76 124.226 204.76C125.442 204.76 126.514 204.936 127.442 205.288C128.37 205.64 129.106 206.152 129.65 206.824L127.706 209.032C127.322 208.552 126.826 208.176 126.218 207.904C125.61 207.632 125.002 207.496 124.394 207.496C124.01 207.496 123.682 207.536 123.41 207.616C123.154 207.68 122.962 207.776 122.834 207.904C122.706 208.032 122.642 208.192 122.642 208.384C122.642 208.592 122.738 208.776 122.93 208.936C123.138 209.08 123.514 209.208 124.058 209.32L126.242 209.752C127.474 209.976 128.362 210.384 128.906 210.976C129.45 211.568 129.722 212.28 129.722 213.112C129.722 213.896 129.514 214.6 129.098 215.224C128.682 215.848 128.058 216.344 127.226 216.712C126.394 217.064 125.346 217.24 124.082 217.24ZM20.7381 237.392C20.7381 236.832 20.5781 236.392 20.2581 236.072C19.9541 235.736 19.5381 235.568 19.0101 235.568C18.4821 235.568 18.0261 235.704 17.6421 235.976C17.2741 236.232 17.0181 236.696 16.8741 237.368L13.4181 236.552C13.6421 235.4 14.2341 234.48 15.1941 233.792C16.1541 233.104 17.5061 232.76 19.2501 232.76C20.4181 232.76 21.4101 232.936 22.2261 233.288C23.0581 233.624 23.6901 234.136 24.1221 234.824C24.5701 235.496 24.7941 236.328 24.7941 237.32V241.712C24.7941 242.336 25.0741 242.648 25.6341 242.648C25.9221 242.648 26.1541 242.616 26.3301 242.552L26.0901 244.88C25.6101 245.104 25.0261 245.216 24.3381 245.216C23.7141 245.216 23.1621 245.12 22.6821 244.928C22.2021 244.72 21.8261 244.416 21.5541 244.016C21.2821 243.6 21.1461 243.08 21.1461 242.456V242.312L21.6021 242.144C21.6021 242.832 21.3941 243.408 20.9781 243.872C20.5781 244.336 20.0501 244.68 19.3941 244.904C18.7541 245.128 18.0821 245.24 17.3781 245.24C16.5621 245.24 15.8501 245.112 15.2421 244.856C14.6341 244.6 14.1621 244.232 13.8261 243.752C13.5061 243.256 13.3461 242.648 13.3461 241.928C13.3461 241.064 13.6021 240.352 14.1141 239.792C14.6421 239.216 15.4661 238.816 16.5861 238.592L21.1221 237.656L21.0981 239.816L18.7941 240.296C18.3141 240.392 17.9541 240.536 17.7141 240.728C17.4901 240.904 17.3781 241.176 17.3781 241.544C17.3781 241.896 17.5061 242.16 17.7621 242.336C18.0181 242.512 18.3221 242.6 18.6741 242.6C18.9461 242.6 19.2021 242.56 19.4421 242.48C19.6981 242.4 19.9221 242.28 20.1141 242.12C20.3061 241.944 20.4581 241.728 20.5701 241.472C20.6821 241.216 20.7381 240.912 20.7381 240.56V237.392ZM31.9726 227.912V240.92C31.9726 241.448 32.0606 241.824 32.2366 242.048C32.4126 242.272 32.7086 242.384 33.1246 242.384C33.3646 242.384 33.5646 242.368 33.7246 242.336C33.8846 242.304 34.0766 242.256 34.3006 242.192L34.0366 244.64C33.7486 244.816 33.3726 244.96 32.9086 245.072C32.4446 245.184 31.9886 245.24 31.5406 245.24C30.2606 245.24 29.3326 244.944 28.7566 244.352C28.1806 243.76 27.8926 242.792 27.8926 241.448V227.912H31.9726ZM48.0192 232.76C49.2352 232.76 50.2432 232.936 51.0432 233.288C51.8592 233.624 52.4912 234.08 52.9392 234.656C53.4032 235.216 53.6912 235.824 53.8032 236.48L50.0352 237.728C49.9232 237.04 49.7152 236.528 49.4112 236.192C49.1232 235.84 48.6992 235.664 48.1392 235.664C47.6272 235.664 47.1952 235.784 46.8432 236.024C46.5072 236.248 46.2512 236.616 46.0752 237.128C45.8992 237.624 45.8112 238.264 45.8112 239.048C45.8112 239.832 45.9072 240.472 46.0992 240.968C46.2912 241.448 46.5632 241.8 46.9152 242.024C47.2672 242.232 47.6832 242.336 48.1632 242.336C48.5632 242.336 48.8912 242.264 49.1472 242.12C49.4192 241.96 49.6432 241.736 49.8192 241.448C49.9952 241.16 50.1072 240.808 50.1552 240.392L53.8272 241.568C53.7152 242.272 53.4112 242.904 52.9152 243.464C52.4352 244.008 51.7952 244.44 50.9952 244.76C50.1952 245.08 49.2592 245.24 48.1872 245.24C46.8752 245.24 45.7312 245 44.7552 244.52C43.7792 244.024 43.0272 243.312 42.4992 242.384C41.9712 241.44 41.7072 240.312 41.7072 239C41.7072 237.688 41.9712 236.568 42.4992 235.64C43.0272 234.696 43.7632 233.984 44.7072 233.504C45.6672 233.008 46.7712 232.76 48.0192 232.76ZM62.6444 237.392C62.6444 236.832 62.4844 236.392 62.1644 236.072C61.8604 235.736 61.4444 235.568 60.9164 235.568C60.3884 235.568 59.9324 235.704 59.5484 235.976C59.1804 236.232 58.9244 236.696 58.7804 237.368L55.3244 236.552C55.5484 235.4 56.1404 234.48 57.1004 233.792C58.0604 233.104 59.4124 232.76 61.1564 232.76C62.3244 232.76 63.3164 232.936 64.1324 233.288C64.9644 233.624 65.5964 234.136 66.0284 234.824C66.4764 235.496 66.7004 236.328 66.7004 237.32V241.712C66.7004 242.336 66.9804 242.648 67.5404 242.648C67.8284 242.648 68.0604 242.616 68.2364 242.552L67.9964 244.88C67.5164 245.104 66.9324 245.216 66.2444 245.216C65.6204 245.216 65.0684 245.12 64.5884 244.928C64.1084 244.72 63.7324 244.416 63.4604 244.016C63.1884 243.6 63.0524 243.08 63.0524 242.456V242.312L63.5084 242.144C63.5084 242.832 63.3004 243.408 62.8844 243.872C62.4844 244.336 61.9564 244.68 61.3004 244.904C60.6604 245.128 59.9884 245.24 59.2844 245.24C58.4684 245.24 57.7564 245.112 57.1484 244.856C56.5404 244.6 56.0684 244.232 55.7324 243.752C55.4124 243.256 55.2524 242.648 55.2524 241.928C55.2524 241.064 55.5084 240.352 56.0204 239.792C56.5484 239.216 57.3724 238.816 58.4924 238.592L63.0284 237.656L63.0044 239.816L60.7004 240.296C60.2204 240.392 59.8604 240.536 59.6204 240.728C59.3964 240.904 59.2844 241.176 59.2844 241.544C59.2844 241.896 59.4124 242.16 59.6684 242.336C59.9244 242.512 60.2284 242.6 60.5804 242.6C60.8524 242.6 61.1084 242.56 61.3484 242.48C61.6044 242.4 61.8284 242.28 62.0204 242.12C62.2124 241.944 62.3644 241.728 62.4764 241.472C62.5884 241.216 62.6444 240.912 62.6444 240.56V237.392ZM69.8468 245V233H73.4468L73.6148 235.592C73.9188 234.696 74.3668 234 74.9588 233.504C75.5668 233.008 76.3348 232.76 77.2628 232.76C77.5668 232.76 77.8228 232.784 78.0308 232.832C78.2548 232.88 78.4308 232.944 78.5588 233.024L78.1508 236.384C77.9908 236.32 77.7828 236.272 77.5268 236.24C77.2868 236.192 76.9908 236.168 76.6388 236.168C76.1588 236.168 75.7108 236.272 75.2948 236.48C74.8788 236.688 74.5428 237 74.2868 237.416C74.0468 237.816 73.9268 238.328 73.9268 238.952V245H69.8468ZM80.1593 245V233H83.7593L83.9273 235.592C84.2313 234.696 84.6793 234 85.2713 233.504C85.8793 233.008 86.6473 232.76 87.5753 232.76C87.8793 232.76 88.1353 232.784 88.3433 232.832C88.5673 232.88 88.7433 232.944 88.8713 233.024L88.4633 236.384C88.3033 236.32 88.0953 236.272 87.8393 236.24C87.5993 236.192 87.3033 236.168 86.9513 236.168C86.4713 236.168 86.0233 236.272 85.6073 236.48C85.1913 236.688 84.8553 237 84.5993 237.416C84.3593 237.816 84.2393 238.328 84.2393 238.952V245H80.1593ZM92.5118 231.608C91.6798 231.608 91.0718 231.456 90.6878 231.152C90.3198 230.832 90.1358 230.336 90.1358 229.664C90.1358 228.976 90.3198 228.48 90.6878 228.176C91.0718 227.856 91.6798 227.696 92.5118 227.696C93.3278 227.696 93.9278 227.856 94.3118 228.176C94.6958 228.48 94.8878 228.976 94.8878 229.664C94.8878 230.336 94.6958 230.832 94.3118 231.152C93.9278 231.456 93.3278 231.608 92.5118 231.608ZM94.5518 233V245H90.4718V233H94.5518ZM102.472 229.184V240.728C102.472 241.304 102.608 241.72 102.88 241.976C103.168 242.216 103.56 242.336 104.056 242.336C104.44 242.336 104.768 242.296 105.04 242.216C105.328 242.12 105.584 241.984 105.808 241.808L106.24 244.328C105.84 244.616 105.336 244.84 104.728 245C104.12 245.16 103.496 245.24 102.856 245.24C101.944 245.24 101.152 245.112 100.48 244.856C99.8242 244.6 99.3122 244.192 98.9442 243.632C98.5922 243.072 98.4082 242.328 98.3922 241.4V230.312L102.472 229.184ZM106.048 233V235.904H96.3282V233H106.048ZM113.645 232.76C114.909 232.76 116.013 233.008 116.957 233.504C117.917 233.984 118.661 234.696 119.189 235.64C119.733 236.568 120.005 237.688 120.005 239C120.005 240.312 119.733 241.44 119.189 242.384C118.661 243.312 117.917 244.024 116.957 244.52C116.013 245 114.909 245.24 113.645 245.24C112.413 245.24 111.317 245 110.357 244.52C109.397 244.024 108.645 243.312 108.101 242.384C107.573 241.44 107.309 240.312 107.309 239C107.309 237.688 107.573 236.568 108.101 235.64C108.645 234.696 109.397 233.984 110.357 233.504C111.317 233.008 112.413 232.76 113.645 232.76ZM113.645 235.664C113.181 235.664 112.781 235.776 112.445 236C112.109 236.224 111.853 236.584 111.677 237.08C111.501 237.576 111.413 238.216 111.413 239C111.413 239.784 111.501 240.424 111.677 240.92C111.853 241.4 112.109 241.76 112.445 242C112.781 242.224 113.181 242.336 113.645 242.336C114.125 242.336 114.533 242.224 114.869 242C115.205 241.76 115.461 241.4 115.637 240.92C115.813 240.424 115.901 239.784 115.901 239C115.901 238.216 115.813 237.576 115.637 237.08C115.461 236.584 115.205 236.224 114.869 236C114.533 235.776 114.125 235.664 113.645 235.664ZM123.941 240.872C124.693 240.872 125.277 241.064 125.693 241.448C126.125 241.832 126.341 242.368 126.341 243.056C126.341 243.728 126.125 244.256 125.693 244.64C125.277 245.024 124.693 245.216 123.941 245.216C123.205 245.216 122.621 245.024 122.189 244.64C121.757 244.256 121.541 243.728 121.541 243.056C121.541 242.368 121.757 241.832 122.189 241.448C122.621 241.064 123.205 240.872 123.941 240.872Z" fill="#00887A"/>
<path d="M74.6667 26.6666H69.3333V21.3333H74.6667V26.6666ZM74.6667 16H69.3333V2.66663H74.6667V16ZM58.6667 48C55.7333 48 53.36 50.4 53.36 53.3333C53.36 56.2666 55.7333 58.6666 58.6667 58.6666C61.6 58.6666 64 56.2666 64 53.3333C64 50.4 61.6 48 58.6667 48ZM85.3333 48C82.4 48 80.0267 50.4 80.0267 53.3333C80.0267 56.2666 82.4 58.6666 85.3333 58.6666C88.2667 58.6666 90.6667 56.2666 90.6667 53.3333C90.6667 50.4 88.2667 48 85.3333 48ZM61.6 34.6666H81.4667C83.4667 34.6666 85.2267 33.5733 86.1333 31.92L96 13.2266L91.3333 10.6666L81.4667 29.3333H62.7467L51.3867 5.33329H42.6667V10.6666H48L57.6 30.9066L54 37.4133C52.0533 40.9866 54.6133 45.3333 58.6667 45.3333H90.6667V40H58.6667L61.6 34.6666Z" fill="#00887A"/>
</svg>
