<svg width="22" height="22" viewBox="0 0 22 22" fill="none" xmlns="http://www.w3.org/2000/svg">
<path d="M22 10.9895L19.56 8.06667L19.9 4.20095L16.29 3.34191L14.4 0L11 1.52952L7.6 0L5.71 3.34191L2.1 4.19048L2.44 8.06667L0 10.9895L2.44 13.9124L2.1 17.7886L5.71 18.6476L7.6 22L11 20.46L14.4 21.9895L16.29 18.6476L19.9 17.7886L19.56 13.9229L22 10.9895ZM18.05 12.54L17.49 13.221L17.57 14.1114L17.75 16.1543L15.85 16.6048L15.01 16.8038L14.57 17.579L13.58 19.339L11.8 18.5324L11 18.1762L10.21 18.5324L8.43 19.339L7.44 17.5895L7 16.8143L6.16 16.6152L4.26 16.1648L4.44 14.1114L4.52 13.221L3.96 12.54L2.67 11L3.96 9.44952L4.52 8.76857L4.43 7.86762L4.25 5.83524L6.15 5.38476L6.99 5.18571L7.43 4.41048L8.42 2.65048L10.2 3.45714L11 3.81333L11.79 3.45714L13.57 2.65048L14.56 4.41048L15 5.18571L15.84 5.38476L17.74 5.83524L17.56 7.8781L17.48 8.76857L18.04 9.44952L19.33 10.9895L18.05 12.54Z" fill="#77DD77"/>
<path d="M9.09004 12.8333L6.77004 10.3924L5.29004 11.9533L9.09004 15.9448L16.43 8.23428L14.95 6.67333L9.09004 12.8333Z" fill="#77DD77"/>
</svg>
