<?xml version="1.0" encoding="iso-8859-1"?>
<!-- Generator: Adobe Illustrator 19.0.0, SVG Export Plug-In . SVG Version: 6.00 Build 0)  -->
<svg version="1.1" id="Layer_1" xmlns="http://www.w3.org/2000/svg" xmlns:xlink="http://www.w3.org/1999/xlink" x="0px" y="0px"
	 viewBox="0 0 511.999 511.999" style="enable-background:new 0 0 511.999 511.999;" xml:space="preserve">
<path style="fill:#F0E9DD;" d="M154.279,309.771c-37.547-66.167-16.648-164.86,54.954-236.462
	c82.275-82.274,200.339-97.603,263.7-34.242s48.022,181.416-34.252,263.69c-71.602,71.602-170.286,92.511-236.452,54.964
	c-9.872-5.591-19.018-12.491-27.238-20.712C166.77,328.789,159.87,319.644,154.279,309.771z"/>
<path style="fill:#6BD0E8;" d="M404.433,268.512c-32.273,32.273-71.667,52.866-110.938,57.959
	c-34.562,4.49-64.486-3.923-84.265-23.703c-14.171-14.171-22.506-33.549-24.437-56.134c-0.777-8.919-0.541-18.347,0.725-28.141
	c2.629-20.261,9.383-40.556,19.745-59.881c2.097-3.932,4.35-7.828,6.754-11.664c4.7-7.531,9.96-14.887,15.752-21.973
	c4.876-5.994,10.117-11.812,15.718-17.413c9.707-9.707,20.051-18.355,30.849-25.834c25.1-17.413,52.621-28.56,80.073-32.124
	c34.58-4.49,64.503,3.94,84.274,23.712c2.629,2.629,5.058,5.443,7.277,8.413c8.973,11.996,14.625,26.699,16.705,43.247
	c0.882,7.016,1.127,14.355,0.699,21.964c-0.174,3.513-0.498,7.05-0.979,10.642c-0.043,0.341-0.096,0.691-0.14,1.032
	c-4.15,30.431-17.596,60.894-38.537,88.022C417.853,254.219,411.414,261.531,404.433,268.512z"/>
<g>
	<path style="fill:#B7EFF9;" d="M462.664,124.976H227.768c4.876-5.994,10.117-11.812,15.718-17.413
		c9.707-9.707,20.051-18.355,30.849-25.834h171.624C454.932,93.725,460.584,108.43,462.664,124.976z"/>
	<path style="fill:#B7EFF9;" d="M423.707,246.635H184.793c-0.777-8.919-0.541-18.347,0.725-28.141
		c2.629-20.261,9.383-40.556,19.745-59.881h256.981C458.095,189.042,444.648,219.507,423.707,246.635z"/>
</g>
<path style="fill:#CEC4BC;" d="M275.71,333.212c-28.487,0-53.047-9.147-70.413-26.513c-14.986-14.987-23.992-35.594-26.044-59.591
	c-0.813-9.321-0.561-19.192,0.75-29.327c2.707-20.859,9.557-41.648,20.36-61.796c2.157-4.044,4.494-8.082,6.941-11.989
	c4.853-7.777,10.292-15.363,16.16-22.539c5.014-6.164,10.431-12.165,16.089-17.825c9.882-9.882,20.519-18.789,31.615-26.473
	c25.932-17.99,54.47-29.425,82.522-33.068c36.317-4.719,67.895,4.268,88.922,25.293c2.791,2.792,5.417,5.826,7.8,9.018
	c9.571,12.794,15.548,28.231,17.766,45.88c0.928,7.387,1.175,15.115,0.733,22.97c-0.18,3.63-0.523,7.365-1.018,11.067l-0.136,0.996
	c-4.266,31.287-17.976,62.639-39.651,90.718c-5.99,7.761-12.634,15.3-19.743,22.411c-33.148,33.148-73.689,54.293-114.156,59.54
	C287.892,332.806,281.712,333.212,275.71,333.212z M372.157,53.986c-5.517,0-11.2,0.374-17.033,1.132
	c-26.298,3.415-53.138,14.197-77.619,31.179c-10.553,7.31-20.675,15.785-30.087,25.198c-5.392,5.392-10.552,11.108-15.336,16.989
	c-5.579,6.824-10.739,14.022-15.349,21.408c-2.315,3.697-4.522,7.507-6.565,11.336C200,180.193,193.563,199.697,191.03,219.21
	c-1.208,9.342-1.443,18.407-0.699,26.943c1.827,21.362,9.72,39.576,22.829,52.684c18.528,18.528,46.808,26.382,79.617,22.12
	c38.045-4.935,76.302-24.956,107.723-56.377c6.776-6.776,13.102-13.956,18.804-21.342c20.489-26.541,33.432-56.063,37.429-85.376
	l0.135-0.993c0.457-3.419,0.772-6.845,0.939-10.203c0.407-7.222,0.183-14.273-0.662-20.995c-1.974-15.713-7.237-29.375-15.641-40.61
	c-2.068-2.769-4.341-5.397-6.757-7.812C419.512,62.01,397.678,53.986,372.157,53.986z"/>
<path style="fill:#E77763;" d="M181.849,378.095l-37.052,37.052L103.9,456.044l-46.024,46.024
	c-13.245,13.245-34.711,13.237-47.947,0c-6.623-6.623-9.934-15.297-9.925-23.973c-0.009-8.676,3.303-17.351,9.925-23.974
	l8.798-8.798l40.906-40.906l40.897-40.897l33.374-33.374"/>
<path style="fill:#CC5E50;" d="M16.603,494.696c-0.009-8.676,3.303-17.351,9.925-23.974l8.797-8.797l40.906-40.906l40.896-40.896
	l33.375-33.375l-16.6-16.6l-33.375,33.375L59.631,404.42l-40.906,40.906l-8.797,8.797c-6.623,6.623-9.934,15.297-9.925,23.974
	c-0.009,8.676,3.303,17.351,9.925,23.974c2.917,2.917,6.235,5.191,9.776,6.822C17.634,504.398,16.598,499.548,16.603,494.696z"/>
<path style="fill:#F0E9DD;" d="M209.47,358.814l-56.296-56.296c-6.476-6.476-16.975-6.476-23.451,0l0,0
	c-6.476,6.476-6.476,16.975,0,23.451l56.296,56.296c6.476,6.476,16.975,6.476,23.451,0l0,0
	C215.945,375.789,215.945,365.291,209.47,358.814z"/>
<path style="fill:#CEC4BC;" d="M148.945,321.74c6.476-6.476,16.975-6.476,23.451,0l-19.22-19.22c-6.476-6.476-16.975-6.476-23.451,0
	c-6.476,6.476-6.476,16.975,0,23.451l19.22,19.22C142.469,338.715,142.469,328.215,148.945,321.74z"/>
<g>
</g>
<g>
</g>
<g>
</g>
<g>
</g>
<g>
</g>
<g>
</g>
<g>
</g>
<g>
</g>
<g>
</g>
<g>
</g>
<g>
</g>
<g>
</g>
<g>
</g>
<g>
</g>
<g>
</g>
</svg>
