<svg width="123" height="123" viewBox="0 0 123 123" fill="none" xmlns="http://www.w3.org/2000/svg">
<path d="M88.228 120.95H34.7701C31.4183 120.95 28.7001 118.232 28.7001 114.878V8.12209C28.7001 4.76842 31.4183 2.04993 34.7701 2.04993H88.228C91.5819 2.04993 94.3001 4.76818 94.3001 8.12209V114.878C94.2999 118.232 91.5816 120.95 88.228 120.95Z" fill="#FDCC00"/>
<path d="M28.7001 104.55H94.2999V14.3499H28.7001V104.55Z" fill="#FFE100"/>
<path d="M81.9999 59.4501C81.9999 70.7724 72.822 79.95 61.5 79.95C50.178 79.95 41.0001 70.7721 41.0001 59.4501C41.0001 48.1281 50.1777 38.95 61.5 38.95C72.8222 38.95 81.9999 48.1279 81.9999 59.4501Z" fill="#77A6F7"/>
<path d="M49.8868 73.4822L56.9367 70.4583C57.318 70.2678 57.6296 69.6507 57.8489 69.2098C58.0457 68.8123 57.7504 68.3448 57.3057 68.3448H52.3202C52.3202 68.3448 50.5182 68.1684 49.1284 67.5719C48.3145 67.2214 48.0337 66.7602 48.5442 66.0344C50.0324 63.9148 53.1096 58.9249 53.21 53.7693C53.21 53.7693 53.6712 47.1498 61.5002 47.1498C68.5482 47.1498 69.6101 51.9365 69.7002 53.2998C70.0262 58.2117 72.6541 64.1034 73.8207 66.0241C74.2163 66.6761 74.0256 67.5431 73.3717 67.9347C72.2976 68.5744 70.9854 68.3448 70.9854 68.3448H65.9669C65.4771 68.3448 65.2597 69.0294 65.645 69.335C65.9587 69.581 66.2578 69.8066 66.42 69.8948L72.2829 73.4433C73.1295 73.9045 73.806 74.5892 74.2653 75.399C70.7454 78.2424 66.2682 79.95 61.3914 79.95C56.3054 79.95 51.6559 78.0928 48.0726 75.0259C48.542 74.3905 49.1507 73.8512 49.8868 73.4822Z" fill="#D3E3FC"/>
<path d="M112.75 43.05C111.616 43.05 110.7 42.1316 110.7 41.0001V32.8002C110.7 31.6687 111.616 30.7502 112.75 30.7502C113.884 30.7502 114.8 31.6687 114.8 32.8002V41.0001C114.8 42.1316 113.884 43.05 112.75 43.05Z" fill="#FFE100"/>
<path d="M116.85 38.9499H108.65C107.516 38.9499 106.6 38.0315 106.6 36.9C106.6 35.7685 107.516 34.8501 108.65 34.8501H116.85C117.984 34.8501 118.9 35.7685 118.9 36.9C118.9 38.0315 117.984 38.9499 116.85 38.9499Z" fill="#FFE100"/>
<path d="M10.2501 2.04993C10.2501 6.58243 6.58267 10.2498 2.05017 10.2498C6.58267 10.2498 10.2501 13.9173 10.2501 18.4498C10.2501 13.9173 13.9175 10.2498 18.45 10.2498C13.9175 10.2501 10.2501 6.58267 10.2501 2.04993Z" fill="#FFE100"/>
<path d="M18.45 92.25C18.45 93.3815 17.5316 94.2999 16.4001 94.2999C15.2686 94.2999 14.3502 93.3815 14.3502 92.25C14.3502 91.1185 15.2686 90.2001 16.4001 90.2001C17.5316 90.2001 18.45 91.1185 18.45 92.25Z" fill="#FFE100"/>
<path d="M8.19994 55.35C8.19994 56.4815 7.28152 57.3999 6.15002 57.3999C5.01851 57.3999 4.1001 56.4815 4.1001 55.35C4.1001 54.2185 5.01851 53.3001 6.15002 53.3001C7.28152 53.3001 8.19994 54.2185 8.19994 55.35Z" fill="#FFE100"/>
<path d="M108.65 75.8499C108.65 76.9814 107.732 77.8998 106.6 77.8998C105.469 77.8998 104.55 76.9814 104.55 75.8499C104.55 74.7184 105.469 73.8 106.6 73.8C107.732 73.8 108.65 74.7184 108.65 75.8499Z" fill="#FFE100"/>
<path d="M123 118.9C123 120.031 122.082 120.95 120.95 120.95C119.819 120.95 118.9 120.031 118.9 118.9C118.9 117.768 119.819 116.85 120.95 116.85C122.082 116.85 123 117.768 123 118.9Z" fill="#FFE100"/>
<path d="M67.65 112.75C67.65 116.147 64.8969 118.9 61.5 118.9C58.1031 118.9 55.35 116.147 55.35 112.75C55.35 109.353 58.1031 106.6 61.5 106.6C64.8969 106.6 67.65 109.353 67.65 112.75Z" fill="#FFE100"/>
<path d="M88.228 2.04993H82.078C85.4319 2.04993 88.1502 4.76818 88.1502 8.12209V114.878C88.1502 118.232 85.4319 120.95 82.078 120.95H88.228C91.5819 120.95 94.3002 118.232 94.3002 114.878V8.12209C94.2999 4.76818 91.5817 2.04993 88.228 2.04993Z" fill="#FFA800"/>
<path d="M34.772 2.04993H40.922C37.5683 2.04993 34.8498 4.76818 34.8498 8.12209V114.878C34.8498 118.232 37.5681 120.95 40.922 120.95H34.772C31.4183 120.95 28.6998 118.232 28.6998 114.878V8.12209C28.7001 4.76818 31.4183 2.04993 34.772 2.04993Z" fill="white"/>
<path d="M88.228 123H34.7701C30.2928 123 26.6499 119.357 26.6499 114.878V8.12208C26.6499 3.64291 30.2928 0 34.7701 0H88.228C92.7072 0 96.3501 3.64291 96.3501 8.12208V114.878C96.3501 119.357 92.7072 123 88.228 123ZM34.7701 4.10008C32.5541 4.10008 30.75 5.904 30.75 8.12208V114.878C30.75 117.096 32.5539 118.9 34.7701 118.9H88.228C90.4461 118.9 92.25 117.096 92.25 114.878V8.12208C92.25 5.904 90.4461 4.10008 88.228 4.10008H34.7701V4.10008Z" fill="black"/>
<path d="M96.3501 106.6H26.6499V12.3H96.3498V106.6H96.3501ZM30.75 102.5H92.25V16.4001H30.75V102.5Z" fill="black"/>
<path d="M69.6999 10.2501H59.4498C58.3183 10.2501 57.3999 9.33169 57.3999 8.20019C57.3999 7.06868 58.3183 6.15027 59.4498 6.15027H69.6999C70.8336 6.15027 71.7498 7.06868 71.7498 8.20019C71.7498 9.33169 70.8336 10.2501 69.6999 10.2501Z" fill="black"/>
<path d="M53.3001 10.2501H51.2502C50.1187 10.2501 49.2003 9.33169 49.2003 8.20019C49.2003 7.06868 50.1187 6.15027 51.2502 6.15027H53.3001C54.4316 6.15027 55.35 7.06868 55.35 8.20019C55.35 9.33169 54.4316 10.2501 53.3001 10.2501Z" fill="black"/>
<path d="M26.6499 24.6C25.5184 24.6 24.6 23.6816 24.6 22.5501V20.5002C24.6 19.3687 25.5184 18.4503 26.6499 18.4503C27.7814 18.4503 28.6998 19.3687 28.6998 20.5002V22.5501C28.7001 23.6816 27.7816 24.6 26.6499 24.6Z" fill="black"/>
<path d="M26.6499 32.7999C25.5184 32.7999 24.6 31.8815 24.6 30.75V28.7001C24.6 27.5686 25.5184 26.6501 26.6499 26.6501C27.7814 26.6501 28.6998 27.5686 28.6998 28.7001V30.75C28.7001 31.8815 27.7816 32.7999 26.6499 32.7999Z" fill="black"/>
<path d="M26.6499 41.0001C25.5184 41.0001 24.6 40.0817 24.6 38.9502V36.9C24.6 35.7685 25.5184 34.8501 26.6499 34.8501C27.7814 34.8501 28.6998 35.7685 28.6998 36.9V38.9499C28.7001 40.0817 27.7816 41.0001 26.6499 41.0001Z" fill="black"/>
<path d="M61.5 120.95C56.9778 120.95 53.3 117.272 53.3 112.75C53.3 108.228 56.9778 104.55 61.5 104.55C66.0221 104.55 69.6999 108.228 69.6999 112.75C69.6999 117.272 66.0221 120.95 61.5 120.95ZM61.5 108.65C59.2389 108.65 57.3999 110.489 57.3999 112.75C57.3999 115.011 59.2386 116.85 61.5 116.85C63.7613 116.85 65.6 115.011 65.6 112.75C65.6 110.489 63.7611 108.65 61.5 108.65Z" fill="black"/>
<path d="M86.1 32.7999H36.9C35.7685 32.7999 34.8501 31.8815 34.8501 30.75V22.5501C34.8501 21.4186 35.7685 20.5002 36.9 20.5002H86.1C87.2337 20.5002 88.15 21.4186 88.15 22.5501V30.75C88.15 31.8815 87.2337 32.7999 86.1 32.7999ZM38.9499 28.7001H84.0499V24.6H38.9499V28.7001Z" fill="black"/>
<path d="M86.1 98.4H36.9C35.7685 98.4 34.8501 97.4838 34.8501 96.3501V88.1502C34.8501 87.0165 35.7685 86.1003 36.9 86.1003H86.1C87.2337 86.1003 88.15 87.0165 88.15 88.1502V96.3501C88.15 97.4838 87.2337 98.4 86.1 98.4ZM38.9499 94.2999H84.0499V90.1999H38.9499V94.2999Z" fill="black"/>
<path d="M61.5 81.9999C49.0667 81.9999 38.95 71.8832 38.95 59.4499C38.95 47.0165 49.0667 36.9 61.5 36.9C73.9334 36.9 84.0501 47.0168 84.0501 59.4501C84.0501 71.8834 73.9334 81.9999 61.5 81.9999ZM61.5 41.0001C51.328 41.0001 43.05 49.2781 43.05 59.4501C43.05 69.6243 51.328 77.9001 61.5 77.9001C71.6742 77.9001 79.95 69.6243 79.95 59.4501C79.95 49.2779 71.6742 41.0001 61.5 41.0001Z" fill="black"/>
<path d="M61.3914 82.0021C56.0246 82.0021 50.8216 80.0792 46.74 76.5838L45.2928 75.3457L46.4203 73.8103C47.1071 72.8756 47.9681 72.1457 48.9747 71.6456L49.0792 71.5985L51.9656 70.3603C51.2235 70.2743 49.6656 70.0324 48.3208 69.4563C47.2548 68.9929 46.5884 68.3082 46.3383 67.4187C46.1723 66.8282 46.1293 65.9057 46.8693 64.8542C48.1279 63.0603 51.0698 58.3822 51.1599 53.7289C51.371 50.6765 53.7962 45.1004 61.5 45.1004C69.1671 45.1004 71.5471 50.1701 71.746 53.1651C72.0331 57.4763 74.4193 63.0603 75.5713 64.9587C76.0448 65.7418 76.1944 66.7011 75.9732 67.5887C75.7558 68.4783 75.2044 69.2247 74.4275 69.692C73.2528 70.3889 72.0086 70.4752 71.2622 70.4281L73.3429 71.6869C74.4273 72.2752 75.3887 73.2244 76.0467 74.3847L76.9036 75.8956L75.5528 76.9882C71.5574 80.2248 66.5286 82.0021 61.3914 82.0021ZM51.5022 75.0218C54.446 76.8935 57.8756 77.902 61.3914 77.902C64.8866 77.902 68.2076 76.9509 71.1166 75.1304L65.3582 71.6494C65.2208 71.5776 64.8068 71.2826 64.3783 70.9484C63.511 70.2597 63.179 69.0953 63.5459 68.0394C63.9086 66.9958 64.8804 66.2948 65.9669 66.2948L71.3379 66.3256C71.3994 66.3338 71.5079 66.3441 71.6413 66.3359C70.2801 63.7858 67.9739 58.2549 67.6541 53.4373C67.6089 52.73 67.0924 49.2019 61.5 49.2019C55.6494 49.2019 55.2659 53.7222 55.2537 53.9129C55.1634 58.6525 52.8307 63.2016 51.0143 66.0325C51.6723 66.1966 52.2772 66.2826 52.5189 66.3071L57.3036 66.2968C58.2283 66.2968 59.0727 66.7662 59.5606 67.5513C60.0464 68.3344 60.0937 69.2959 59.6858 70.1199C59.3742 70.7493 58.8534 71.7926 57.8511 72.2928L51.5022 75.0218Z" fill="black"/>
<path d="M10.2501 20.5C9.11858 20.5 8.20016 19.5816 8.20016 18.4501C8.20016 15.0594 5.44083 12.3001 2.05016 12.3001C0.918416 12.3001 0 11.3816 0 10.2501C0 9.11864 0.918416 8.20022 2.04992 8.20022C5.44059 8.20022 8.19992 5.44089 8.19992 2.05022C8.19992 0.918721 9.11834 0.000305176 10.2498 0.000305176C11.3813 0.000305176 12.3 0.918481 12.3 2.04998C12.3 5.44065 15.0593 8.19998 18.45 8.19998C19.5815 8.19998 20.4999 9.1184 20.4999 10.2499C20.4999 11.3814 19.5815 12.3001 18.45 12.3001C15.0593 12.3001 12.3 15.0594 12.3 18.4501C12.3 19.5816 11.3816 20.5 10.2501 20.5ZM8.19391 10.2501C8.97083 10.8344 9.66583 11.5294 10.2501 12.3063C10.8343 11.5294 11.5293 10.8344 12.3062 10.2501C11.5293 9.66589 10.8343 8.9709 10.2501 8.19398C9.66583 8.9709 8.97083 9.66589 8.19391 10.2501Z" fill="black"/>
<path d="M110.7 41.0001C109.566 41.0001 108.65 40.0817 108.65 38.9502V30.75C108.65 29.6185 109.566 28.7001 110.7 28.7001C111.834 28.7001 112.75 29.6185 112.75 30.75V38.9499C112.75 40.0817 111.834 41.0001 110.7 41.0001Z" fill="black"/>
<path d="M114.8 36.9H106.6C105.466 36.9 104.55 35.9816 104.55 34.8501C104.55 33.7186 105.466 32.8002 106.6 32.8002H114.8C115.934 32.8002 116.85 33.7186 116.85 34.8501C116.85 35.9816 115.934 36.9 114.8 36.9Z" fill="black"/>
<path d="M16.4001 90.2001C16.4001 91.3316 15.4817 92.25 14.3502 92.25C13.2186 92.25 12.3002 91.3316 12.3002 90.2001C12.3002 89.0686 13.2186 88.1501 14.3502 88.1501C15.4817 88.1501 16.4001 89.0683 16.4001 90.2001Z" fill="black"/>
<path d="M6.15001 53.3001C6.15001 54.4316 5.23159 55.35 4.10009 55.35C2.96859 55.35 2.05017 54.4316 2.05017 53.3001C2.05017 52.1686 2.96859 51.2502 4.10009 51.2502C5.23159 51.2502 6.15001 52.1684 6.15001 53.3001Z" fill="black"/>
<path d="M106.6 73.8C106.6 74.9315 105.681 75.8499 104.55 75.8499C103.418 75.8499 102.5 74.9315 102.5 73.8C102.5 72.6685 103.418 71.7501 104.55 71.7501C105.681 71.7501 106.6 72.6685 106.6 73.8Z" fill="black"/>
<path d="M120.95 116.85C120.95 117.982 120.032 118.9 118.9 118.9C117.769 118.9 116.85 117.982 116.85 116.85C116.85 115.718 117.769 114.8 118.9 114.8C120.032 114.8 120.95 115.718 120.95 116.85Z" fill="black"/>
</svg>
