<svg width="124" height="32" viewBox="0 0 124 32" fill="none" xmlns="http://www.w3.org/2000/svg">
<path d="M79.9596 2.95958C80.3501 2.56906 80.9832 2.56906 81.3738 2.95958C81.7643 3.3501 81.7643 3.98327 81.3738 4.37379L79.7458 6.00002H82.6667C83.0893 6.00002 83.4663 6.26569 83.6084 6.66368L85.2751 11.3304C85.5077 11.9816 85.0249 12.6667 84.3333 12.6667H82.9405L80.8239 26.0657C80.5448 28.0194 78.8786 29.3334 76.8641 29.3334H73.1358C71.1214 29.3334 69.4551 28.0194 69.1782 26.0803L67.0592 12.6667H65.6667C64.9751 12.6667 64.4923 11.9816 64.7249 11.3304L66.3916 6.66368C66.5337 6.26569 66.9107 6.00002 67.3333 6.00002H76.9178L79.9596 2.95958ZM80.9152 12.6667H69.0832L71.1559 25.7829C71.2883 26.7096 72.0793 27.3334 73.1358 27.3334H76.8641C77.9207 27.3334 78.7116 26.7096 78.8462 25.7682L80.9152 12.6667ZM81.9619 8.00002H68.038L67.0857 10.6667H82.9143L81.9619 8.00002Z" fill="white"/>
<g clip-path="url(#clip0_1_371)">
<path d="M115.17 12.6651C116.149 12.6651 117.129 12.3373 117.874 11.6817L123.729 6.53383C124.09 6.21564 124.09 5.69975 123.729 5.38157C123.367 5.06347 122.78 5.06347 122.418 5.38157L118.482 8.84333L117.742 8.19338L121.825 4.60362C122.186 4.28543 122.186 3.76954 121.825 3.45136C121.463 3.13326 120.876 3.13326 120.514 3.45136L116.432 7.04112L115.693 6.39107L119.629 2.92941C119.991 2.61122 119.991 2.09533 119.629 1.77715C119.267 1.45905 118.681 1.45905 118.319 1.77715L112.465 6.92488C111.742 7.56026 111.344 8.40493 111.344 9.30327C111.344 9.33667 111.346 9.36971 111.347 9.40294L108.691 11.7386L97.7146 2.087C97.4715 1.87337 97.114 1.79552 96.7853 1.88496C96.4569 1.97439 96.2119 2.21636 96.1487 2.51355C95.6197 5.00336 96.52 7.55908 98.5568 9.35007L104.982 14.9999L98.312 20.8651C97.8166 21.3007 97.5439 21.8797 97.5439 22.4957C97.5439 23.1117 97.8166 23.6908 98.312 24.1264C98.8074 24.562 99.4659 24.8018 100.166 24.8018C100.867 24.8018 101.526 24.562 102.021 24.1264L108.691 18.2613L115.009 23.8165C115.52 24.2661 116.192 24.4908 116.863 24.4908C117.535 24.4908 118.206 24.2661 118.718 23.8165C119.74 22.9174 119.74 21.4544 118.718 20.5553L112.4 14.9999L115.058 12.6628C115.095 12.6637 115.132 12.6651 115.17 12.6651ZM117.407 22.6643C117.107 22.9281 116.619 22.9281 116.319 22.6643L110.001 17.109L111.09 16.1521L117.407 21.7075C117.707 21.9712 117.707 22.4005 117.407 22.6643ZM100.711 22.9741C100.411 23.2379 99.9224 23.2379 99.6224 22.9741C99.3223 22.7104 99.3223 22.2811 99.6224 22.0173L111.975 11.1551C112.117 11.3426 112.28 11.5191 112.465 11.6817C112.651 11.8455 112.852 11.9888 113.064 12.1116L100.711 22.9741ZM105.377 11.1292L104.302 12.0747C104.298 12.0785 104.294 12.0827 104.29 12.0866L99.8672 8.19781C98.736 7.20324 98.0499 5.90931 97.8895 4.54514L105.377 11.1292ZM105.612 13.227L106.688 12.2815L107.381 12.8909L106.292 13.8478L105.599 13.2377C105.603 13.2339 105.608 13.2308 105.612 13.227ZM113.775 8.07705L114.382 7.54324L117.171 9.9955L116.564 10.5294C115.795 11.2055 114.544 11.2055 113.775 10.5294C113.006 9.85338 113.006 8.75317 113.775 8.07705Z" fill="white"/>
</g>
<path d="M48.6875 10.875H39.3125V7.375C39.3125 6.4125 40.1562 5.625 41.1875 5.625H46.8125C47.8438 5.625 48.6875 6.4125 48.6875 7.375V10.875Z" stroke="white" stroke-width="2" stroke-miterlimit="10" stroke-linecap="round" stroke-linejoin="round"/>
<path d="M41.1875 10.875V13.5L38.1875 15.6C37.7188 15.95 37.4375 16.475 37.4375 17V26.625C37.4375 27.5875 38.2812 28.375 39.3125 28.375H48.6875C49.7188 28.375 50.5625 27.5875 50.5625 26.625V17C50.5625 16.475 50.2813 15.95 49.8125 15.6L46.8125 13.5V10.875" stroke="white" stroke-width="2" stroke-miterlimit="10" stroke-linecap="round" stroke-linejoin="round"/>
<path d="M44 18.75V24" stroke="white" stroke-width="2" stroke-miterlimit="10" stroke-linecap="round" stroke-linejoin="round"/>
<path d="M41.1875 21.375H46.8125" stroke="white" stroke-width="2" stroke-miterlimit="10" stroke-linecap="round" stroke-linejoin="round"/>
<path d="M24.1465 27.1668L22.6484 10.4395C22.6027 9.90625 22.1508 9.49492 21.6074 9.49492H17.6719C16.7527 6.48359 15.1785 3.55859 13 3.55859C10.8164 3.55859 9.24727 6.48359 8.31798 9.49492H4.38243C3.84415 9.49492 3.39219 9.90625 3.34141 10.4395L1.83829 27.3141C1.78243 28.0656 2.30547 28.4414 2.8793 28.4414H23.1258C23.1309 28.4414 23.1309 28.4414 23.1359 28.4414C23.7961 28.4414 24.2277 27.8727 24.1465 27.1668V27.1668ZM13 5.63047C13.7262 5.63047 14.7164 7.35703 15.4731 9.49492H10.527C11.2785 7.35703 12.2738 5.63047 13 5.63047ZM4.01172 26.3695L5.33712 11.5719H7.77969C7.48516 12.9379 7.3379 14.1719 7.3379 14.9844C7.3379 15.5582 7.80508 16.0203 8.37891 16.0203C8.95274 16.0203 9.41993 15.5582 9.41993 14.9844C9.41993 13.9789 9.60782 12.7754 9.90235 11.5719H16.0926C16.3871 12.7754 16.575 13.9789 16.575 14.9844C16.575 15.5582 17.0422 16.0203 17.616 16.0203C18.1899 16.0203 18.657 15.5582 18.657 14.9844C18.657 14.1719 18.5098 12.9379 18.2152 11.5719H20.6578L21.9832 26.3695H4.01172V26.3695Z" fill="white"/>
<defs>
<clipPath id="clip0_1_371">
<rect width="28" height="24.6207" fill="white" transform="translate(96 0.859802)"/>
</clipPath>
</defs>
</svg>
