<svg width="35" height="34" viewBox="0 0 35 34" fill="none" xmlns="http://www.w3.org/2000/svg">
<g clip-path="url(#clip0_58_3511)">
<path d="M17.5874 33.05C26.9762 33.05 34.5874 25.8194 34.5874 16.9C34.5874 7.9806 26.9762 0.75 17.5874 0.75C8.19856 0.75 0.587402 7.9806 0.587402 16.9C0.587402 25.8194 8.19856 33.05 17.5874 33.05Z" fill="#2DAAE1"/>
<path d="M28.4875 10.4759C27.6857 10.8139 26.8244 11.0424 25.9189 11.1451C26.8431 10.6194 27.5511 9.78627 27.8854 8.79473C27.0075 9.29008 26.0467 9.6388 25.0448 9.82575C24.2294 9.0001 23.0667 8.48462 21.7804 8.48462C19.3113 8.48462 17.3089 10.3862 17.3089 12.7331C17.3089 13.0657 17.3483 13.3901 17.4241 13.7016C13.7072 13.5241 10.412 11.8327 8.20635 9.26267C7.8212 9.89035 7.60075 10.6201 7.60075 11.3988C7.60075 12.8726 8.39037 14.1729 9.59018 14.9346C8.87992 14.9137 8.18523 14.7316 7.56421 14.4035V14.4572C7.56421 16.5158 9.10553 18.2324 11.1515 18.6228C10.7757 18.7206 10.3812 18.7717 9.97319 18.7717C9.68468 18.7717 9.40477 18.7458 9.13133 18.6969C9.70044 20.3842 11.3521 21.6125 13.3085 21.6472C11.7779 22.787 9.84931 23.4664 7.75465 23.4664C7.39387 23.4664 7.0373 23.446 6.68726 23.4059C8.6667 24.6117 11.017 25.3156 13.5426 25.3156C21.7682 25.3156 26.2668 18.8418 26.2668 13.2276C26.2668 13.0433 26.2625 12.8604 26.2532 12.6781C27.1297 12.0758 27.8863 11.3301 28.4875 10.4759Z" fill="white"/>
</g>
<defs>
<clipPath id="clip0_58_3511">
<rect width="34" height="32.3" fill="white" transform="translate(0.587402 0.75)"/>
</clipPath>
</defs>
</svg>
