<svg width="49" height="49" viewBox="0 0 49 49" fill="none" xmlns="http://www.w3.org/2000/svg">
<path d="M24.5 49C38.031 49 49 38.0309 49 24.5C49 10.969 38.031 0 24.5 0C10.969 0 0 10.969 0 24.5C0 38.0309 10.969 49 24.5 49Z" fill="white"/>
<path d="M24.5 44.4502C35.6778 44.4502 44.7391 35.5182 44.7391 24.5C44.7391 13.482 35.6778 4.55005 24.5 4.55005C13.3223 4.55005 4.26086 13.482 4.26086 24.5C4.26086 35.5182 13.3223 44.4502 24.5 44.4502Z" fill="white" stroke="#A4C3F0" stroke-width="2"/>
<path d="M17.2352 38.71C16.7736 38.71 16.4043 38.612 16.1274 38.416C15.8575 38.2131 15.6481 37.9575 15.4989 37.6495C15.3569 37.3346 15.2646 36.9881 15.2219 36.6102C15.1793 36.232 15.1581 35.8646 15.1581 35.5075C15.1581 35.0665 15.1829 34.6396 15.2326 34.2266C15.2894 33.8066 15.4031 33.4355 15.5735 33.1134C15.751 32.7845 16.0031 32.522 16.3298 32.326C16.6564 32.13 17.0932 32.032 17.64 32.032C17.8459 32.032 18.0412 32.06 18.2259 32.116C18.4176 32.165 18.5881 32.2455 18.7371 32.3575C18.8863 32.4626 19.0035 32.5991 19.0887 32.767C19.181 32.928 19.2271 33.1171 19.2271 33.3341C19.2271 33.4461 19.1988 33.537 19.1419 33.6071C19.0923 33.677 19.0283 33.733 18.9502 33.775C18.8792 33.8171 18.8011 33.845 18.7159 33.859C18.6306 33.8731 18.5561 33.88 18.4921 33.88C18.3502 33.88 18.2614 33.8275 18.2259 33.7226C18.1975 33.6175 18.1726 33.5054 18.1513 33.3865C18.13 33.2604 18.0838 33.145 18.0128 33.04C17.9418 32.9351 17.7998 32.8825 17.5867 32.8825C17.3666 32.8825 17.1926 32.991 17.0648 33.208C16.944 33.418 16.8517 33.6701 16.7878 33.9641C16.7239 34.251 16.6848 34.5416 16.6706 34.8356C16.6564 35.1224 16.6493 35.3431 16.6493 35.497C16.6493 35.56 16.6529 35.658 16.66 35.791C16.6671 35.9241 16.6777 36.0712 16.6919 36.232C16.7133 36.393 16.7381 36.5612 16.7665 36.736C16.7949 36.9042 16.8304 37.0581 16.8731 37.1982C16.9227 37.338 16.9796 37.4535 17.0435 37.5446C17.1144 37.6355 17.1926 37.681 17.2778 37.681C17.4269 37.681 17.5512 37.6214 17.6506 37.5025C17.7501 37.3764 17.8282 37.2331 17.885 37.0721C17.9418 36.9042 17.9809 36.736 18.0021 36.5681C18.0306 36.393 18.0448 36.2566 18.0448 36.1586C18.0448 36.0815 18.0377 36.0044 18.0235 35.9276C18.0092 35.8505 17.9951 35.7735 17.9809 35.6966C17.6187 35.6966 17.3559 35.6614 17.1926 35.5915C17.0364 35.5216 16.9583 35.3886 16.9583 35.1926C16.9583 35.0806 17.0009 34.9932 17.0861 34.9301C17.1713 34.8671 17.2707 34.8215 17.3843 34.7935C17.4979 34.7585 17.6152 34.7376 17.7359 34.7304C17.8566 34.7166 17.9525 34.7095 18.0235 34.7095C18.3004 34.7095 18.5241 34.7376 18.6946 34.7935C18.8721 34.8496 19.0106 34.937 19.11 35.056C19.2094 35.168 19.2769 35.315 19.3124 35.497C19.3479 35.6791 19.3656 35.8961 19.3656 36.148C19.3656 36.491 19.3266 36.8165 19.2485 37.1245C19.1704 37.4326 19.0461 37.7056 18.8756 37.9435C18.7052 38.1745 18.4851 38.3601 18.2152 38.5C17.9454 38.6401 17.6187 38.71 17.2352 38.71ZM24.0065 38.7188C23.758 38.7188 23.5804 38.6428 23.474 38.4912C23.3674 38.3396 23.3082 38.0742 23.2964 37.6951C23.1898 37.8059 23.0803 37.9226 22.9679 38.045C22.8555 38.1616 22.7312 38.2697 22.5951 38.3689C22.459 38.4678 22.311 38.5497 22.1513 38.6139C21.9974 38.6778 21.8228 38.71 21.6275 38.71C21.379 38.71 21.1541 38.6548 20.9529 38.5437C20.7576 38.4328 20.5889 38.2725 20.4469 38.0624C20.3108 37.8526 20.2043 37.5989 20.1273 37.3012C20.0563 37.0038 20.0208 36.6684 20.0208 36.295C20.0208 35.8517 20.0711 35.4523 20.1717 35.0962C20.2782 34.7346 20.4262 34.4284 20.6156 34.1776C20.8109 33.9209 21.0446 33.7226 21.3169 33.5825C21.5891 33.4426 21.8938 33.3725 22.2311 33.3725C22.8939 33.3725 23.3614 33.6437 23.6338 34.1864C23.6456 33.9646 23.7137 33.7808 23.8379 33.635C23.968 33.4891 24.1247 33.4164 24.3084 33.4164C24.48 33.4164 24.6043 33.4921 24.6811 33.6437C24.764 33.7955 24.8054 34.0433 24.8054 34.3874C24.8054 34.5917 24.7935 34.8133 24.7698 35.0525C24.7462 35.286 24.7197 35.5365 24.69 35.805C24.6663 36.0735 24.6426 36.3592 24.6189 36.6626C24.5954 36.966 24.5836 37.2897 24.5836 37.6339C24.5836 37.6923 24.5864 37.7535 24.5924 37.8174C24.5982 37.8701 24.6043 37.9313 24.6101 38.0012C24.6219 38.0654 24.6368 38.1296 24.6544 38.1938C24.6663 38.2403 24.6781 38.2812 24.69 38.3164C24.7018 38.3454 24.7078 38.3746 24.7078 38.4038C24.7078 38.4853 24.6368 38.5584 24.4947 38.6226C24.3586 38.6866 24.1958 38.7188 24.0065 38.7188ZM21.9737 37.765C22.1157 37.765 22.2607 37.701 22.4087 37.5724C22.5625 37.4386 22.7016 37.2722 22.8259 37.0737C22.956 36.8696 23.0596 36.6451 23.1365 36.4001C23.2194 36.1551 23.2608 35.9159 23.2608 35.6826C23.2608 35.4901 23.2313 35.3003 23.1721 35.1137C23.1188 34.9271 23.0448 34.7608 22.9502 34.615C22.8555 34.4691 22.749 34.3525 22.6306 34.2651C22.5181 34.1717 22.3998 34.125 22.2755 34.125C22.1335 34.125 21.9974 34.1834 21.8672 34.3C21.7429 34.4109 21.6305 34.5625 21.5299 34.7551C21.4352 34.9476 21.3582 35.1721 21.299 35.4289C21.2458 35.6796 21.2192 35.9423 21.2192 36.2163C21.2192 36.4378 21.2369 36.6451 21.2725 36.8374C21.3139 37.024 21.3671 37.1876 21.4323 37.3274C21.4973 37.4616 21.5772 37.5697 21.6719 37.6513C21.7666 37.7273 21.8672 37.765 21.9737 37.765ZM25.6477 35.266C25.6477 35.1891 25.6477 35.07 25.6477 34.909C25.6477 34.741 25.6477 34.5556 25.6477 34.3525C25.6549 34.1496 25.6621 33.9395 25.669 33.7226C25.6762 33.4985 25.6869 33.292 25.7011 33.1031C25.7152 32.9071 25.7329 32.7391 25.7543 32.599C25.7756 32.452 25.804 32.354 25.8395 32.305C25.8964 32.228 25.9637 32.165 26.042 32.116C26.12 32.067 26.2336 32.0426 26.3827 32.0426C26.4609 32.0426 26.539 32.0495 26.6172 32.0635C26.6952 32.0775 26.7698 32.1021 26.8409 32.1371C26.9119 32.1721 26.9686 32.2176 27.0113 32.2735C27.0538 32.3294 27.0752 32.3961 27.0752 32.473C27.0752 32.9561 27.068 33.432 27.0538 33.9011C27.0468 34.3631 27.0431 34.8462 27.0431 35.35C27.0431 35.4342 27.0396 35.5565 27.0327 35.7176C27.0327 35.8715 27.0327 36.0431 27.0327 36.232C27.0396 36.4142 27.0468 36.603 27.0538 36.799C27.068 36.995 27.0893 37.1735 27.1177 37.3346C27.1532 37.4885 27.1994 37.618 27.2563 37.7231C27.313 37.8211 27.384 37.8664 27.4693 37.8595C27.6539 37.8455 27.7995 37.8736 27.9061 37.9435C28.0196 38.0134 28.0765 38.1535 28.0765 38.3636C28.0765 38.4685 28.0552 38.5524 28.0127 38.6155C27.9699 38.6785 27.9168 38.7241 27.8527 38.7521C27.796 38.7871 27.7284 38.808 27.6504 38.8152C27.5793 38.829 27.512 38.8361 27.4479 38.8361C27.1852 38.8361 26.9579 38.7905 26.7663 38.6994C26.5745 38.6155 26.4112 38.4965 26.2763 38.3426C26.1414 38.1885 26.0313 38.0065 25.9461 37.7965C25.8609 37.5865 25.797 37.3555 25.7543 37.1036C25.7046 36.7956 25.6725 36.491 25.6584 36.1901C25.6514 35.8821 25.6477 35.574 25.6477 35.266ZM32.5678 38.7188C32.3193 38.7188 32.1417 38.6428 32.0351 38.4912C31.9287 38.3396 31.8695 38.0742 31.8577 37.6951C31.7511 37.8059 31.6417 37.9226 31.5293 38.045C31.4167 38.1616 31.2924 38.2697 31.1563 38.3689C31.0203 38.4678 30.8723 38.5497 30.7126 38.6139C30.5586 38.6778 30.3839 38.71 30.1889 38.71C29.9402 38.71 29.7154 38.6548 29.5143 38.5437C29.3187 38.4328 29.1501 38.2725 29.0082 38.0624C28.8721 37.8526 28.7656 37.5989 28.6887 37.3012C28.6176 37.0038 28.5821 36.6684 28.5821 36.295C28.5821 35.8517 28.6325 35.4523 28.733 35.0962C28.8394 34.7346 28.9876 34.4284 29.1768 34.1776C29.3721 33.9209 29.6058 33.7226 29.8782 33.5825C30.1503 33.4426 30.455 33.3725 30.7924 33.3725C31.4552 33.3725 31.9227 33.6437 32.1949 34.1864C32.2067 33.9646 32.2747 33.7808 32.3992 33.635C32.5293 33.4891 32.686 33.4164 32.8695 33.4164C33.0411 33.4164 33.1653 33.4921 33.2424 33.6437C33.3253 33.7955 33.3667 34.0433 33.3667 34.3874C33.3667 34.5917 33.3548 34.8133 33.3311 35.0525C33.3075 35.286 33.2808 35.5365 33.2513 35.805C33.2276 36.0735 33.2039 36.3592 33.1802 36.6626C33.1565 36.966 33.1447 37.2897 33.1447 37.6339C33.1447 37.6923 33.1477 37.7535 33.1537 37.8174C33.1595 37.8701 33.1653 37.9313 33.1714 38.0012C33.1832 38.0654 33.1981 38.1296 33.2157 38.1938C33.2276 38.2403 33.2394 38.2812 33.2513 38.3164C33.2631 38.3454 33.2689 38.3746 33.2689 38.4038C33.2689 38.4853 33.1981 38.5584 33.056 38.6226C32.9199 38.6866 32.7571 38.7188 32.5678 38.7188ZM30.5349 37.765C30.677 37.765 30.8219 37.701 30.9699 37.5724C31.1238 37.4386 31.2629 37.2722 31.3872 37.0737C31.5175 36.8696 31.6208 36.6451 31.6979 36.4001C31.7806 36.1551 31.8221 35.9159 31.8221 35.6826C31.8221 35.4901 31.7926 35.3003 31.7334 35.1137C31.68 34.9271 31.6062 34.7608 31.5114 34.615C31.4167 34.4691 31.3103 34.3525 31.1919 34.2651C31.0795 34.1717 30.961 34.125 30.8368 34.125C30.6947 34.125 30.5586 34.1834 30.4285 34.3C30.3043 34.4109 30.1917 34.5625 30.0911 34.7551C29.9964 34.9476 29.9195 35.1721 29.8603 35.4289C29.8071 35.6796 29.7804 35.9423 29.7804 36.2163C29.7804 36.4378 29.7983 36.6451 29.8338 36.8374C29.8751 37.024 29.9283 37.1876 29.9936 37.3274C30.0586 37.4616 30.1385 37.5697 30.2332 37.6513C30.3278 37.7273 30.4285 37.765 30.5349 37.765Z" fill="#77A6F7"/>
<path d="M27.763 22.96H25.548V25.5733L24.4408 24.8266L23.3333 25.5733V22.96H21.1183C20.7122 22.96 20.3799 23.2959 20.3799 23.7067V29.6799C20.3799 30.0905 20.7122 30.4266 21.1183 30.4266H27.763C28.1692 30.4266 28.5013 30.0905 28.5013 29.6799V23.7067C28.5013 23.2959 28.1692 22.96 27.763 22.96Z" fill="#FFCCBC"/>
<path d="M21.1183 29.6799V23.7067C21.1183 23.2959 21.4505 22.96 21.8566 22.96H21.1183C20.7122 22.96 20.3799 23.2959 20.3799 23.7067V29.6799C20.3799 30.0905 20.7122 30.4266 21.1183 30.4266H21.8566C21.4505 30.4266 21.1183 30.0905 21.1183 29.6799Z" fill="white"/>
<path d="M27.763 29.6799V23.7067C27.763 23.2959 27.4307 22.96 27.0248 22.96H27.763C28.1692 22.96 28.5013 23.2959 28.5013 23.7067V29.6799C28.5013 30.0905 28.1692 30.4266 27.763 30.4266H27.0248C27.4307 30.4266 27.763 30.0905 27.763 29.6799Z" fill="#D29C8B"/>
<path d="M25.548 25.5733L24.4408 24.8266L23.3333 25.5733V22.5867H25.548V25.5733Z" fill="#00887A"/>
<path d="M17.0575 16.6132C17.0575 17.4346 17.722 18.1065 18.5342 18.1065C19.3463 18.1065 20.0108 17.4346 20.0108 16.6132C20.0108 13.6639 21.7458 8.77319 24.4406 8.77319C20.1584 8.77319 17.0575 12.2826 17.0575 16.6132Z" fill="#77A6F7"/>
<path d="M18.165 16.6132C18.165 13.1412 20.1584 10.2292 23.1117 9.18392C23.5179 8.92259 23.9608 8.77319 24.4406 8.77319C20.1584 8.77319 17.0575 12.2825 17.0575 16.6132C17.0575 17.4346 17.722 18.1065 18.5342 18.1065C18.7187 18.1065 18.9033 18.0692 19.0879 17.9946C18.5342 17.7706 18.165 17.2479 18.165 16.6132Z" fill="#D3E3FC"/>
<path d="M20.0108 16.6132C20.0108 17.4346 20.6753 18.1065 21.4874 18.1065C22.2995 18.1065 22.964 17.4346 22.964 16.6132C22.964 13.8505 23.5177 8.77319 24.4405 8.77319C21.7458 8.77319 20.0108 13.6639 20.0108 16.6132Z" fill="#77A6F7"/>
<path d="M24.4408 8.77319C23.5179 8.77319 22.9641 13.8505 22.9641 16.6132C22.9641 17.4346 23.6285 18.1065 24.4408 18.1065C25.2529 18.1065 25.9173 17.4346 25.9173 16.6132C25.9173 13.8506 25.3634 8.77319 24.4408 8.77319Z" fill="#77A6F7"/>
<path d="M24.4408 8.77319C25.3634 8.77319 25.9173 13.8505 25.9173 16.6132C25.9173 17.4346 26.5817 18.1065 27.3938 18.1065C28.2059 18.1065 28.8705 17.4346 28.8705 16.6132C28.8705 13.6639 27.1355 8.77319 24.4408 8.77319Z" fill="#77A6F7"/>
<path d="M24.4408 8.77319C27.1355 8.77319 28.8705 13.6639 28.8705 16.6132C28.8705 17.4346 29.5352 18.1065 30.3473 18.1065C31.1594 18.1065 31.8238 17.4346 31.8238 16.6132C31.8238 12.2826 28.7228 8.77319 24.4408 8.77319Z" fill="#77A6F7"/>
<path d="M24.4408 8.77319C24.9206 8.77319 25.3634 8.92259 25.7696 9.18392C28.7228 10.2292 30.7163 13.1412 30.7163 16.6132C30.7163 17.2479 30.3473 17.7705 29.7934 17.9946C29.978 18.0692 30.1626 18.1065 30.3473 18.1065C31.1594 18.1065 31.8238 17.4346 31.8238 16.6132C31.8238 12.2826 28.7228 8.77319 24.4408 8.77319Z" fill="#D3E3FC"/>
<path d="M25.548 25.9468C25.4742 25.9468 25.4006 25.9093 25.3267 25.8721L24.4408 25.2749L23.5546 25.8721C23.4441 25.9468 23.2964 25.9468 23.1855 25.8721C23.0379 25.8348 22.9641 25.7228 22.9641 25.5735V22.5867C22.9641 22.3627 23.1117 22.2134 23.3333 22.2134H25.548C25.7696 22.2134 25.9173 22.3627 25.9173 22.5867V25.5735C25.9173 25.7228 25.8434 25.8348 25.7327 25.9093C25.6588 25.9468 25.6219 25.9468 25.548 25.9468ZM24.4408 24.4534C24.5146 24.4534 24.5882 24.4906 24.6621 24.5281L25.179 24.9013V22.9601H23.7025V24.864L24.2192 24.4909C24.2931 24.4909 24.3667 24.4534 24.4408 24.4534Z" fill="black"/>
<path d="M27.763 30.8H21.1183C20.4907 30.8 20.0108 30.3146 20.0108 29.6799V23.7067C20.0108 23.0718 20.4907 22.5867 21.1183 22.5867H23.3333C23.5546 22.5867 23.7023 22.7359 23.7023 22.9599V24.8639L24.2192 24.4907C24.33 24.416 24.5146 24.416 24.6252 24.4907L25.1421 24.8639V22.9599C25.1421 22.7359 25.2898 22.5867 25.5113 22.5867H27.7261C28.3538 22.5867 28.8336 23.0718 28.8336 23.7067V29.6799C28.8705 30.3146 28.3907 30.8 27.763 30.8ZM21.1183 23.3332C20.8968 23.3332 20.7491 23.4827 20.7491 23.7065V29.6799C20.7491 29.904 20.8968 30.0533 21.1183 30.0533H27.763C27.9846 30.0533 28.1323 29.904 28.1323 29.6799V23.7067C28.1323 23.4827 27.9846 23.3334 27.763 23.3334H25.9173V25.5733C25.9173 25.7226 25.8434 25.8347 25.7327 25.9092C25.6219 25.984 25.4744 25.984 25.3634 25.9092L24.4408 25.2747L23.5546 25.8719C23.4441 25.9467 23.2964 25.9467 23.1856 25.8719C23.0379 25.8347 22.964 25.7226 22.964 25.5733V23.3332H21.1183Z" fill="black"/>
<path d="M18.5342 18.4799C17.5005 18.4799 16.6884 17.6586 16.6884 16.6132C16.6884 11.9466 20.0108 8.3999 24.4408 8.3999C24.6621 8.3999 24.8098 8.54923 24.8098 8.77325C24.8098 8.9972 24.6621 9.14652 24.4408 9.14652C22.115 9.14652 20.3799 13.6639 20.3799 16.6132C20.3799 17.6586 19.5678 18.4799 18.5342 18.4799ZM22.1519 9.51989C19.3463 10.4906 17.4268 13.2159 17.4268 16.6132C17.4268 17.2479 17.9066 17.7332 18.5342 17.7332C19.1618 17.7332 19.6416 17.2479 19.6416 16.6132C19.6416 14.2986 20.6015 11.1626 22.1519 9.51989Z" fill="black"/>
<path d="M21.4874 18.4799C20.4538 18.4799 19.6416 17.6586 19.6416 16.6132C19.6416 13.3279 21.5612 8.3999 24.4408 8.3999C24.6621 8.3999 24.8098 8.54923 24.8098 8.77325C24.8098 8.95988 24.6621 9.14652 24.4775 9.14652C23.9238 9.51989 23.3333 13.4399 23.3333 16.6132C23.3333 17.6586 22.5211 18.4799 21.4874 18.4799ZM23.5179 9.37059C21.672 10.3412 20.3799 14.0746 20.3799 16.6132C20.3799 17.2479 20.8598 17.7332 21.4874 17.7332C22.115 17.7332 22.5949 17.2479 22.5949 16.6132C22.5949 16.5386 22.6687 11.5359 23.5179 9.37059Z" fill="black"/>
<path d="M24.4408 18.4799C23.4071 18.4799 22.5949 17.6586 22.5949 16.6132C22.5949 16.5386 22.7056 8.3999 24.4408 8.3999C26.1757 8.3999 26.2865 16.5386 26.2865 16.6132C26.2865 17.6586 25.4742 18.4799 24.4408 18.4799ZM24.4408 9.1839C23.9238 9.66921 23.3333 13.5146 23.3333 16.6132C23.3333 17.2479 23.8131 17.7332 24.4408 17.7332C25.0683 17.7332 25.548 17.2479 25.548 16.6132C25.548 13.5146 24.9575 9.63192 24.4408 9.1839Z" fill="black"/>
<path d="M27.394 18.4799C26.3604 18.4799 25.548 17.6586 25.548 16.6132C25.548 13.4399 24.9575 9.51989 24.4039 9.14652C24.2192 9.14652 24.0715 8.95988 24.0715 8.77325C24.0715 8.54923 24.2192 8.3999 24.4408 8.3999C27.3202 8.3999 29.2398 13.3279 29.2398 16.6132C29.2398 17.6586 28.4277 18.4799 27.394 18.4799ZM25.3634 9.37059C26.2127 11.5359 26.2865 16.5386 26.2865 16.6132C26.2865 17.2479 26.7663 17.7332 27.3938 17.7332C28.0215 17.7332 28.5013 17.2479 28.5013 16.6132C28.5013 14.0746 27.2094 10.3412 25.3634 9.37059Z" fill="black"/>
<path d="M30.3473 18.4799C29.3136 18.4799 28.5013 17.6586 28.5013 16.6132C28.5013 13.6639 26.7663 9.14652 24.4405 9.14652C24.2192 9.14652 24.0715 8.9972 24.0715 8.77325C24.0715 8.54923 24.2192 8.3999 24.4405 8.3999C28.8705 8.3999 32.193 11.9466 32.193 16.6132C32.193 17.6586 31.3807 18.4799 30.3473 18.4799ZM26.7294 9.51989C28.28 11.1626 29.2398 14.2986 29.2398 16.6132C29.2398 17.2479 29.7195 17.7332 30.3473 17.7332C30.9747 17.7332 31.4547 17.2479 31.4547 16.6132C31.4545 13.2159 29.5349 10.4906 26.7294 9.51989Z" fill="black"/>
<path d="M24.4408 22.96C24.3667 22.96 24.2931 22.9228 24.2192 22.8853L18.3127 18.4054C18.165 18.2934 18.1281 18.0321 18.2389 17.8827C18.3496 17.7334 18.608 17.696 18.7557 17.8081L24.6621 22.288C24.8098 22.4 24.8467 22.6613 24.7359 22.8107C24.6621 22.9227 24.5513 22.96 24.4408 22.96Z" fill="black"/>
<path d="M24.4408 22.96C24.33 22.96 24.2192 22.9227 24.1454 22.8107C24.0346 22.6614 24.0715 22.4001 24.2192 22.288L30.1257 17.808C30.2734 17.696 30.5317 17.7334 30.6424 17.8828C30.7532 18.032 30.7163 18.2934 30.5686 18.4054L24.6621 22.8854C24.5882 22.9227 24.5146 22.96 24.4408 22.96Z" fill="black"/>
<path d="M27.394 29.6801H26.6555C26.434 29.6801 26.2865 29.5308 26.2865 29.3067C26.2865 29.0829 26.434 28.9333 26.6555 28.9333H27.394C27.6156 28.9333 27.763 29.0829 27.763 29.3067C27.763 29.5308 27.6156 29.6801 27.394 29.6801Z" fill="black"/>
<path d="M27.394 28.5597H25.9173C25.6957 28.5597 25.5483 28.4107 25.5483 28.1866C25.5483 27.9625 25.6957 27.8132 25.9173 27.8132H27.394C27.6153 27.8132 27.763 27.9625 27.763 28.1866C27.763 28.4107 27.6153 28.5597 27.394 28.5597Z" fill="black"/>
</svg>
