<svg width="35" height="32" viewBox="0 0 35 32" fill="none" xmlns="http://www.w3.org/2000/svg">
<path d="M24.4586 0.0849609H10.7162C5.13115 0.0849609 0.587402 4.33606 0.587402 9.56138V22.4187C0.587402 27.644 5.13115 31.8951 10.7162 31.8951H24.4586C30.0437 31.8951 34.5874 27.644 34.5874 22.4187V9.56138C34.5873 4.33606 30.0436 0.0849609 24.4586 0.0849609ZM31.167 22.4187C31.167 25.885 28.1635 28.695 24.4586 28.695H10.7162C7.01128 28.695 4.0078 25.885 4.0078 22.4187V9.56138C4.0078 6.09504 7.01128 3.28506 10.7162 3.28506H24.4586C28.1635 3.28506 31.167 6.09504 31.167 9.56138V22.4187Z" fill="url(#paint0_linear_58_3507)"/>
<path d="M17.5873 7.76282C12.7385 7.76282 8.7937 11.4536 8.7937 15.9901C8.7937 20.5265 12.7385 24.2173 17.5873 24.2173C22.4361 24.2173 26.3809 20.5266 26.3809 15.9901C26.3809 11.4535 22.4361 7.76282 17.5873 7.76282ZM17.5873 21.0173C14.6197 21.0173 12.2141 18.7666 12.2141 15.9901C12.2141 13.2137 14.6198 10.9629 17.5873 10.9629C20.5549 10.9629 22.9605 13.2137 22.9605 15.9901C22.9605 18.7665 20.5548 21.0173 17.5873 21.0173Z" fill="url(#paint1_linear_58_3507)"/>
<path d="M26.3976 9.79591C27.5613 9.79591 28.5047 8.91332 28.5047 7.82459C28.5047 6.73586 27.5613 5.85327 26.3976 5.85327C25.2339 5.85327 24.2905 6.73586 24.2905 7.82459C24.2905 8.91332 25.2339 9.79591 26.3976 9.79591Z" fill="url(#paint2_linear_58_3507)"/>
<defs>
<linearGradient id="paint0_linear_58_3507" x1="17.5874" y1="31.8024" x2="17.5874" y2="0.332024" gradientUnits="userSpaceOnUse">
<stop stop-color="#E09B3D"/>
<stop offset="0.3" stop-color="#C74C4D"/>
<stop offset="0.6" stop-color="#C21975"/>
<stop offset="1" stop-color="#7024C4"/>
</linearGradient>
<linearGradient id="paint1_linear_58_3507" x1="17.5873" y1="31.8026" x2="17.5873" y2="0.331992" gradientUnits="userSpaceOnUse">
<stop stop-color="#E09B3D"/>
<stop offset="0.3" stop-color="#C74C4D"/>
<stop offset="0.6" stop-color="#C21975"/>
<stop offset="1" stop-color="#7024C4"/>
</linearGradient>
<linearGradient id="paint2_linear_58_3507" x1="26.3976" y1="31.8019" x2="26.3976" y2="0.332077" gradientUnits="userSpaceOnUse">
<stop stop-color="#E09B3D"/>
<stop offset="0.3" stop-color="#C74C4D"/>
<stop offset="0.6" stop-color="#C21975"/>
<stop offset="1" stop-color="#7024C4"/>
</linearGradient>
</defs>
</svg>
