<svg width="18" height="31" viewBox="0 0 18 31" fill="none" xmlns="http://www.w3.org/2000/svg">
<path d="M0.548449 16.5143H4.27537V30.4471C4.27537 30.7222 4.52081 30.9451 4.82375 30.9451H11.1429C11.4459 30.9451 11.6913 30.7222 11.6913 30.4471V16.58H15.9758C16.2543 16.58 16.4887 16.3902 16.5206 16.1389L17.1713 11.0096C17.1891 10.8684 17.1399 10.7271 17.0359 10.6212C16.9319 10.5153 16.7829 10.4546 16.6266 10.4546H11.6916V7.23924C11.6916 6.27001 12.2662 5.77849 13.3999 5.77849C13.5615 5.77849 16.6266 5.77849 16.6266 5.77849C16.9296 5.77849 17.175 5.55549 17.175 5.28051V0.572208C17.175 0.297111 16.9296 0.0742351 16.6266 0.0742351H12.1797C12.1484 0.0728481 12.0787 0.0705566 11.976 0.0705566C11.2045 0.0705566 8.52252 0.208105 6.40396 1.9779C4.05663 3.93916 4.38295 6.28737 4.46091 6.69453V10.4545H0.548383C0.245438 10.4545 0 10.6773 0 10.9524V16.0163C6.64063e-05 16.2913 0.245504 16.5143 0.548449 16.5143Z" fill="#385C8E"/>
</svg>
