<svg width="85" height="138" viewBox="0 0 85 138" fill="none" xmlns="http://www.w3.org/2000/svg">
<path d="M66.6349 136.768H19.542L19.9445 124.928H65.9305L66.6349 136.768Z" fill="#77A6F7"/>
<path d="M66.0618 129.151C66.0618 129.151 66.4643 135.112 66.4643 136.519M19.9445 129.151C19.9445 129.151 19.542 135.112 19.542 136.519L19.9445 129.151Z" stroke="#1A1919" stroke-width="1.7" stroke-linecap="round" stroke-linejoin="round"/>
<path d="M77.7343 85.8503C77.7343 85.8503 84.4762 97.938 83.9731 101.084C83.47 104.23 78.8412 118.885 78.8412 118.885C78.8412 118.885 80.5518 124.68 79.8475 125.673C79.1431 126.667 75.4932 130.282 73.4742 130.365C71.4617 130.448 69.1803 129.841 67.3191 129.648C65.0377 129.41 63.7473 129.523 63.5461 129.151L63.6459 129.289C63.6459 129.289 61.9022 129.427 61.9352 128.847C61.9683 128.268 63.5453 127.578 63.5453 127.578L68.9799 126.584L70.8918 92.6393L77.7343 85.8503Z" fill="#F8D2B5"/>
<path d="M12.0619 89.0931C12.0619 89.0931 14.4093 92.1849 14.2757 93.7852L18.3667 88.3209L18.5994 90.7609C19.2096 96.0967 20.0967 103.294 20.6481 105.21H64.521C64.8141 104.194 66.8354 88.7342 66.8354 88.7342L69.7544 92.9705C69.7544 92.9705 76.5969 82.1247 75.9932 77.5711C75.3894 73.0175 71.8836 69.4932 69.6538 68.7951C65.4275 67.4704 52.7422 66.2934 52.7422 66.2934C50.6145 63.6944 48.1778 62.6711 48.1778 62.6711L36.8747 62.4711C36.8747 62.4711 33.9581 64.2024 32.0132 66.5206C32.0132 66.5206 20.6489 67.5532 17.127 68.2155L12.9007 70.2026L12.0619 89.0931Z" fill="#77A6F7"/>
<path d="M18.3345 88.748L14.1082 94.1296C13.4038 92.2253 5.35371 83.7805 5.35371 83.7805C5.95747 81.9591 10.7875 73.183 11.7938 71.61C12.8 70.0369 14.41 69.0434 17.1269 68.2155C18.5269 67.7883 21.73 67.328 24.372 67.0564C24.372 67.0564 21.2526 69.7058 18.1332 85.7675L18.3345 88.748Z" fill="#00887A"/>
<path d="M66.6349 88.748L70.8612 94.1296C71.5656 92.2253 79.6157 83.7805 79.6157 83.7805C79.0119 81.9591 74.1819 73.183 73.1756 71.61C72.1694 70.0369 70.5594 69.0434 67.8425 68.2155C66.4433 67.7883 63.2402 67.328 60.5974 67.0564C60.5974 67.0564 63.7168 69.7058 66.8362 85.7675L66.6349 88.748Z" fill="#00887A"/>
<path d="M7.26563 85.8503C7.26563 85.8503 0.523692 97.938 1.02682 101.084C1.52995 104.23 6.15875 118.885 6.15875 118.885C6.15875 118.885 4.4481 124.68 5.15249 125.673C5.85687 126.667 9.50677 130.282 11.5257 130.365C13.5382 130.448 15.8196 129.841 17.6808 129.648C19.9622 129.41 21.2526 129.523 21.4539 129.151L21.3541 129.289C21.3541 129.289 23.0977 129.427 23.0647 128.847C23.0317 128.268 21.4547 127.578 21.4547 127.578L16.0201 126.584L13.7395 93.2738L7.26563 85.8503Z" fill="#F8D2B5"/>
<path d="M71.8345 93.0533C71.8345 93.0533 76.7322 86.5955 77.604 86.2643L79.1641 88.8004C76.2105 91.2312 74.0459 97.8658 74.0459 97.8658L71.8345 93.0533Z" fill="#DB9D88"/>
<path d="M13.1357 93.0533C13.1357 93.0533 8.23799 86.5955 7.36617 86.2643L5.68129 88.7308C6.7608 89.6608 9.75784 92.2472 11.8211 96.5709L13.1357 93.0533Z" fill="#DB9D88"/>
<path d="M37.575 63.6507L37.7545 62.2413V60.6411L47.1819 60.2841V62.2413L47.3518 63.566L47.8758 64.07C51.0419 66.1988 42.4686 69.5774 42.4686 69.5774C42.4686 69.5774 33.8945 66.1988 37.0614 64.07L37.575 63.6507Z" fill="#F8D2B5"/>
<path d="M37.9501 60.6344L37.5524 65.5291C37.5524 65.5291 44.1398 65.4748 46.868 63.0341L47.1819 60.9576L37.9501 60.6344Z" fill="#DB9D88"/>
<path d="M40.2702 69.7336H44.6301V82.4837H40.2702V69.7336Z" fill="#00887A"/>
<path d="M44.6301 69.7336V82.4837H40.2702V69.7336" stroke="#1A1919" stroke-width="1.7" stroke-linecap="round" stroke-linejoin="round"/>
<path d="M37.0614 64.07C33.8945 66.1988 42.6023 69.5774 42.6023 69.5774C42.6023 69.5774 40.2388 74.9715 36.5679 75.2728C34.6907 75.4278 32.1919 71.2504 32.1919 66.5743C32.1919 66.5743 35.2574 63.26 35.9054 62.8964C36.5527 62.5334 37.6837 62.1929 37.889 62.2413C38.095 62.2903 37.8213 63.8137 37.8213 63.8137L37.0614 64.07Z" fill="#00887A"/>
<path d="M47.8759 64.0699C51.042 66.1987 42.335 69.5773 42.335 69.5773C42.335 69.5773 44.6977 74.9714 48.3694 75.2728C50.2466 75.4277 52.7454 71.2504 52.7454 66.5742C52.7454 66.5742 51.7987 65.0508 51.3286 64.5912C50.8568 64.1315 48.825 62.4598 48.3549 62.3392C47.8839 62.218 46.8382 61.9511 46.7779 62.2412C46.7199 62.532 46.9147 63.9269 47.0033 63.9997C47.091 64.0732 47.9137 63.9858 47.9137 63.9858" fill="#00887A"/>
<path d="M68.7988 33.4281C69.2488 31.449 69.5676 29.6329 69.7713 27.9592C69.5475 23.6705 55.1105 18.2175 41.0615 18.4433C27.7781 18.6573 14.8231 24.356 15.1024 27.1385C15.3544 29.6441 15.1097 29.6415 16.3075 33.4241L16.3921 35.4317L68.7014 35.3515L68.7988 33.4281Z" fill="#564137"/>
<path d="M16.9878 26.7523C16.9878 26.7523 16.1127 29.3401 17.3734 33.5055L16.3075 33.4241C16.3075 33.4241 14.4351 29.0149 14.9366 27.7313L16.9878 26.7523Z" fill="#997B6F"/>
<path d="M16.3074 33.4241C16.3074 33.4241 15.6264 31.7438 15.0983 29.2057C14.9832 28.6573 15.2247 28.083 15.1337 27.4624C15.0162 26.6676 30.5963 21.0099 38.9981 18.1949C38.9981 18.1949 69.7172 26.9703 70.0103 27.8426C69.7591 29.5441 69.3638 31.3987 68.7987 33.4281" stroke="#1A1919" stroke-width="1.7" stroke-linecap="round" stroke-linejoin="round"/>
<path d="M47.1801 65.3868L46.7776 62.2413M37.8211 63.8137C32.9911 65.9663 42.3831 69.5774 42.3831 69.5774C42.3831 69.5774 40.2386 74.9715 36.5677 75.2729C34.6905 75.4279 32.1917 71.2505 32.1917 66.5744L37.8211 63.8137ZM47.1455 63.7859C51.2712 66.2147 42.5095 69.5774 42.5095 69.5774C42.5095 69.5774 44.6975 74.9715 48.3691 75.2729C50.2464 75.4279 52.7452 71.2505 52.7452 66.5744L47.1455 63.7859ZM37.6875 65.3868L38.09 62.2413L37.6875 65.3868Z" stroke="#1A1919" stroke-width="1.7" stroke-linecap="round" stroke-linejoin="round"/>
<path d="M17.9312 84.6774C17.9312 84.6774 19.7424 102.064 20.6481 105.21M37.4526 62.13C37.4526 62.13 33.9967 63.6759 32.0131 66.5207C32.0131 66.5207 20.6835 67.1313 17.1269 68.2156C14.41 69.0435 12.8 70.037 11.7938 71.6101C10.7875 73.1831 5.95747 81.9591 5.35371 83.7806C5.35371 83.7806 13.4038 92.2254 14.1082 94.1296L18.3345 88.7481L37.4526 62.13ZM67.2379 84.6774C67.2379 84.6774 65.4266 102.064 64.521 105.21L67.2379 84.6774Z" stroke="#1A1919" stroke-width="1.7" stroke-linecap="round" stroke-linejoin="round"/>
<path d="M62.1333 82.1949V91.3207C62.1333 92.7659 60.6947 93.9488 58.9382 93.9488H51.5732C49.8175 93.9488 48.3789 92.7659 48.3789 91.3207V82.1949H62.1333Z" stroke="#1A1919" stroke-width="1.7" stroke-linecap="round" stroke-linejoin="round"/>
<path d="M18.931 34.9576C18.931 34.9576 13.9729 31.6869 12.1109 36.8161C9.97204 42.7076 16.9498 49.4992 21.3774 49.9132" fill="#F8D2B5"/>
<path d="M18.931 34.9576C18.931 34.9576 13.9729 31.6869 12.1109 36.8161C9.97204 42.7076 16.9498 49.4992 21.3774 49.9132" stroke="#1A1919" stroke-width="1.7" stroke-linecap="round" stroke-linejoin="round"/>
<path d="M14.8415 42.4088C15.8598 44.3156 17.7927 45.4615 19.1555 44.9687C20.52 44.4746 20.7986 42.5293 19.7778 40.6211C18.7595 38.7142 16.8267 37.5677 15.4638 38.0618C14.0993 38.5546 13.8224 40.5006 14.8415 42.4088Z" fill="#DB9D88"/>
<path d="M14.7611 36.9854C14.7611 36.9854 17.3942 36.0337 19.4341 39.7308" stroke="#1A1919" stroke-width="1.7" stroke-linecap="round" stroke-linejoin="round"/>
<path d="M65.875 34.4772C65.875 34.4772 70.7316 31.1066 72.749 36.1953C75.065 42.0418 68.2949 48.9739 63.881 49.4786" fill="#F8D2B5"/>
<path d="M65.875 34.4772C65.875 34.4772 70.7316 31.1066 72.749 36.1953C75.065 42.0418 68.2949 48.9739 63.881 49.4786" stroke="#1A1919" stroke-width="1.7" stroke-linecap="round" stroke-linejoin="round"/>
<path d="M70.1874 41.8424C69.227 43.7698 67.3304 44.9554 65.9523 44.4904C64.5733 44.0235 64.2368 42.0848 65.1988 40.1561C66.16 38.2287 68.0574 37.0438 69.4347 37.51C70.8137 37.975 71.1494 39.9137 70.1874 41.8424Z" fill="#DB9D88"/>
<path d="M70.1045 36.4199C70.1045 36.4199 67.4423 35.5218 65.5168 39.2594" stroke="#1A1919" stroke-width="1.7" stroke-linecap="round" stroke-linejoin="round"/>
<path d="M66.7758 32.2504C66.5633 36.7206 65.5554 46.3079 62.3265 52.3697C59.1661 58.3036 52.1601 60.9788 44.8144 62.5306C42.4332 62.94 40.1856 62.5306 40.1856 62.5306C32.8399 60.9788 25.3083 58.0863 22.6735 52.3697C19.8206 46.1801 18.4367 36.7206 18.2242 32.2504C19.6282 27.575 22.0569 23.8255 24.0493 21.3172L24.8575 21.294C27.1188 21.1821 29.3148 20.6456 31.3169 19.923L31.9013 20.5767C41.3601 20.9079 50.2482 16.3821 53.1664 13.1532C53.1664 13.1532 54.3417 21.1834 64.0348 25.3787L64.5661 25.378C65.4154 27.1412 66.2107 29.1421 66.775 31.29L66.7758 32.2504Z" fill="#F8D2B5"/>
<path d="M28.827 5.78137C28.827 5.78137 35.3331 9.31429 43.2873 9.52955C43.2873 9.52955 46.1886 10.321 40.3853 10.5416C34.5812 10.7642 28.4599 10.233 24.7794 8.76587L28.827 5.78137Z" fill="#B7A293"/>
<path d="M27.3055 17.7883C27.3055 17.7883 20.9001 23.3368 18.2242 32.2505C18.4367 36.7207 19.8206 46.1802 22.6735 52.3698C25.3083 58.0864 35.3669 62.5307 42.5 62.5307C49.242 62.5307 59.1661 58.3037 62.3265 52.3698C65.5554 46.308 66.5633 36.7207 66.7758 32.2505" stroke="#1A1919" stroke-width="1.7" stroke-linecap="round" stroke-linejoin="round"/>
<path d="M41.773 39.8833C41.773 39.8833 39.5271 42.1942 39.4699 43.0261C39.4144 43.856 41.3166 45.2429 41.3166 45.2429M40.6211 37.3412C40.6211 37.3412 41.1773 39.0818 40.8062 40.8748L40.6211 37.3412Z" stroke="#1A1919" stroke-width="1.7" stroke-linecap="round" stroke-linejoin="round"/>
<path d="M32.7151 43.3701C32.7151 44.3471 30.8177 45.1386 28.4784 45.1386C26.139 45.1386 24.24 44.3471 24.24 43.3701C24.24 42.3939 26.139 41.603 28.4784 41.603C30.8177 41.603 32.7151 42.3939 32.7151 43.3701Z" fill="#EB9294"/>
<path d="M52.1281 43.3701C52.1281 44.3471 54.0255 45.1386 56.3649 45.1386C58.7042 45.1386 60.6024 44.3471 60.6024 43.3701C60.6024 42.3939 58.7042 41.603 56.3649 41.603C54.0255 41.603 52.1281 42.3939 52.1281 43.3701Z" fill="#EB9294"/>
<path d="M36.9785 35.5548C36.9785 38.4559 34.7269 40.8072 31.9496 40.8072C29.1691 40.8072 26.9191 38.4559 26.9191 35.5548C26.9191 32.6518 29.1691 30.2998 31.9496 30.2998C34.7269 30.2998 36.9785 32.6518 36.9785 35.5548Z" fill="#FFFFFE"/>
<path d="M48.0215 35.5548C48.0215 38.4559 50.2731 40.8072 53.0512 40.8072C55.8309 40.8072 58.0809 38.4559 58.0809 35.5548C58.0809 32.6518 55.8309 30.2998 53.0512 30.2998C50.2731 30.2998 48.0215 32.6518 48.0215 35.5548Z" fill="#FFFFFE"/>
<path d="M26.8129 34.5747C26.8129 34.5747 27.3474 31.3683 30.9868 30.4774C35.2437 29.4356 36.3353 32.9725 36.3353 32.9725C36.3353 32.9725 34.1183 31.6153 31.4771 32.1697C28.9856 32.6916 26.8129 34.5747 26.8129 34.5747Z" fill="#D8E9F1"/>
<path d="M58.188 34.5747C58.188 34.5747 57.6527 31.3683 54.0141 30.4774C49.758 29.4356 48.6648 32.9725 48.6648 32.9725C48.6648 32.9725 50.8826 31.6153 53.523 32.1697C56.0161 32.6916 58.188 34.5747 58.188 34.5747Z" fill="#D8E9F1"/>
<path d="M48.8522 35.5091C48.8522 37.4511 50.1362 39.0282 51.7189 39.0282C53.3007 39.0282 54.5855 37.4511 54.5855 35.5091C54.5855 33.5658 53.3007 31.9915 51.7189 31.9915C50.1362 31.9915 48.8522 33.5658 48.8522 35.5091Z" fill="#1A1919"/>
<path d="M48.6648 32.9725C48.6648 32.9725 49.758 29.4356 54.0141 30.4774C57.6527 31.3683 58.188 34.5747 58.188 34.5747" stroke="#1A1919" stroke-width="1.7" stroke-linecap="round" stroke-linejoin="round"/>
<path d="M37.9348 27.5194C37.6756 27.7552 36.2733 26.8505 34.4934 26.6551C33.6111 26.5398 32.6588 26.5656 31.8449 26.6551C31.0206 26.7306 30.4829 26.9015 30.1593 27.0094C29.5442 27.2167 28.9107 27.5804 28.3995 27.8532C27.8835 28.1215 27.4512 28.3096 27.0624 28.0672C26.6816 27.8314 26.8362 27.3525 27.3522 26.8769C27.861 26.3981 28.7102 25.9695 29.5008 25.7053C29.6996 25.6404 29.9902 25.545 30.3686 25.4655C30.7429 25.3801 31.2195 25.3257 31.6743 25.2959C32.6121 25.2317 33.7568 25.2648 34.8058 25.5132C35.8579 25.7556 36.7579 26.2113 37.2924 26.6339C37.8334 27.0564 38.0572 27.4101 37.9348 27.5194Z" fill="#1A1919"/>
<path d="M47.2004 27.5194C47.0773 27.4095 47.3019 27.0564 47.8428 26.6332C48.3774 26.2113 49.2774 25.7556 50.3295 25.5132C51.3776 25.2648 52.5232 25.2317 53.461 25.2959C53.9158 25.3257 54.3924 25.3801 54.7667 25.4655C55.1451 25.545 55.4357 25.6404 55.6345 25.7053C56.425 25.9695 57.2743 26.3974 57.7831 26.8763C58.2999 27.3525 58.4536 27.8307 58.0729 28.0672C57.684 28.3096 57.2518 28.1215 56.7366 27.8532C56.2254 27.5804 55.5918 27.2167 54.9752 27.0094C54.6524 26.9015 54.1155 26.7306 53.2903 26.6544C52.4765 26.5656 51.5241 26.5398 50.6418 26.6544C48.8612 26.8505 47.4589 27.7552 47.2004 27.5194Z" fill="#1A1919"/>
<path d="M59.7666 18.1406C59.7666 18.1406 65.4024 24.8058 67.0125 33.2506M31.9013 20.5767C41.3601 20.9079 50.2482 16.3821 53.1663 13.1532C53.1663 13.1532 54.3416 21.1834 64.0347 25.3787L31.9013 20.5767ZM40.6895 14.6706C40.6895 14.6706 33.2094 20.8801 24.8574 21.294L40.6895 14.6706Z" stroke="#1A1919" stroke-width="1.7" stroke-linecap="round" stroke-linejoin="round"/>
<path d="M36.1477 35.5091C36.1477 37.4511 34.8645 39.0282 33.2811 39.0282C31.7 39.0282 30.416 37.4511 30.416 35.5091C30.416 33.5658 31.7 31.9915 33.2811 31.9915C34.8645 31.9915 36.1477 33.5658 36.1477 35.5091Z" fill="#1A1919"/>
<path d="M36.0101 34.2507C36.0101 34.7071 35.6172 35.0773 35.1318 35.0773C34.648 35.0773 34.2543 34.7071 34.2543 34.2507C34.2543 33.7917 34.648 33.4202 35.1318 33.4202C35.6172 33.4202 36.0101 33.7917 36.0101 34.2507Z" fill="#FFFFFE"/>
<path d="M54.431 34.2507C54.431 34.7071 54.0382 35.0773 53.552 35.0773C53.0682 35.0773 52.6745 34.7071 52.6745 34.2507C52.6745 33.7917 53.0682 33.4202 53.552 33.4202C54.0382 33.4202 54.431 33.7917 54.431 34.2507Z" fill="#FFFFFE"/>
<path d="M36.3353 32.9725C36.3353 32.9725 35.2437 29.4356 30.9868 30.4774C27.3474 31.3683 26.8129 34.5747 26.8129 34.5747" stroke="#1A1919" stroke-width="1.7" stroke-linecap="round" stroke-linejoin="round"/>
<path d="M14.8392 29.5375C14.8392 28.5241 20.0057 24.6255 42.4477 24.6255C64.8929 24.6255 70.0619 28.5241 70.0619 29.5375L68.0397 19.0241L20.2939 17.3716C20.2939 17.3716 16.8332 19.1427 16.545 20.4395C16.2576 21.7404 14.8392 29.5375 14.8392 29.5375Z" fill="#77A6F7"/>
<path d="M14.8392 29.5375C14.8392 28.5241 20.0057 24.6255 42.4477 24.6255C64.8929 24.6255 70.0619 28.5241 70.0619 29.5375L68.0397 19.0241L20.2939 17.3716C20.2939 17.3716 16.8332 19.1427 16.545 20.4395C16.2576 21.7404 14.8392 29.5375 14.8392 29.5375Z" stroke="#1A1919" stroke-width="1.7" stroke-linecap="round" stroke-linejoin="round"/>
<path d="M42.4478 1.68018C50.1195 1.68018 60.4574 3.33271 64.7714 8.54533C68.0961 12.5598 70.3533 19.266 70.3533 28.852C70.3533 26.9113 64.0348 19.6574 42.4478 19.6574C19.7699 19.6574 14.5478 26.9113 14.5478 28.852C14.5478 18.2354 16.8067 12.5598 20.1281 8.54533C24.4438 3.33271 34.7817 1.68018 42.4478 1.68018Z" fill="#009D90"/>
<path d="M42.4477 1.68018C50.0389 1.68018 60.4597 3.51287 64.7738 8.85331C68.0984 12.9664 70.0619 18.5433 70.0619 29.16C70.0619 27.22 64.8929 19.6574 42.4477 19.6574C20.0057 19.6574 14.8392 27.22 14.8392 29.16C14.8392 18.5433 16.8042 12.9664 20.1256 8.85331C24.4421 3.51287 34.8621 1.68018 42.4477 1.68018Z" fill="#00887A" stroke="#1A1919" stroke-width="1.7" stroke-linecap="round" stroke-linejoin="round"/>
<path d="M53.7106 13.5618C53.7106 15.7469 48.6527 17.5186 42.4147 17.5186C36.1735 17.5186 31.114 15.7469 31.114 13.5618C31.114 11.3781 36.1735 9.60632 42.4147 9.60632C48.6527 9.60632 53.7106 11.3781 53.7106 13.5618Z" fill="#77A6F7"/>
<path d="M41.9662 49.1329C48.0682 49.1329 51.2077 48.2301 51.2077 48.2301C51.2616 50.3761 50.4051 58.9183 42.2697 58.9183C34.1343 58.9183 33.2786 50.3761 33.3309 48.2301C33.3309 48.2301 35.8635 49.1329 41.9662 49.1329Z" fill="#DC6376"/>
<path d="M42.3768 50.6337C45.5074 50.6337 48.3853 51.3868 50.7014 52.5009C51.1385 50.8881 51.227 48.9567 51.2077 48.2301C51.2077 48.2301 48.0505 48.7865 41.9477 48.7865C35.8449 48.7865 33.3309 48.2301 33.3309 48.2301C33.3132 48.9706 33.4034 50.943 33.8622 52.5903C36.0881 51.3418 39.1608 50.6337 42.3768 50.6337Z" fill="#B35251"/>
<path d="M41.9477 48.7863C48.0505 48.7863 51.2077 48.23 51.2077 48.23C51.2616 50.376 50.4051 58.9182 42.2697 58.9182C34.1343 58.9182 33.2786 50.376 33.3309 48.23C33.3309 48.23 35.8449 48.7863 41.9477 48.7863Z" stroke="#1A1919" stroke-width="1.7" stroke-linecap="round" stroke-linejoin="round"/>
<path d="M76.0229 117.063C76.0229 117.063 73.624 119.099 74.4129 122.859C74.2793 124.184 74.3606 124.929 74.8154 126.088C75.5198 127.385 77.282 127.343 77.063 126.778C76.5599 125.48 76.7611 124.818 76.7949 124.459C76.8287 124.101 77.9018 122.251 77.9018 122.251M7.26563 85.8504C7.26563 85.8504 0.523692 97.9381 1.02682 101.084C1.52995 104.23 6.15874 118.885 6.15874 118.885C6.15874 118.885 4.4481 124.68 5.15248 125.674C5.85687 126.667 9.50677 130.282 11.5257 130.365C13.5382 130.448 15.8196 129.841 17.6808 129.648C19.9622 129.41 21.2526 129.523 21.4539 129.151C21.6551 128.778 20.0958 127.661 18.3345 127.536L7.26563 85.8504ZM21.4547 127.578C21.4547 127.578 23.0317 128.268 23.0647 128.847C23.0977 129.427 21.3541 129.289 21.3541 129.289L21.4547 127.578ZM8.97708 117.063C8.97708 117.063 11.376 119.099 10.5871 122.859C10.7207 124.184 10.6394 124.929 10.1846 126.088C9.4802 127.385 7.71804 127.343 7.93701 126.778C8.44014 125.48 8.23888 124.818 8.20507 124.459C8.17126 124.101 7.09819 122.251 7.09819 122.251L8.97708 117.063ZM47.5466 62.13C47.5466 62.13 51.0033 63.6759 52.9868 66.5207C52.9868 66.5207 64.3165 67.1313 67.873 68.2156C70.5899 69.0435 72.1999 70.037 73.2062 71.6101C74.2125 73.1831 79.0425 81.9591 79.6463 83.7806C79.6463 83.7806 71.5962 92.2254 70.8918 94.1296L66.9481 89.1091L47.5466 62.13ZM77.7344 85.8504C77.7344 85.8504 84.4763 97.9381 83.9732 101.084C83.47 104.23 78.8413 118.885 78.8413 118.885C78.8413 118.885 80.5519 124.68 79.8475 125.674C79.1431 126.667 75.4932 130.282 73.4743 130.365C71.4618 130.448 69.1804 129.841 67.3192 129.648C65.0378 129.41 63.7474 129.523 63.5461 129.151C63.3449 128.778 64.9042 127.661 66.6655 127.536L77.7344 85.8504ZM63.5453 127.578C63.5453 127.578 61.9683 128.268 61.9353 128.847C61.9023 129.427 63.6459 129.289 63.6459 129.289L63.5453 127.578Z" stroke="#1A1919" stroke-width="1.7" stroke-linecap="round" stroke-linejoin="round"/>
<path d="M10.7465 88.6044H74.2543V127.578H10.7465V88.6044Z" fill="#FFCCBC"/>
<path d="M39.2647 88.8308H46.8116V97.7724H39.2647V88.8308Z" fill="#00887A"/>
<path d="M10.7465 88.6044H74.2543V127.578H10.7465V88.6044Z" stroke="#1A1919" stroke-width="1.7" stroke-linecap="round" stroke-linejoin="round"/>
<path d="M37.1024 16.0098C36.7233 16.0098 36.42 15.9342 36.1925 15.7831C35.9709 15.6266 35.7988 15.4296 35.6763 15.1921C35.5597 14.9493 35.4839 14.6821 35.4488 14.3907C35.4139 14.0991 35.3964 13.8158 35.3964 13.5406C35.3964 13.2005 35.4168 12.8713 35.4576 12.553C35.5043 12.2291 35.5976 11.943 35.7376 11.6947C35.8834 11.441 36.0904 11.2386 36.3587 11.0875C36.627 10.9364 36.9857 10.8608 37.4348 10.8608C37.604 10.8608 37.7644 10.8825 37.916 10.9256C38.0735 10.9634 38.2135 11.0254 38.3359 11.1118C38.4584 11.1929 38.5547 11.2981 38.6247 11.4275C38.7005 11.5517 38.7384 11.6975 38.7384 11.8648C38.7384 11.9511 38.7151 12.0212 38.6684 12.0753C38.6276 12.1292 38.5751 12.1723 38.5109 12.2048C38.4526 12.2372 38.3884 12.2587 38.3185 12.2695C38.2485 12.2803 38.1872 12.2857 38.1347 12.2857C38.0181 12.2857 37.9452 12.2452 37.916 12.1643C37.8927 12.0833 37.8722 11.9969 37.8547 11.9052C37.8373 11.808 37.7993 11.719 37.741 11.6381C37.6827 11.5572 37.5661 11.5166 37.3911 11.5166C37.2103 11.5166 37.0674 11.6003 36.9624 11.7676C36.8632 11.9295 36.7874 12.1239 36.7349 12.3506C36.6824 12.5718 36.6503 12.7958 36.6387 13.0225C36.627 13.2436 36.6212 13.4137 36.6212 13.5324C36.6212 13.581 36.6241 13.6566 36.6299 13.7591C36.6358 13.8618 36.6445 13.9751 36.6562 14.0991C36.6737 14.2233 36.6941 14.3529 36.7174 14.4877C36.7408 14.6174 36.7699 14.7361 36.8049 14.8441C36.8457 14.9519 36.8924 15.041 36.9449 15.1112C37.0032 15.1813 37.0673 15.2164 37.1373 15.2164C37.2598 15.2164 37.3619 15.1704 37.4436 15.0787C37.5252 14.9815 37.5894 14.871 37.6361 14.7469C37.6827 14.6174 37.7148 14.4877 37.7323 14.3583C37.7556 14.2233 37.7673 14.1181 37.7673 14.0425C37.7673 13.9831 37.7615 13.9237 37.7498 13.8645C37.7381 13.805 37.7264 13.7456 37.7148 13.6864C37.4173 13.6864 37.2015 13.6592 37.0674 13.6053C36.9391 13.5514 36.8749 13.4489 36.8749 13.2977C36.8749 13.2114 36.9099 13.144 36.9799 13.0954C37.0499 13.0468 37.1315 13.0116 37.2249 12.99C37.3182 12.963 37.4144 12.9469 37.5136 12.9414C37.6127 12.9308 37.6915 12.9253 37.7498 12.9253C37.9773 12.9253 38.161 12.9469 38.301 12.99C38.4468 13.0333 38.5605 13.1007 38.6422 13.1924C38.7238 13.2788 38.7792 13.3921 38.8084 13.5324C38.8375 13.6729 38.8521 13.8401 38.8521 14.0344C38.8521 14.2988 38.8201 14.5498 38.7559 14.7873C38.6917 15.0248 38.5897 15.2354 38.4497 15.4188C38.3097 15.5968 38.1289 15.74 37.9073 15.8478C37.6856 15.9558 37.4173 16.0098 37.1024 16.0098ZM42.6637 16.0165C42.4596 16.0165 42.3137 15.958 42.2264 15.8411C42.1388 15.7242 42.0902 15.5195 42.0805 15.2272C41.993 15.3127 41.9031 15.4026 41.8107 15.497C41.7183 15.5869 41.6163 15.6703 41.5045 15.7467C41.3927 15.823 41.2712 15.8861 41.14 15.9356C41.0136 15.9849 40.8702 16.0098 40.7098 16.0098C40.5057 16.0098 40.321 15.9672 40.1558 15.8815C39.9953 15.796 39.8568 15.6724 39.7402 15.5105C39.6284 15.3487 39.5409 15.1531 39.4777 14.9235C39.4194 14.6942 39.3902 14.4356 39.3902 14.1477C39.3902 13.8059 39.4315 13.498 39.5142 13.2234C39.6016 12.9446 39.7231 12.7085 39.8787 12.5152C40.0391 12.3172 40.2311 12.1643 40.4547 12.0563C40.6782 11.9485 40.9285 11.8944 41.2056 11.8944C41.7499 11.8944 42.1339 12.1035 42.3576 12.5219C42.3673 12.3509 42.4232 12.2092 42.5253 12.0968C42.6321 11.9843 42.7608 11.9283 42.9117 11.9283C43.0526 11.9283 43.1547 11.9866 43.2178 12.1035C43.2859 12.2206 43.3198 12.4116 43.3198 12.6769C43.3198 12.8345 43.3101 13.0053 43.2907 13.1897C43.2712 13.3698 43.2495 13.5629 43.225 13.7699C43.2056 13.9769 43.1861 14.1972 43.1667 14.4312C43.1474 14.6651 43.1377 14.9147 43.1377 15.18C43.1377 15.2251 43.14 15.2722 43.1449 15.3216C43.1497 15.3622 43.1547 15.4094 43.1594 15.4633C43.1692 15.5128 43.1814 15.5622 43.1959 15.6117C43.2056 15.6476 43.2153 15.6791 43.225 15.7063C43.2348 15.7286 43.2397 15.7511 43.2397 15.7737C43.2397 15.8365 43.1814 15.8929 43.0646 15.9424C42.9529 15.9917 42.8192 16.0165 42.6637 16.0165ZM40.9942 15.2811C41.1108 15.2811 41.2299 15.2318 41.3514 15.1327C41.4778 15.0294 41.592 14.9012 41.6941 14.7481C41.801 14.5908 41.886 14.4177 41.9492 14.2288C42.0173 14.0399 42.0513 13.8554 42.0513 13.6755C42.0513 13.5271 42.0271 13.3808 41.9784 13.2369C41.9346 13.0931 41.8739 12.9648 41.7961 12.8524C41.7183 12.7399 41.6309 12.65 41.5337 12.5826C41.4413 12.5106 41.3441 12.4746 41.242 12.4746C41.1254 12.4746 41.0136 12.5196 40.9067 12.6095C40.8046 12.695 40.7122 12.8119 40.6296 12.9604C40.5519 13.1088 40.4887 13.282 40.44 13.4799C40.3964 13.6732 40.3745 13.8758 40.3745 14.087C40.3745 14.2579 40.389 14.4177 40.4182 14.566C40.4522 14.7098 40.4959 14.8359 40.5495 14.9438C40.6029 15.0472 40.6685 15.1305 40.7463 15.1935C40.824 15.252 40.9067 15.2811 40.9942 15.2811ZM44.0116 13.3543C44.0116 13.2951 44.0116 13.2032 44.0116 13.079C44.0116 12.9496 44.0116 12.8066 44.0116 12.65C44.0175 12.4935 44.0234 12.3316 44.0292 12.1643C44.0351 11.9916 44.0439 11.8323 44.0555 11.6867C44.0671 11.5356 44.0816 11.4061 44.0992 11.2981C44.1167 11.1847 44.14 11.1092 44.1692 11.0714C44.2159 11.012 44.2712 10.9634 44.3355 10.9256C44.3996 10.8878 44.4928 10.869 44.6153 10.869C44.6796 10.869 44.7436 10.8743 44.8079 10.8851C44.872 10.896 44.9332 10.9149 44.9916 10.9419C45.05 10.9689 45.0965 11.004 45.1316 11.0471C45.1665 11.0902 45.184 11.1416 45.184 11.2009C45.184 11.5733 45.1781 11.9403 45.1665 12.302C45.1608 12.6581 45.1577 13.0306 45.1577 13.4191C45.1577 13.484 45.1549 13.5783 45.1491 13.7025C45.1491 13.8212 45.1491 13.9535 45.1491 14.0991C45.1549 14.2396 45.1608 14.3852 45.1665 14.5363C45.1781 14.6875 45.1957 14.8251 45.219 14.9493C45.2481 15.0679 45.2861 15.1678 45.3328 15.2488C45.3794 15.3244 45.4377 15.3593 45.5077 15.354C45.6593 15.3432 45.7789 15.3648 45.8665 15.4188C45.9597 15.4727 46.0065 15.5807 46.0065 15.7426C46.0065 15.8235 45.9889 15.8883 45.954 15.9369C45.9189 15.9855 45.8753 16.0206 45.8226 16.0422C45.7761 16.0692 45.7206 16.0853 45.6565 16.0908C45.5981 16.1015 45.5428 16.107 45.4902 16.107C45.2745 16.107 45.0877 16.0718 44.9304 16.0016C44.7728 15.9369 44.6387 15.8452 44.5279 15.7265C44.4171 15.6077 44.3267 15.4674 44.2567 15.3054C44.1867 15.1435 44.1343 14.9654 44.0992 14.7712C44.0584 14.5337 44.032 14.2988 44.0204 14.0668C44.0147 13.8293 44.0116 13.5918 44.0116 13.3543ZM49.6952 16.0165C49.4911 16.0165 49.3452 15.958 49.2577 15.8411C49.1703 15.7242 49.1217 15.5195 49.112 15.2272C49.0244 15.3127 48.9346 15.4026 48.8423 15.497C48.7498 15.5869 48.6477 15.6703 48.536 15.7467C48.4242 15.823 48.3027 15.8861 48.1715 15.9356C48.045 15.9849 47.9016 16.0098 47.7414 16.0098C47.5371 16.0098 47.3525 15.9672 47.1873 15.8815C47.0267 15.796 46.8882 15.6724 46.7717 15.5105C46.6599 15.3487 46.5724 15.1531 46.5092 14.9235C46.4509 14.6942 46.4217 14.4356 46.4217 14.1477C46.4217 13.8059 46.4631 13.498 46.5457 13.2234C46.633 12.9446 46.7547 12.7085 46.9102 12.5152C47.0706 12.3172 47.2624 12.1643 47.4862 12.0563C47.7097 11.9485 47.9599 11.8944 48.2371 11.8944C48.7814 11.8944 49.1654 12.1035 49.3889 12.5219C49.3986 12.3509 49.4545 12.2092 49.5567 12.0968C49.6636 11.9843 49.7923 11.9283 49.943 11.9283C50.0839 11.9283 50.186 11.9866 50.2493 12.1035C50.3174 12.2206 50.3513 12.4116 50.3513 12.6769C50.3513 12.8345 50.3416 13.0053 50.3222 13.1897C50.3027 13.3698 50.2808 13.5629 50.2565 13.7699C50.2371 13.9769 50.2176 14.1972 50.1982 14.4312C50.1787 14.6651 50.169 14.9147 50.169 15.18C50.169 15.2251 50.1715 15.2722 50.1764 15.3216C50.1812 15.3622 50.186 15.4094 50.1909 15.4633C50.2007 15.5128 50.2129 15.5622 50.2274 15.6117C50.2371 15.6476 50.2468 15.6791 50.2565 15.7063C50.2663 15.7286 50.271 15.7511 50.271 15.7737C50.271 15.8365 50.2129 15.8929 50.0961 15.9424C49.9844 15.9917 49.8507 16.0165 49.6952 16.0165ZM48.0256 15.2811C48.1423 15.2811 48.2613 15.2318 48.3828 15.1327C48.5093 15.0294 48.6235 14.9012 48.7255 14.7481C48.8325 14.5908 48.9174 14.4177 48.9807 14.2288C49.0486 14.0399 49.0828 13.8554 49.0828 13.6755C49.0828 13.5271 49.0586 13.3808 49.0099 13.2369C48.9661 13.0931 48.9054 12.9648 48.8276 12.8524C48.7498 12.7399 48.6624 12.65 48.5651 12.5826C48.4728 12.5106 48.3756 12.4746 48.2735 12.4746C48.1568 12.4746 48.045 12.5196 47.9382 12.6095C47.8362 12.695 47.7437 12.8119 47.6611 12.9604C47.5833 13.1088 47.5201 13.282 47.4715 13.4799C47.4278 13.6732 47.4059 13.8758 47.4059 14.087C47.4059 14.2579 47.4206 14.4177 47.4497 14.566C47.4837 14.7098 47.5274 14.8359 47.581 14.9438C47.6344 15.0472 47.7 15.1305 47.7778 15.1935C47.8554 15.252 47.9382 15.2811 48.0256 15.2811Z" fill="#00887A"/>
</svg>
