<svg width="8" height="10" viewBox="0 0 8 10" fill="none" xmlns="http://www.w3.org/2000/svg">
<path style="fill:white" d="M4.00289 9.13C2.83289 9.13 1.94456 8.75733 1.33789 8.012C0.739895 7.26667 0.440895 6.166 0.440895 4.71C0.440895 3.254 0.739895 2.15333 1.33789 1.408C1.94456 0.662666 2.83289 0.29 4.00289 0.29C5.17289 0.29 6.05689 0.662666 6.65489 1.408C7.26156 2.15333 7.56489 3.254 7.56489 4.71C7.56489 6.166 7.26156 7.26667 6.65489 8.012C6.05689 8.75733 5.17289 9.13 4.00289 9.13ZM4.00289 7.388C4.32356 7.388 4.58356 7.30133 4.78289 7.128C4.98223 6.946 5.12523 6.66 5.21189 6.27C5.30723 5.87133 5.35489 5.35133 5.35489 4.71C5.35489 4.06867 5.30723 3.553 5.21189 3.163C5.12523 2.76433 4.98223 2.47833 4.78289 2.305C4.58356 2.123 4.32356 2.032 4.00289 2.032C3.69089 2.032 3.43089 2.123 3.22289 2.305C3.02356 2.47833 2.87623 2.76433 2.78089 3.163C2.69423 3.553 2.65089 4.06867 2.65089 4.71C2.65089 5.35133 2.69423 5.87133 2.78089 6.27C2.87623 6.66 3.02356 6.946 3.22289 7.128C3.43089 7.30133 3.69089 7.388 4.00289 7.388Z" fill="#00887A"/>
</svg>
