<svg width="55" height="57" viewBox="0 0 55 57" fill="none" xmlns="http://www.w3.org/2000/svg">
<path d="M42.9687 23.94L39.875 14.3688C38.9583 11.4475 36.3229 9.5 33.3666 9.5H21.6333C18.677 9.5 16.0416 11.4475 15.125 14.3688L13.3145 19.95L10.1062 16.625L10.7708 15.9363C11.6645 15.01 11.6645 13.5138 10.7708 12.5875C9.87703 11.6613 8.43328 11.6613 7.53953 12.5875L2.9562 17.3375C2.06245 18.2638 2.06245 19.76 2.9562 20.6862C3.84995 21.6125 5.2937 21.6125 6.18745 20.6862L6.87495 19.9737L10.977 24.225C7.28745 25.46 4.58328 29.0225 4.58328 33.25C4.58328 36.7887 6.48537 39.8525 9.2812 41.4912C9.78537 44.8875 12.627 47.5 16.0416 47.5C19.0208 47.5 21.5416 45.505 22.5041 42.75H32.5187C33.4583 45.505 35.9791 47.5 38.9812 47.5C42.3958 47.5 45.2375 44.8875 45.7416 41.4912C48.5145 39.8525 50.4166 36.7887 50.4166 33.25C50.4166 28.6187 47.2083 24.7712 42.9687 23.94ZM29.7916 14.25H33.3666C34.352 14.25 35.2229 14.8912 35.5437 15.865L38.0645 23.75H29.7916V14.25ZM19.4562 15.865C19.777 14.8912 20.6479 14.25 21.6333 14.25H25.2083V23.75H16.9812L16.9354 23.7025L19.4562 15.865ZM16.0416 42.75C14.7812 42.75 13.75 41.6813 13.75 40.375C13.75 39.0688 14.7812 38 16.0416 38C17.302 38 18.3333 39.0688 18.3333 40.375C18.3333 41.6813 17.302 42.75 16.0416 42.75ZM38.9583 42.75C37.6979 42.75 36.6666 41.6813 36.6666 40.375C36.6666 39.0688 37.6979 38 38.9583 38C40.2187 38 41.25 39.0688 41.25 40.375C41.25 41.6813 40.2187 42.75 38.9583 42.75ZM44.6645 36.385C43.427 34.5087 41.3187 33.25 38.9583 33.25C35.9791 33.25 33.4583 35.245 32.4958 38H22.5041C21.5416 35.245 19.0208 33.25 16.0416 33.25C13.6812 33.25 11.5729 34.5087 10.3354 36.385C9.62495 35.5537 9.16662 34.4613 9.16662 33.25C9.16662 30.6375 11.2291 28.5 13.75 28.5H41.25C43.7708 28.5 45.8333 30.6375 45.8333 33.25C45.8333 34.4613 45.375 35.5537 44.6645 36.385Z" fill="#00887A"/>
</svg>
