<svg width="303" height="212" viewBox="0 0 303 212" fill="none" xmlns="http://www.w3.org/2000/svg">
<path d="M162.152 0C169.112 0 175.503 3.80937 178.77 9.92804L185.445 22.2079L207.886 3.51125C210.632 1.23982 214.041 0 217.592 0H227.25C235.63 0 242.4 6.78116 242.4 15.1429V30.2857C242.4 38.6616 235.63 45.4286 227.25 45.4286H197.992L224.078 93.2705C229.854 91.8509 236.009 90.8571 242.4 90.8571C275.872 90.8571 303 117.972 303 151.429C303 184.885 275.872 212 242.4 212C208.928 212 181.8 184.885 181.8 151.429C181.8 132.074 190.511 115.606 204.099 104.486L196.808 90.9518C178.06 104.77 166.65 126.727 166.65 151.429C166.65 156.208 167.171 161.697 168.165 166.571H134.835C135.829 161.697 135.924 156.208 135.924 151.429C135.924 109.596 102.452 75.7143 60.1739 75.7143H14.7239V60.5714C14.7239 52.1955 21.9344 45.4286 29.8739 45.4286H78.3539C86.4023 45.4286 94.072 48.5991 99.7533 54.2777L120.774 75.7143L167.644 37.0527L159.88 22.7143H132.136C126.266 22.7143 120.774 17.6272 120.774 11.3571C120.774 5.08705 126.266 0 132.136 0H162.152ZM212.1 151.429C212.1 168.133 225.688 181.714 242.4 181.714C259.112 181.714 272.7 168.133 272.7 151.429C272.7 134.724 259.112 121.143 242.4 121.143C241.264 121.143 240.127 121.19 239.039 121.332L252.39 146.034C255.372 151.523 253.336 158.432 247.797 161.413C242.305 164.395 235.393 162.36 232.41 156.823L219.06 132.121C214.704 137.374 212.1 144.094 212.1 151.429ZM120.158 162.786C114.809 190.8 90.1898 212 60.6 212C27.1327 212 0 184.885 0 151.429C0 117.972 27.1327 90.8571 60.6 90.8571C90.1898 90.8571 114.809 112.057 120.158 140.071H88.6748C84.2245 128.951 73.3355 121.143 60.6 121.143C43.864 121.143 30.3 134.724 30.3 151.429C30.3 168.133 43.864 181.714 60.6 181.714C73.3355 181.714 84.2245 173.906 88.6748 162.786H120.158ZM45.45 151.429C45.45 143.053 52.2202 136.286 60.6 136.286C68.9798 136.286 75.75 143.053 75.75 151.429C75.75 159.804 68.9798 166.571 60.6 166.571C52.2202 166.571 45.45 159.804 45.45 151.429Z" fill="#FF6E1D"/>
</svg>
